<mxfile host="app.diagrams.net" modified="2020-12-07T23:07:18.339Z" agent="5.0 (Windows NT 10.0; Win64; x64) AppleWebKit/537.36 (KHTML, like Gecko) Chrome/87.0.4280.88 Safari/537.36" etag="vIsptWPFIOgkv31n0BS8" version="13.10.9" type="github">
  <diagram id="C5RBs43oDa-KdzZeNtuy" name="Page-1">
    <mxGraphModel dx="1240" dy="689" grid="1" gridSize="10" guides="1" tooltips="1" connect="1" arrows="1" fold="1" page="1" pageScale="1" pageWidth="827" pageHeight="1169" math="0" shadow="0">
      <root>
        <mxCell id="WIyWlLk6GJQsqaUBKTNV-0" />
        <mxCell id="WIyWlLk6GJQsqaUBKTNV-1" parent="WIyWlLk6GJQsqaUBKTNV-0" />
        <mxCell id="EpqbxgLTX3g3RoxkR-dn-18" value="" style="edgeStyle=orthogonalEdgeStyle;rounded=0;orthogonalLoop=1;jettySize=auto;html=1;" parent="WIyWlLk6GJQsqaUBKTNV-1" source="EpqbxgLTX3g3RoxkR-dn-0" target="EpqbxgLTX3g3RoxkR-dn-1" edge="1">
          <mxGeometry relative="1" as="geometry">
            <Array as="points">
              <mxPoint x="140" y="115" />
              <mxPoint x="140" y="115" />
            </Array>
          </mxGeometry>
        </mxCell>
        <mxCell id="EpqbxgLTX3g3RoxkR-dn-0" value="Sumber AC&lt;br&gt;220V" style="ellipse;whiteSpace=wrap;html=1;direction=south;fillColor=#a20025;strokeColor=#6F0000;fontColor=#ffffff;" parent="WIyWlLk6GJQsqaUBKTNV-1" vertex="1">
          <mxGeometry x="50" y="75" width="60" height="80" as="geometry" />
        </mxCell>
        <mxCell id="EpqbxgLTX3g3RoxkR-dn-32" value="" style="edgeStyle=orthogonalEdgeStyle;rounded=0;orthogonalLoop=1;jettySize=auto;html=1;" parent="WIyWlLk6GJQsqaUBKTNV-1" source="EpqbxgLTX3g3RoxkR-dn-1" target="EpqbxgLTX3g3RoxkR-dn-31" edge="1">
          <mxGeometry relative="1" as="geometry" />
        </mxCell>
        <mxCell id="EpqbxgLTX3g3RoxkR-dn-1" value="Buck Converter" style="rounded=0;whiteSpace=wrap;html=1;fillColor=#647687;strokeColor=#314354;fontColor=#ffffff;" parent="WIyWlLk6GJQsqaUBKTNV-1" vertex="1">
          <mxGeometry x="225" y="100" width="100" height="30" as="geometry" />
        </mxCell>
        <mxCell id="EpqbxgLTX3g3RoxkR-dn-5" value="STM32F103" style="rounded=0;whiteSpace=wrap;html=1;" parent="WIyWlLk6GJQsqaUBKTNV-1" vertex="1">
          <mxGeometry x="240" y="200" width="300" height="130" as="geometry" />
        </mxCell>
        <mxCell id="EpqbxgLTX3g3RoxkR-dn-25" value="" style="edgeStyle=orthogonalEdgeStyle;rounded=0;orthogonalLoop=1;jettySize=auto;html=1;dashed=1;" parent="WIyWlLk6GJQsqaUBKTNV-1" source="EpqbxgLTX3g3RoxkR-dn-6" target="EpqbxgLTX3g3RoxkR-dn-1" edge="1">
          <mxGeometry relative="1" as="geometry" />
        </mxCell>
        <mxCell id="EpqbxgLTX3g3RoxkR-dn-6" value="PWM" style="rounded=0;whiteSpace=wrap;html=1;" parent="WIyWlLk6GJQsqaUBKTNV-1" vertex="1">
          <mxGeometry x="250" y="200" width="50" height="20" as="geometry" />
        </mxCell>
        <mxCell id="EpqbxgLTX3g3RoxkR-dn-10" value="ADC" style="rounded=0;whiteSpace=wrap;html=1;rotation=90;" parent="WIyWlLk6GJQsqaUBKTNV-1" vertex="1">
          <mxGeometry x="230" y="255" width="40" height="20" as="geometry" />
        </mxCell>
        <mxCell id="EpqbxgLTX3g3RoxkR-dn-15" value="" style="edgeStyle=orthogonalEdgeStyle;rounded=0;orthogonalLoop=1;jettySize=auto;html=1;" parent="WIyWlLk6GJQsqaUBKTNV-1" source="EpqbxgLTX3g3RoxkR-dn-11" target="EpqbxgLTX3g3RoxkR-dn-14" edge="1">
          <mxGeometry relative="1" as="geometry" />
        </mxCell>
        <mxCell id="EpqbxgLTX3g3RoxkR-dn-28" style="edgeStyle=orthogonalEdgeStyle;rounded=0;orthogonalLoop=1;jettySize=auto;html=1;entryX=0;entryY=0.5;entryDx=0;entryDy=0;dashed=1;" parent="WIyWlLk6GJQsqaUBKTNV-1" source="EpqbxgLTX3g3RoxkR-dn-11" target="EpqbxgLTX3g3RoxkR-dn-5" edge="1">
          <mxGeometry relative="1" as="geometry" />
        </mxCell>
        <mxCell id="EpqbxgLTX3g3RoxkR-dn-11" value="Sensor Tegangan" style="rounded=0;whiteSpace=wrap;html=1;fillColor=#ffcccc;strokeColor=#36393d;" parent="WIyWlLk6GJQsqaUBKTNV-1" vertex="1">
          <mxGeometry x="110" y="140" width="80" height="40" as="geometry" />
        </mxCell>
        <mxCell id="EpqbxgLTX3g3RoxkR-dn-14" value="Lampu Utama" style="rounded=0;whiteSpace=wrap;html=1;fillColor=#a0522d;strokeColor=#6D1F00;fontColor=#ffffff;" parent="WIyWlLk6GJQsqaUBKTNV-1" vertex="1">
          <mxGeometry x="115" y="210" width="70" height="30" as="geometry" />
        </mxCell>
        <mxCell id="EpqbxgLTX3g3RoxkR-dn-20" value="" style="endArrow=classic;html=1;entryX=0.5;entryY=0;entryDx=0;entryDy=0;" parent="WIyWlLk6GJQsqaUBKTNV-1" target="EpqbxgLTX3g3RoxkR-dn-11" edge="1">
          <mxGeometry width="50" height="50" relative="1" as="geometry">
            <mxPoint x="150" y="110" as="sourcePoint" />
            <mxPoint x="200" y="90" as="targetPoint" />
          </mxGeometry>
        </mxCell>
        <mxCell id="EpqbxgLTX3g3RoxkR-dn-33" value="" style="edgeStyle=orthogonalEdgeStyle;rounded=0;orthogonalLoop=1;jettySize=auto;html=1;dashed=1;" parent="WIyWlLk6GJQsqaUBKTNV-1" source="EpqbxgLTX3g3RoxkR-dn-31" target="EpqbxgLTX3g3RoxkR-dn-5" edge="1">
          <mxGeometry relative="1" as="geometry" />
        </mxCell>
        <mxCell id="IaU5ZDQIou1FokywF6je-2" value="" style="edgeStyle=orthogonalEdgeStyle;rounded=0;orthogonalLoop=1;jettySize=auto;html=1;" edge="1" parent="WIyWlLk6GJQsqaUBKTNV-1" source="EpqbxgLTX3g3RoxkR-dn-31" target="EpqbxgLTX3g3RoxkR-dn-35">
          <mxGeometry relative="1" as="geometry" />
        </mxCell>
        <mxCell id="EpqbxgLTX3g3RoxkR-dn-31" value="Sensor Arus" style="rounded=0;whiteSpace=wrap;html=1;fillColor=#fa6800;strokeColor=#C73500;fontColor=#ffffff;" parent="WIyWlLk6GJQsqaUBKTNV-1" vertex="1">
          <mxGeometry x="352" y="100" width="76" height="30" as="geometry" />
        </mxCell>
        <mxCell id="EpqbxgLTX3g3RoxkR-dn-34" value="ADC" style="rounded=0;whiteSpace=wrap;html=1;rotation=0;" parent="WIyWlLk6GJQsqaUBKTNV-1" vertex="1">
          <mxGeometry x="370" y="200" width="40" height="20" as="geometry" />
        </mxCell>
        <mxCell id="IaU5ZDQIou1FokywF6je-3" value="" style="edgeStyle=orthogonalEdgeStyle;rounded=0;orthogonalLoop=1;jettySize=auto;html=1;" edge="1" parent="WIyWlLk6GJQsqaUBKTNV-1" source="EpqbxgLTX3g3RoxkR-dn-35" target="y-lqlmgp_zkwsUzzVVPY-3">
          <mxGeometry relative="1" as="geometry" />
        </mxCell>
        <mxCell id="EpqbxgLTX3g3RoxkR-dn-35" value="Relay" style="rounded=0;whiteSpace=wrap;html=1;fillColor=#6d8764;strokeColor=#3A5431;fontColor=#ffffff;" parent="WIyWlLk6GJQsqaUBKTNV-1" vertex="1">
          <mxGeometry x="460" y="100" width="50" height="30" as="geometry" />
        </mxCell>
        <mxCell id="EpqbxgLTX3g3RoxkR-dn-37" value="" style="edgeStyle=orthogonalEdgeStyle;rounded=0;orthogonalLoop=1;jettySize=auto;html=1;dashed=1;" parent="WIyWlLk6GJQsqaUBKTNV-1" source="EpqbxgLTX3g3RoxkR-dn-36" target="EpqbxgLTX3g3RoxkR-dn-35" edge="1">
          <mxGeometry relative="1" as="geometry" />
        </mxCell>
        <mxCell id="EpqbxgLTX3g3RoxkR-dn-36" value="GPIO" style="rounded=0;whiteSpace=wrap;html=1;rotation=0;" parent="WIyWlLk6GJQsqaUBKTNV-1" vertex="1">
          <mxGeometry x="465" y="200" width="40" height="20" as="geometry" />
        </mxCell>
        <mxCell id="y-lqlmgp_zkwsUzzVVPY-8" style="edgeStyle=orthogonalEdgeStyle;rounded=0;orthogonalLoop=1;jettySize=auto;html=1;exitX=0.5;exitY=1;exitDx=0;exitDy=0;entryX=0.5;entryY=0;entryDx=0;entryDy=0;" parent="WIyWlLk6GJQsqaUBKTNV-1" source="EpqbxgLTX3g3RoxkR-dn-41" target="EpqbxgLTX3g3RoxkR-dn-43" edge="1">
          <mxGeometry relative="1" as="geometry" />
        </mxCell>
        <mxCell id="IaU5ZDQIou1FokywF6je-6" value="" style="edgeStyle=orthogonalEdgeStyle;rounded=0;orthogonalLoop=1;jettySize=auto;html=1;" edge="1" parent="WIyWlLk6GJQsqaUBKTNV-1" source="EpqbxgLTX3g3RoxkR-dn-41" target="IaU5ZDQIou1FokywF6je-5">
          <mxGeometry relative="1" as="geometry" />
        </mxCell>
        <mxCell id="EpqbxgLTX3g3RoxkR-dn-41" value="Baterai &lt;br&gt;Li-On &lt;br&gt;di seri 3&amp;nbsp;" style="rounded=0;whiteSpace=wrap;html=1;fillColor=#647687;strokeColor=#314354;fontColor=#ffffff;" parent="WIyWlLk6GJQsqaUBKTNV-1" vertex="1">
          <mxGeometry x="590" y="170" width="60" height="40" as="geometry" />
        </mxCell>
        <mxCell id="EpqbxgLTX3g3RoxkR-dn-44" value="" style="edgeStyle=orthogonalEdgeStyle;rounded=0;orthogonalLoop=1;jettySize=auto;html=1;dashed=1;" parent="WIyWlLk6GJQsqaUBKTNV-1" source="EpqbxgLTX3g3RoxkR-dn-43" target="EpqbxgLTX3g3RoxkR-dn-5" edge="1">
          <mxGeometry relative="1" as="geometry" />
        </mxCell>
        <mxCell id="EpqbxgLTX3g3RoxkR-dn-43" value="Sensor Tegangan" style="rounded=0;whiteSpace=wrap;html=1;fillColor=#ffcccc;strokeColor=#36393d;" parent="WIyWlLk6GJQsqaUBKTNV-1" vertex="1">
          <mxGeometry x="580" y="250" width="80" height="30" as="geometry" />
        </mxCell>
        <mxCell id="EpqbxgLTX3g3RoxkR-dn-46" value="ADC" style="rounded=0;whiteSpace=wrap;html=1;rotation=-90;" parent="WIyWlLk6GJQsqaUBKTNV-1" vertex="1">
          <mxGeometry x="510" y="255" width="40" height="20" as="geometry" />
        </mxCell>
        <mxCell id="IaU5ZDQIou1FokywF6je-7" style="edgeStyle=orthogonalEdgeStyle;rounded=0;orthogonalLoop=1;jettySize=auto;html=1;entryX=0.5;entryY=1;entryDx=0;entryDy=0;dashed=1;" edge="1" parent="WIyWlLk6GJQsqaUBKTNV-1" source="EpqbxgLTX3g3RoxkR-dn-58" target="IaU5ZDQIou1FokywF6je-5">
          <mxGeometry relative="1" as="geometry" />
        </mxCell>
        <mxCell id="EpqbxgLTX3g3RoxkR-dn-58" value="PWM" style="rounded=0;whiteSpace=wrap;html=1;rotation=-90;" parent="WIyWlLk6GJQsqaUBKTNV-1" vertex="1">
          <mxGeometry x="510" y="300" width="40" height="20" as="geometry" />
        </mxCell>
        <mxCell id="EpqbxgLTX3g3RoxkR-dn-61" value="" style="edgeStyle=orthogonalEdgeStyle;rounded=0;orthogonalLoop=1;jettySize=auto;html=1;dashed=1;" parent="WIyWlLk6GJQsqaUBKTNV-1" source="EpqbxgLTX3g3RoxkR-dn-59" target="EpqbxgLTX3g3RoxkR-dn-60" edge="1">
          <mxGeometry relative="1" as="geometry" />
        </mxCell>
        <mxCell id="EpqbxgLTX3g3RoxkR-dn-59" value="Sensor LDR" style="rounded=0;whiteSpace=wrap;html=1;fillColor=#fad7ac;strokeColor=#b46504;" parent="WIyWlLk6GJQsqaUBKTNV-1" vertex="1">
          <mxGeometry x="310" y="379.87" width="40" height="30" as="geometry" />
        </mxCell>
        <mxCell id="EpqbxgLTX3g3RoxkR-dn-60" value="EXT-INT" style="rounded=0;whiteSpace=wrap;html=1;" parent="WIyWlLk6GJQsqaUBKTNV-1" vertex="1">
          <mxGeometry x="305" y="310" width="50" height="20" as="geometry" />
        </mxCell>
        <mxCell id="EpqbxgLTX3g3RoxkR-dn-64" value="" style="edgeStyle=orthogonalEdgeStyle;rounded=0;orthogonalLoop=1;jettySize=auto;html=1;dashed=1;" parent="WIyWlLk6GJQsqaUBKTNV-1" source="EpqbxgLTX3g3RoxkR-dn-62" target="EpqbxgLTX3g3RoxkR-dn-63" edge="1">
          <mxGeometry relative="1" as="geometry" />
        </mxCell>
        <mxCell id="EpqbxgLTX3g3RoxkR-dn-62" value="Bluetooth HC05" style="rounded=0;whiteSpace=wrap;html=1;fillColor=#b1ddf0;strokeColor=#10739e;" parent="WIyWlLk6GJQsqaUBKTNV-1" vertex="1">
          <mxGeometry x="440" y="379.87" width="100" height="30" as="geometry" />
        </mxCell>
        <mxCell id="EpqbxgLTX3g3RoxkR-dn-63" value="USART1" style="rounded=0;whiteSpace=wrap;html=1;" parent="WIyWlLk6GJQsqaUBKTNV-1" vertex="1">
          <mxGeometry x="460" y="310" width="59" height="20" as="geometry" />
        </mxCell>
        <mxCell id="EpqbxgLTX3g3RoxkR-dn-67" style="edgeStyle=orthogonalEdgeStyle;rounded=0;orthogonalLoop=1;jettySize=auto;html=1;entryX=1;entryY=0.5;entryDx=0;entryDy=0;dashed=1;" parent="WIyWlLk6GJQsqaUBKTNV-1" source="EpqbxgLTX3g3RoxkR-dn-66" target="EpqbxgLTX3g3RoxkR-dn-62" edge="1">
          <mxGeometry relative="1" as="geometry" />
        </mxCell>
        <mxCell id="EpqbxgLTX3g3RoxkR-dn-66" value="" style="shape=image;verticalLabelPosition=bottom;verticalAlign=top;imageAspect=0;aspect=fixed;image=data:image/png,iVBORw0KGgoAAAANSUhEUgAAAPMAAAENCAYAAADaGVPiAAAAAXNSR0IArs4c6QAAAARnQU1BAACxjwv8YQUAAAAJcEhZcwAADsMAAA7DAcdvqGQAAP+lSURBVHhe7L0FnFxVur3NDBDvjrW7d5dLV2uMuLu7Q4JDCIFAjJBACHHi7t7uFnf3jivOMMMwM/isb727qjqVkCBz7/9+t7l9+rdyTrlkP2etd599dj2C/8PLv//9b6WffvoJP/74I3744Qd8//33+O677x6qb7/9Ft988w3+8Y9/4Ouvv1b6+9//jr/+9a/47LPPcOfOHdy+fbtsfevWLSXZ/h/VLb4HF3148zY+unmLuqn08Y27+oT69CH6nI/5go//gs/5F36mLz/8CH/9yC7Z/sudD9Xtn/F+D3r8/2t9ws/y2e07+Pvnn+Obr77C9//8J77959f48ovP8Bfqu+++wXfff4O//u1LfPX13/D9T9/hh3//QH2PH/nH//n7VH7/KmB2wCwSmH8JaCfIAu+HH36Is2fPYs+ePUhNTcWaNWuwYMECvPvuu5gyZQrefvttvPXWW5gwYQLGjx+PcePG/Y9qPDXBqTfHYSI1SelN6g289cZdTabefqDexBQRHyeaKho3/j7Zb5P7Pvg5/nul3gdf990JEzFt0iS8N3kyZkydimXz52Pj6tXITE3Bvt27cOXSRXz55ef421eE+Ku/4ocfv8f3P36Hf377T7Xm/7qjFTgXtoWyv7uAlKe//9Mwy+IKs6s7C7j/+te/lATef3KPL+vS0lJkZWVh2bJlCprnn38ezzzzDAYPHoyePXuie/fu6Natm5Js9+jRQ13/P6FevXqVqTfVR9Y9uRb16IW+PXpSPdDvPvXv/jB1R79uVNduVFf07dIVfTp3Qe9OndCro129O3VW18t9BvC+A/i4/6fia/Tna8lr9u7cmeL76dIFffl9DxswAM8/PRIvPPsM3nj9NaxauRxHjx3GJ58wRfz1C3xDhxZXvuvIPylwyz/G9r8KmB/gzk4XFgnEEqUlNufn52MS3aBv374KGAG1Xbt2aNGiBZo3b45mzZohOTkZCQkJ/78oMTGxTEmi+ATEx9pgs1hhM1koM2xmE+JMJsRTsna9/IsyGJUSjCYk8nmS+Zz1rbFowOev71ADWxwa/g+pUVw8GsbHoxE/Z2N+500bNECzhg3R7IlGaN+mNfr17Y0RI57Ey6NexMpVy3Hi5HH8419f44ef6NAqajNmE2xnvLZDfReM8vhXAfN9MDvd2Xn5iy++wOHDh7FkyRKMHDlSOWC3bj0Qa7UhJiYGFosF8WxY8WxgIgVRYhKSk5JRr149NGAja8hG9j8hea1kvmZ8ciLiEuJhi4tDeFg4QgKDEOIfiOCAAAQF+nHth5AAf67tCvH3R+gDFOaQbAf78XH+fggLDERMSCjMEVGIjdEgVqtTcDWvVx/N/gfVvH4Du/iZm8hnlh2O2Yw4ixkmvRZWsxFNGj/BnW5PDB4yAG9PmYi0rK24cecyvv3hHwT6W4dLO526/P9VwOyA+X6oZZFOrv3792PCxHEYPnwIunTpDJ1WD28vf8REa+mG8ahHV0gUB2SDtlktSLDFIs5mIeRGmCmT2QCj6X9IdFkDG7Mu1gKjzQoz34tWr4NOo4VeK9JAp4umYtS2UwbKeL80GpiUYrgdw88dDS0la0NMNKxR3JFFxsAUGQ2bRocEvRFxOgNsej0l698iue9/Ih3iDHqKz0HFMyk04s5T1CApCbEWE99nDN+vBvHxcWjQMBkdO7fG0Kd6Yc3GxfjbPz4l0P8sg/nbH75REVsu30Wj/P1VwPwAmMWZv/zyS5w4cUJ1Zj3z3EC0ahuHyMgQ+PuFICJUS0AIjzEGUZFhCKTredatjVo1q6Bu3crw9qkCD+/HUMvjT6hR+xFUrfUnVK39KKrWeRzVPCqhumfleyTX/ddVhc9VAzU8a8PNyws1vX1Qy9sXNX247eOB2j51UcenDup610ZdL6496qBOnVqoXcsdtWu6oba7Gzxq14Jnndrw4m3ede3y8qgND8+aqOPpTrnxce7w4uO83HhdpWpwf6QS3B+tglpVa6BmdafcXOT+EMltvG+N6lQ1qipV5RdVS6kyVQm13SpTVSm+J3e+1zr+8KnrD1/uaIMlPWgiYDIZoSf4waGB0BrD0aZjfQx/ujfmL56OOx9fV1H7ux+/w9eM3wpq1tSucJS3vwqY74NZFona58+fx+TJk9G7d2/Ub2SC3uzNWB2JsBAtgvyj4OPlRxiqEWA2SLc6cGPjrFa1MqpWfRTVqv8Z1WoQYJH7o6hSsxIqE/RKNSvjMfdKeJxrpyrJ9bX+O1QdlWrXROVadVG1pjflg2q1fFCljgeqcEdTpa47qtVx486lBtyoGnzf1QhQtWqV4UaYahFmUU13fh4XudesBje+xxr8DEruvL9bNdSoVgPVH6+Oan+qjuqVa6GGmydvd5WXy9op19s9qLqoUasOVdshPk+tmg+UG+Ve066aNd35vdfkTog7Iz5HLb52zWrelAfcqrnz83Cn6lkdwSEBiNZEIyI6AqGRAbAmRKF1h4YYPLwX0jK34i9//QJf//PvxOBH/PWrLxXYrnCUt78KmB8AsxwvXrFiBbp27YqWLVsyrtGBoyKgjTHD3zeKjdwHVau54fHKf8LjlSqhShU2uOp0Qbcw1HHX0OX0bGB6uokO7tWi4V49Eu41onh9DOrU1NjF7dpu0XSZKPvt1SL+S3Ljc7jViOY6iqDxco1wAhZK+AIIjTeBEHBqEQo2dqpGzer8DISUQPv4eCKQdbQHXdhdAHanWxJ22a7J7VruVfl5KvPzCchVuZOqgcfdanHHwe/BIxhVPCLweN0oPF4nEpVEdSOocIdCqRBU4v0qeQT9XHKbktwv7KGqXCcM1WqHoXotfq6a4Xx/EQQ5nN9lKOq4BTAZEOiq7vwumXyqMw3VeASVuTN1Z5Lw4WeLiIlAtC4cDZ5IQLceHTHqlRdw5Ohhdfz5J8ZrOYQlh6ycYJTHv//zMDsX6cGWRVy5oCAfTz31JNq2bceaKxG22EQYDXHw841A5Up16A6+dCtfgiJQB9CJo+BRN5FAtEFoSE+EhQ5EeMRQREYPQ4x2GDQGro2DEaUfWCa5rDUPhc46HIbYJ1njPkWN+N0yUWYXRUb1Z2Joh9q1m6JW7STUqqOHe+0Q5YTV6WbVBeTadOhaNVCpKuM5YQ4I8odOr4GnV11+Nro2nded0Vu2Fcxu1QkJL9eoS4gCUb12DKp5JsA9sBU8ovsiwNofIUn9EZo0oExy2a5+VF8XyWWR3DYQIYmDqSHUUIQkDKOGP1BhVET8cETGPYVIflcx/KxarvXxQ6Gx9EZtrwS41dEykQTiMZYAf3arhEeYgh6p8Rge+dMjCAgPhtFigNVm5g66Gbp374K161bj8y8+VcehBWgZXOIKR3n7q4DZsTgPR3311Vfq8FP37l3RunUbJMQnw6iPQ3ioni7mSSemC7v7oVKVQF42wj+gNYymEajfYDwaN3kfSfVnwJY8B9b6H8DUcB50DWZA33QW9C2p1rOha2OXltsiTatZDs38j6RtORP6FjNhbD4T5mYzYXliASxJy6GLfQfRxhcRoe0O3xAbIzbfOx22MiN2Vaoa9Vg1pgo6bUBwALSEWaB2q8VygYDL2p2qSdWgE1fiTqwGk0RQaDtoTM/DlDQL1sabYW1eBFPb1dB3eg/ajqLp1PvQdBDNgKY932d7fs72c6i50LT7gFoATdtF1BJqGTRtVlArqVXU6odK21rWaxDTeg2iKU3bNTB2WA1rx2Uw8TsMSRiNWpF98CfvJDxCN3+kdm08UvNxPFLrcVT1cudOVQeT2YRGjRqhR8/uePLJYTh27Ah++IH/99/9q+LQ1B9lkYgtIMuormHDhqJrty7qmHGDBo1gtcSyRvZGFcbSSnSo6rVC6XiJ0ESPQMMG09H4iUVo3HgJGj2xFMkNlyCh4WLYnlgMc6NFiEiciaj6cxDdiI246QJomy+iFivpWtil/S9Ix+fRUwY+r7HFIphaLIOlxWpqIXSN34W+yRsIiR+GmpFtUclbj6qM2tXpyqLHq7KRs74MdDhzaGiwcuSq1auwrubnZI0tdXbVOnVZe8fCI6QXdEmvIbHlXCS1WoWkFluQ1DQTxjbrENmZn7XTEkR0XOrQMqWwjssR2onquIJa6aJV1OrfrDAqvOMapchO6xDTdSOiO69HeOvliGi+BGaCHcudganpQkTVG4daUd3wiEckHvGsQ4d+BI9UewQhUYFISo5HrNWCjh3ao03rlli6ZBF++P5bfPH5p/Z24AJHefurgNmxSC+2wLxx40Z06NCBEbs1kpIS1UAQs5H1LffulViHVapVFXX8TTDFPoNmjdZQqWhULxMN6m9D/YYb0aDxatRvuhz1WyxH447r0feZPeg4qACNO6chvuUGWJvSSURN7srSZBUsjf8zmSkTH29suoIwL4OhDQFv/wEiWs9EYLNpCGk1BwHN5qBu8nTUYASvXtPLURfXQOUqj6Mad1BBgf4w6DQIDgyAOyN11aqVUYMQV/Zww+PUo54+CIx9FlGNFsLYahls7Zcjrs0i1OPOo0kT7kDarkBw57XUJgR32kJtpmR7EwI6b4Rvl/V31XUttZpaBd9uK6hl1BJqMXy7L6IWPlD+vC2w2yIEcx3ag67edwXMA9bB1ncz4numIL5DKuJapSOhWQ7qt9kOS9M58DQTaP9gOvMj+LPXI/AMrIa4BAMaN2qApo2fQMd2bfHMyKdw9dJF/PUvX0grqIC5fC7S2XVX3373DT7+5CO88soodOnSia6cyNjcCC1YX0WGBqCuO13ZrQZqB1mgT3gZDZotRLMW69Gg0UrEJy1GYv3FaNl+A0a8uA8DnsxHl37bMXriSby/6DO8t/AzvDLpAtr2SUNCy+WIJ+hxzZfDRlmbLWfDWwYzdwAmbhubEcpfkUHExzqlFxFkXUuqzVLG2EWIbLMAYa0+oHMtpAhAS6reaHj4GlDNzYv1ci08XqUGqlSvwdq6Nvx8fODt4YUa1arz+sfwJ37WR2p54BGfGFTWtEZk62nQMtJqO6yEnjCb2i6Fma9labMM0R0Ic5fVlAC9DiEE26ngzmsQ2Hm1UpDSKmoltcKh5dQyainve69CHAqlwqmoTssQQ+m6LEfXMSUYNf8cJq+7gEkrT2DCwmN4cuwuNOuyHcmM7/U6zYO59WTUNXVHpbAw/MmzClPG47BYdejZrStMeh3atmyB7l06IzM9Ff/6x9/xPduAwOyq8vT3fxxmGRxi1w8/focLpecwYEA/dO3aGWazEa1aNyfMTRDo44m6bPTV6oYgyNyTMXM1kltsRwOun2i9DM3aL0Hnfpvw9OjdmLfiM7w87hAaE6ihz+Vj0eovsWTdV3hj6jm0672Jj12AuBYLYGMMjqWzWSkzY7KJUdHQYqkdSsL+iyK02lZL75FG1JoiXDGsQ2PaLkdMu3tlaPkuNJZe8PRPYMoIxaPVvPFY9dosHWrAzc0NHnW8uGYsrVwFj1Sti0e89Khs7Anvlm8hrPNCRHRZhSjCGNNplYI6mnE5ohPjM6EM6XJXoSJeVyaJ2SpqL1exO/whiuhwV5Ei7jSiKNlZaNqvgL7dSpjar0IsI/ebC68j9TBw8ENg742vsevyl1iw9Ry6Dd+GpPbvI6HDdMQz7htbTSPQjbljYt3vXpk1sx4DeveCSatFw+QkdOnYAYsXLsDXcjIG47ZrmyhvQFfATP0bP6r1rl070Lt3T3Ts2B4Ggw4dO7VDy1ZN4eflg+qVaqNOcBKsrcayNluNuNZbkNxqDTr0TcHLE49h8pxrmL7kYyzb+g3enH4BjTosQZve6zF68kmMeusEOg9ORRIjcFxLgXihgtgiILckyC2XUGx4hNRA59a3ZMP9JbUi0NyJuEorarMcWkKsobTtVkDnkJ4x2EBZ+Li4pkugiZ+IuqF98bhXEh6pE4JHWCc/xvLBzcMTbnXD8bi7mdG6FSEYxbg+D1Fd1yiQRZGEOVqAdqyj5Dq5jbG5TI77RtCBw0UE3lWyA3igWFdHOhQlIsQCsoJZEkEHlhNMBxbuTF6YcQrLC79E+qm/YuuRG9hy8BqmrDqIdkP5f9NuBmxtZ8HaYTFsnechrGF/PFI3CFVq1oZOp0Pf7t3RKCkJibZY9O3ZA5PGj8Pnn35yT5u42zbKD9AVMFMCsxyaSEnZhi5dO6l62WDQonuPLmjeojG8PQNR6fEAhJh7o0Fv1o0d1sDUbiPi26xB/Y5r0HrAFrQdKI6wBEmEOJmOEFXvHSS0XaSua9pzPQys4fRN5sDKuGsWmFsvgbmVQLyY7rGEIAvM4p5UK8L3C3oQzEoCscBMF3bCrKcEZCNlbrMRCe3z2dC3IrrRTHiZn0TVqOb4c4AWj/AzPlJdjv3WI+hDEWybysdsganbdmi7b0Z09/WI6raG8K7+zRLwIwnzA8F9gJwgO2GOFrnC3HEVDPy+TZ2YiAZtQO+xmeg3fhPaPT8P3V9divbPrqBrz4Gp1WxYWi+AnnW9qeM8Qv0G3EKSCbMvIiNi1FlWbVs0R6zJiCH9++G5kSPwyYd3VKvAv++F2d4+XJH53/tXATP173//qA5NzJo9A506dUBScgJrKyP69u2JJk0aog7dysOnAQxNxqMBwY1mY4rpuJZAr4aNThHbYRkSuq5GPBtuHGOljQ3T0n6put5Kyba53VJuC4iLoGm+gI2OLkMADYzHhlayFpAJnugBALvqt8CsIcQSTbX3iPG4/VpCsQYG1qr6zvOh6zQDuvZTWWu/DV1z1sVN5nKns4YJYBN3BltZn66CpscixPRgrO6+FtF06QeB+3DZ3Tyi069D/UCYGeVjKA2/Lx2/dx3fu67DWr5nbkvp0HERtYCAL6RWwNRhPb/3Ddwx8v1yRxnbnYB3mg5ffVdUqx2KsNBo9OzcGX26dVPjzwf27YMhA/rj4zu37W2iAubyuNwH87f/wrvvTlXHlxMSbYi1mdF/QG80bJQMt9qRqBPQmnv8uYjtk4FwgisxUsfaTVzCwHrP0m01zLzORKCNlJ7XGdm45DY9gTYo0S1Zz2rbEGBxTHFORmN9a6f4uFYrCewvS+6ru198Hh3dVxxZQI7hawkEAoNAEcWaNaoTE0OXJdRiRufFiO62lFoGTbeV0BFSQ5eNMHXZxs+RClPX7TB02wxdd4F5CWFeTZjXKXeO5OcXRT1A0S5S1xFoFcPFoR8kBbldkVSUU2XvnTAzVmukTud3re20hp9tDaLbcccix5zb2aXhTkpLiHUdmCa4EzK13sjvgf9H3GnFdV3EpDEMbp7RCAqKRI8OHdG7a1cYoqMV1H16dMeta1fx/bffVMBcPpd7Yf7+h2/V2VH9B/SFzWZBXJwFAwf1Rb36CahaizCHdoWl4zpGzhyE9lyDsJ6EhgDouq2Fpgsh60HHY0PXsWbUUnKdKIZOHUOQYjouYwOke4ojd2YDbEOI6KLOKKxvS0jbMkb+JvH1HHWwSD2+HR/PKKpjXanla0jjj+nsgKkrYSG0Ed0XIaLHPIT3pHrNV4d4QrovRWj3NQjvvhFRPTYhptd6aPrQ4Xtz59KLO4ce8pk3Q9Odt/WQ+xBoflanlFs7FOMqfi/i4tESzV12APfL1cWjKXnPv6ZofrYofsZIunMUnTiKEEd33Eit522Euu1GJqEU/l9sQjjLHBt3ROHJL6KGpwY+PsHo3q49enXqDH1kJLq0a4eu7dvj0rlz+OdXf6uAuXwu98L840/f4403X8fgIQNhjTXTnWMxaHA/JCbZULVOFLy1vRDfawOiuqcgpO9KhPVZptxKywYdIxD3XMcGT0i5HU2XlngZTaijCHQUHShaXKg9AWZj1HclCNLj3H6lir46h/SM7SLDA+S8zS65L+F1is+jE7GBK5Ap1egFEoGG7yeiO1+/x3JE9FqiFN57KcJ6r0Bor1XUOm5vVIrosw6R/HxRVHQffgbCHd2TNTNBj+65EZH8nE5FUdGE26kYEd3bLjvU0fxOFMx8Dz+TwOwi5egOqH9J0qMeSaDD+TkjGLsjWPLIQJKozvxeu4hTswTqsFXthEI6MDVx5xv1xGhU94qBv3+Ymi1FZlKx6nTo3qGDqqHPnjiO77/5ZwXM5XO5D+YfCfMbr2PIkEGM2BYk14vHoEH9EJ9gZSOIRmBsXyQOZAPsvR4hA+hm/RlRe62GxtGgNT3Xq8YsDlXmRC6OJM4jsVL1BhP0KHFOxnQNG6OWsVGka89alTLcJ7lOJLcr0X0fKBVD+ZziYNLw+fqq00rek8BHMCMJrnyGiD7c7rcBEf03Ivw+yXUR/bjdl7dTkX24E5MdWU9uO5+DihLJ56diHqJocXDn+/gVyftVbu7QPa6tYLdfr2I7d5JhTD12cUcl1zm+a/lODXTsyK4bEUq4Tb3WwNh2PCp7hMMvIBR9CfOAHndh7s/tA7t34d/ff8dmYT+y4aoKmP/XLw+HWWK2xGuJ2QJzDe8oBMf3QdIgOgJBCBtMhxtEl+1LeHozhvbeAC0buxNoBY84EiUO5HQde8N0Htpho2P9JzWgjtFQpKfDGB4guf4e8TF6QuuU6hji8+nYcEVaNngNY65yRkkOAhUhjOH7jCaY0X0ZlwlrdH+67QC67sDNiHJR2eUBmxDF+8h9o+QxfejMfLwAXga5PB+fV55bpJHvgZK4LhLQXWP5L0m9V+XmDjkBd6gMfH6X9xwCUyC7wCzfBb+jiK4bENZ9PQx9mG7av4lKnmGEOeQeZ+5GmAf07Klgxo8/VMBcPpffAbNPJIITehFmOisdLWII1wRa248w9V0HfZ9N0DGiqkZMoMsaI1XmOspVHC5DKZhZO2sF4s58DocMjItGh2RbL3K53S55DIF2yAmxjvFdpJU6XqKuwx01DrBiBDwCGe0AOYYgxwzcohQ96AFyQB3phJoSx3Yq0gk5JTuIGD63xiH1WtzxyU7E6eC/JqfDC9Tq+3MALlI7SMd36Uw8Au+DpOkqHXqEuztLB5YGevl/6kSYvQlz4F2YLRUw/1GW3wlz/F2YI4cyJg9ZAf0A7vH7rSfMm6GjtL030Z3ZkHuIQwvUbKSqB5gNkpBFEzhV03WRTjNCRzB194H6n8KsdcCsQBZXlvrVAYcChJKYLc6sACSIArOGIGsGbUXM4K0K4Kj7JTA7FEGoIwY4ovh9MLsCbZcjBcjrEeqyiO+i+yEvi+vy3qVkcVzn6t6RIiaeCCqcqUcUIfW3pCABnrdL34WOiuqxha+zFYaBdOeuE1DJLxz+IYzZXboyZveEVa9H944dMbBXLxzavbsC5vK7/HaYq3tHICi+J5IHE2KJl4Q5eugKGAexFmPD1vfeRm2hO9OhCbOmBx2akoEWMaJuhKgLG6ZDMZSG0lJ3YRZAGavp1EZK1iL79a4gO+7LnYGBkrXTkXXccWgpDUEQ/RxmSsASwAii053LYHZqiEPcjhpsh7oMZsc6ko8VOR07qh8jOxWj5ABbrhPQ+ZpSntwPcxnQDpXB7Hi/6j1TCmAXCciuMCugBWbeJveXfgy9lDy9tvP1U2EeuhmmnpNROTAS/qFhZTDHEuYe98BMkCtgLo/LL8Ncv0Gi6s2WXm2BOTCuh4JZNdDhdNfhqxTMpgFbYeqXDZM0mj5bYO61GcYehLoXXbrHRsK9iYBxu4uIDZyK7kq4uxI8rvUE2kAZCaMSHdZEtzW6wKrnffVd5L52Gfg4Qzc+ziE9AVZiGhDp2JB1jPyqlndIIzWt0yW5Q3KCrCXI2sHboBlCDd2GmKHboRlGcR2jLtsV6QD6ftdWNbdDKrb3v6u7cFPi3C5u/SDJ+5P36VQM36uSJAqJ6w64Hwa4E2YtdwwGpgMt/0+0A9IQ+1QKLH2mompwFALCwitg/uMtvw7z4CH9FczVvMIRaBOYWY9JI32SUU5gHryOMG8nyPkws+FY2IAsbEjmnmvpBHTs7hugJ9S6HnS/rmzgnTfB0GMbtHK8ljW01M3iqCa6uLnnBpgIpIHXGwi0gdfLISwdQbaLgNLhdd34nFwb+NxKfKxIL2t5zV52SQ2vdZG9juXrEhgnzBoHzLoh26ElvNphKQQ5Bdrhqfx89m2noujUUfe7NoF21tcxIkf9rWpwJ+Cy03A49K/pbkS3S2puJ9C/BnNkD8ZqXh/N7192XoZ+LH36p0E3MB1xz2TA2m8aqoZEE2a7Mw90wtzBAfOee2EWgF1VHv4qYKZ+BnOcBQ0aJnF7gP04s2cYAmK7IXkI4RvISPoUo9yTq2EcIjCnEuZCWPqlssGsg7XvcsT2XgobY66F4Bno1PqebOCEWYC29c/gZcLVfTXXhJYN0ECQyyTuSqh1dFyRVhyc8GoJro47AT2dXk/nN3DbwLWxJ5MAZRDJazmk601QpY4X9eVrUzGU6gATeBwwS8R2gqwjxNonCfKDRLhjqGi6dhRdvAxqSiK6xiEFtQAuQDudW2B+iMqcWyTvS97ffwCzXCe96dq+3HkSZH3/rdDTlQ1DMhD/fA4sA99HtdB7Ybbp9OhJmAcR5oMC808C8t0J8csTyPJXATP1IJgbNkzGkKEDkJQcR5hD4W/thnpD1kA/iHGUMGufYhweuh4mwmDqnw4jG65hEAEduJyOsIIxT+pnNqrehIW1dIQMi+xNwBlpo7rR1dnorAO3Q9+X8ZXQhzM+R3UjeKzzdL0JV68t0BJcDSEWkMXNJbIrmJ0itAbW6kbeVyTbTukZ+bV8bqc0lMAcw9dV4AjIBE45M0EWN9Y/SSd7yi5tmewwOy87gZY4Hs34LZIYrmI6JWCX1d8KasLMHYeK9S4R/K7kertUL7urU6uo7ZQdaKdcwRbJdRqmDoFZP4DfxyAmpsHpMA/LROLLBbAOnoXqYTG/Geby+FcBM/VzmK1qTPbQYQORnByPKh6h8LN2Rb2hrGUlko6gUzpgNg9lRKZ0Q6RTbDkihq5CGB07jKCG9+F9+1EDCGvfRXSs5XTClQjqtAiWQal0H4LN+0T0SUFYr1SEdktDeI8M1rVZvC2NjZOPFYeVqE54FczivLxOnFeAFRkoo0DtIn1fQtrvrgRmDR1LygQVr5kwFMjcuQjM4spOmPUj06Eb4Spe79gWoAXumCftTi26G8dd6myCLbFcXFr1mD9Eqs52yAm9kuxw6M5lh7ocQN91ajvE9sussXkfAVlk5A7XPCwN1uFZiB2Ri+TRxbANnVMB8x93+Z0wW+jMQxmJh4pL0QHozsYnN8EsjXxoFiIGpCCSThDNWBfRjw2Z0GnozJpuG2EekoVwwiuKHpKOkI4rEN52Ecx91tBxVyCmlww+kd7wTIKaQ+USUG73SeVaesoJr0RnB8hlEBNYY99tjPnb1Nog4muL9A7p+t+VdgChpmsJRM6OLy2hczqz05F1IzOge5rlwNN8D8+4SC7zep0DdqdbO91cPV5cXGpu1YG2/V7H5mveX1vHyPtxyBVo5dZ0Z41DKnY7OspEqiNPoOa23K7jTso4eDusAvGTmYh9KgfxI/KR8Gwhksfsgm34B6geoUVAeJj6kbuBPXtBflWjZ0fC3Ls3Du3dY4e5omYuj8vvgTkMvpbuSBrGenaoNGC6AN1Z9xRhHZ5OF86jCqEfsZ8NNI9ROhPdxu7Bs7POod0LBXTGVIQN3YGYkfsQ1DeL8G1Ch5eyMPzd3Ri16BSGvX8YrZ7PQ2I/NsLe2bD2zoelTzZMvdN43+0qNosTKwnIdFlxXoHWSJkcaz2BvV8K5AHcZlLQDSRYArLDlZ0wl3V8SW3MWK0VWAXeZ7NgeC4bRsog2w6VgU3o75dArheo6dhKTsfm66gaW6K3QwLzw1xaRfD762mRgtrRkScw8zot7yvlj4X/F/FP5yDu6TzEP1OIpGeLkPxCCZJf24PYJxcQZh0CI8LVr0hKp5f8tE3PTp0wqI/AvJdNgu2hYmx2eVx+D8zh8I3ticQn2XCGZxBkQjySjYrr0KGbETyUDZZxzsJG1OC5zXh5fglyD1zCwYsf471NJYjsORUBdAzN80UIoBsPmZWDbcduIfPsZzj2GXDqY2BL0Q8Y8lIxEjusQVyXbYgjyFbpIe+XolxXL3FZojOlQB1AyB0y9qe4luvul05B7BDrSBWrHVIgi8RBBboHwGx8PgemF3JhfCGnTIbnCTcBl9uVnM5NKUcn1Mq1xaUp1bGm4vhdp1bie5AOuDLdD7WqqV3AJrhlLs1oLR1kGu4YdVIjD0mB5akMxD1DmJ8rRMKLO1Hv5d2o/8oeJL1xANanFqNGuB6BzkNTPXvePTTVW2L2vc7sqgqY/9cvvwNmz0j42Xoj4SnWZE9lE2Y2upGbEDVyKyJGbEXUs2kwPssGPGg9ek8tRMHFb/EvPnXp9YvYtGsn6j83HaHPpsK332oYRmzExtOf4ty/vsO4ldsxeu42rM+/hVNXgHUbr6MdI3dCh3WI771dgWwmqOLAKiYTaJE4rSuk4rpOuV7vlJYQO6VjFP0ZzALZfTBrBcpnM+0wv5gH00t3ZXiRZQCh1osItk5B/QCYHUDrBGoBWl5D+hycr6uAJsROOerrexy6DGy7Qwu8d2toR+81k4ZhWCpLngxYn8uB7aUSJIzeh6Qx1Ov7kTDhCKwjl8EtjDCH3HvWVMVwzj/E8tthruoVBf+4fognvJqRuWysBGcko+9IxsinCcBz6TBy2zBkIzpNPIKRM09j9JTtuELXzT58A41fWIjol9MQOWQD2o8rwY4PgcWF55A4YAaSh32AzuNWIe/UlygoPosew5Yjufsm2MSRB7JmHpSigNQoEQACqXFIO5i3uUj/ALnersQUoaMT3xUvq0hM2AifZgT1dLqSjoAKuOZRBbBQ5pfzYaKML+fB6IBa/6IdaP1zEsntLm0Ql3ZEbqmjVceaA2Z1GOxXYL5f98OsOrrk2Dlh1vVnycEdhLyGvK715QLEv7YX8W8cRtz4w4idcBi2qSdhfnYl3EMMCAwKVT8Q369bN5g1GnRt10794Px+7nT//cP3FTCXz+W3w1zNOxr+CQNYhxGiZ/JhIMDGp+mYI9lIHQ3fOIJO+uR2xD+7A21fO4iBr27DsWvA9t030eSFpYh8ng158AYMevcY9n8OvLlmP2PwAhiGL0Lz8cuReu5TZO85iS7PrEQCQbYMJgSsz1WNPoQ7DMIbIxDTWTWEUiTXu0onGvwLYhS1w3yfBDRxUBeYYyitE+ZXCmEdXQQL1+bRhTC9UgDjKEJNGQi2gtoRvVVd/QyhdnSU6R01tI6wSdRWnW3Kne1SUdspl6h9P8yqF54wa0UCM91ZT5BN/H6MjNfyuiaCbHt9J+InHIJt0nFYJh+DYcoxmN8/w/JgNWE2IiAwFL06dETfrl1hiolBl7Zt1QR/e3fswE8Vp0CW1+X3wKyBf+IgxDEqxzxbyMZKeJ9h42eDt3cEsSGxwZoJROSwbCS/vAP9xmzF8RuMzoWX0fTFlQgbycbabx0GTT6CvZ8A47eeRPjQDxD59AdoMmkxNpV+jk0HL6LFixvoqIyrT2bRKQnEkxTrbTuwAoK4mzgdXc9Vw/heflXcOTCO/kzinJSApyL2MxncafF16bQmwmp9tRi210oQS1kpy5himMcUwfRqIYyjCbY4NYFWtTVjuXSYOWtoA78f40iKEdggYHPHcfe1nTsUR0og3Cr+S+fc/WKUltpYnFgNCpFhtENT+b1LEsjme2B6GLsLcZMOwDaFIL9zGoZpp6CdfgrGOaXQj1rHmG2GP2HuyWjdp0sXGKOj0blNGzV10J6SEvz03bcVMJfP5ffCPBi259IQ/VwxG08GYSYAbKy6p+lChNlMmC2sN8OHZqHe6F0YPC4dZwnt2iLC/PJqhNLJNf3Xo9uYnSi+DWw9/280eGktGr24BCNnrUPhlX9g/e5baDxiMwz9CcTwHDol60+BmbAKwFo5LCYilD+DmdL/JhGi+yUgSxyWji+Jx/xcWoGRMEu0jiW8ttd2IPZ1wkyZXyPMlIlAGwVocWmppwm06iQj0KrXW1yaMJsEZj6vglley/G6OgJ9T0JwwKw06K7ugZkQS6+8HCI0OkA2vMTX5/szT9iL2KmHYJl2Eobp56CZeRZRs85Cu+AyYsZsRNXoWPiGhKtjy326dIWRztxZnJkw791RAXM5Xn5HzUyY/RKHIPa5DEQ9X0KQ6VgEWv+sOBAb09PZ6nizlQodnIHkV3Zi0JvpYHLG+l3X0eSVNQhjXa0ZuAkt2MDXHwOOfAUsyPkcM9YcRV7xKZy9/m8s2HYVyb3WI65vEWKHsz59Kks12DKgqXvg5fW/Xw5wXSSQGcQ5CZ6SQEiJw1okugrMr++AdewOuh+hEaApE4E2CtB0ZxOBlnpaOsvM4tIOhzbyeUwOoBXM8pqOJKAGqpS5830wu8gVZjlWrh2Uoj6L4RnuNF7iazNamybuhXnqQVjeOwrDjNOImXUBkXPPI/yDC4hecg2Rb27B47p4eIdHolfHe2N2P8bs/YzZkF8CrYC5PC6/pwOMMCcMVjDHvMDGzEZqlnryuRwCzQZFoM10HgudLWRIBhJH7cCAN1NxRmBmzdz4lbUIe4FQDmNN3X8Dnp53GGsOf4uiW0DBuW9x/dOvsevMl3hq2k5Y+m6E7aldfC42Uu4kTCMJxAjC5YBaL24tjiQaIeJtv1nyOAHXLnFLkd05CRx3UgKfgpASIKVDycaYHTd2J2Ip6xt8jwTauVZgE2gLa2npKBMnN9MpnS5tku+K6UXk6tAKbAJtGE64FdQUgVadWQ7dAzWBll5rrRwrH8z78fOYXixgUtiN2LcOwvrOEYLM+njGCWhnn0XkvFKELihF0KJShC2/hrDxW/GYIYEwR90Dc1kH2M6dQEXNXF6X3w5zFc8Y+MYzZj/PWvJFgvZ8LqzPs9G/kAfD8xSBNjOWWp7OQOiwLCSOpjNPyMDJjxmzCfMTr6xDxMu5SHgxHwmDNqHBU6vQY1IaBk/PxYxtB3Hpky+wvqQUrV/JQBKf2/ICneZZAvFMLiEgEC5Ai2RbJNf/HhlZDqj6VcClnJCZVdLgmknDxB2Uie9B6l+R9GLHSs1MkG1v7IJt3O4yxb7J7+INgi21NO+jOsmcPd8KaLq0PAefV2QSoFUNzZ2IJAHuWIxPEmwH0HJ4yUCgDUPscoVZBoXoBWauNUNYKz+Xx+i/C/GTDiHuneOwvnccpvdPwDDrJKLnniPIFxGw5CJ8l11E0KprCJ64FY8KzBE/h1nNAaZgrujNLqfLb4e5skc0fOIGEmbWyC/vQSyhtNF5zBLxuC1AW1hfWunW0c8WIvHVXRj2dg6Of0Rn3v8RGr26ERGvFCFpdDEajExF/RHr0PjZFWj27Fx8kHEEp2//BZNX7MITz6QidmQK3ZE7huf4/ITZQpjNThgfArCRDv5LMjGOiuT5ZOdg5rZFXXboWV5PWQiImZ/FxJ2U7KiMAuQo6cEuZr28E3Fv7kbixP1IkE6m8XthHbcHFgGat1nHCNDUK8WEuYgOzcfR1c38fszcOZi5kzAqoO+FWaSiv7g0YTayFlZA3+fS+sGU45i5JJTYUSWIH38ACVOPwTbtBEE+Cf3Mk3TlU4zW5xGw6CK8ll9EnZUX4bPmGgInbcXj+gT4uDizmTDLtLvqOPOue48zC8CuKg9/FTBTvwZzpbpR8LYNRJxE5VF7EcdGGvcSAZYG+1IhjIx7FkZK6/OE55U9iBu9A0MJ88nPgbQzX6PRa1sQoBw3F/UE5qc3E+aVGPbOOuSd/wzb911E9zHreVsu6r8krp9CgNMVyFYXmO8RIXWC6YT1l2QHNo87HIeey6db8jOICLHl+XxYX5DPITuoAoIsvdT8bNwJGem45jE76M6EedJBJL1FNyTUsQ6grWN30Z0Zw8cQ6lfp1C5AW/g8Fu4UpI5W8V2ivCPeK5BdYaY7GwVoJ9QOh74Ls2yncUeUi7jX9iDhrSOwvXsclukEecYpaGadRtTc0whZcB6+dOXaBNlt9UV4rruGAMJcWZcAvzA7zP26dIWFMPcgzANdB41UnGhRHpffD3P8i4ToVboBG2uCxM9RxawTi2CSRsvGan0hm1H0EF0tH/3Gp+Hc34DUM/9AQ8LsJ05LmJMJc72nt6LZcyuwovAgznz1b7y4qBD6PksRN+Ig6r9YgsRntyOWNWXcM4ySjNtWrqUBKzlgjBUYxWkpieMmwvpLMguwDojlsbbn+f4d21aCXAYzQVaJQ8TPZXLAbKLrxhLmJMKc/PYRxlu68wQ70LFvMq28vguxArSCueQed7Y4OsakhhaHllivor2jY8x52Eoit4mR2wmzU8qpWSfLABrTk5n87ncgccJBxNOVre+dhHHmaTryGcbrs4iYfw5BCy/AmzDXXHUR1ddcRN11V+E/cQuqauLhF2rvACuDuX2HirOmyv/y+2D2iRuEhJfZEF87hCS6VBIbuE0aOBuvZTTj5cuE5cUcJEw4Bh1r6L6E+exXwJoDn6Dh2O0IZfSOJRgJjNENX8hAh9e24cCdvyP15G00HbVZDQ4xPX0E5hE5SH4hFUls9PHPEDrCHOuA1wli2bYA+LtUANsLhUpxL9plK1MR0wY/08uM1NxJWSkLd1pmysSY7YRZnDl5yhEkvX0YCZMPIf4tQkWo48cxsbzBVPL6bsTRoWP5ncQSaiuhVnW0s6dbwcxU4Qqz6hTLIKguMLvIHrlZftCV4/id1B+zF4lvH4X5PdbIdGTtbHHkswgjyCELzyFgcSm8WSu7ry5FtbWlqLPuCmHejGoxcfAPudubLTG7R4f7YK6I2eVx+R0wS82cMBiJrxDYsYeRRAdKfq0ECWy48ZR0xNheLaQjEb5xR5Sr9Z+YgV3XgQUl11Dv9W0IZSy0yA7gqe1oMroQr669igOfAePWHaQT5yH+lUPQvrCf7p3HnUY64hlJpeHanrM7qDhpnEDogDGWLirwxb1U/B/IDq7zcvzLrD+lBnWKZYKUCgKklZKdlcRs6xu7WS8T5qlHUY/xNvmdY0iaagc7aRJ3chMOIHHcPiSO3YN46ZySUw+5s4vl55YdmRzmMstYb6mdJW4/BGZXGSn9MMJMqM1PZaHeizvQeOwh2N45Di1r5Jg5pxE57wxCF9CRF5+H/1JG7GWl8FxeihprLqDquguE+TJh3oTqMTYEhETc0wEmk+DLGVT3w+yqCpj/1y+/A2avGPgmDUXSq3S3N48imY263tidSHyTDvHGXiSN5ZquJQMrDK/th43O1HtcKiavOYCn52XR7TYhnI5upMOZn9mORlz3n3kGU9I+RKtRmbAMYiR9ugiGVzIRPzaHTsY4+Vw6nZcxm9DandQOYLwDQHHQOIL3n8jmkPNy/Cs7FMBlenWnclf5HFbKQpDN/GwKZjqxwFx/2gklBfUUfieTDyNZgB6/n9/LPrWjiyPQcXxsnLg6gbZKLzdLDTm0J4esBGjVw+0A2vRUBsz3AW2UeloOXfF6SSONXt2LZuOOwsLXjpxzChEK5LME+QL8CbHPCroy5bGqFNUJcpX151FnwxXWzAJzLGEOr4D5j7f8dpgry6CR+sOR/DodccJx1GOkrC89u+P3cXs/6r8uMO9lvbwf2jEHVCPu+tpmdB21CI2eno7E0SmIfv0UNIyuhhdTWfMVoTHhbj3uDIz9i9Bg6AkkME5bXl8G/SurYXx1O4yjMuhkhJl1p909HQ4qYnyNI4BKhM/2C5LbH3hfOqZTcQKvA2AlSRpSA1NWyvz6TsJMsFkb/wzmafw+xKknH0G9t+zunER3TqA7q8jNx8WN4c5DDl3JGG9GbTm0J5LILYesVA1NqC2EWk5jFKAV1JTR0eNt4O1x/NxNxh5Ec/4fSO916LxTCJ5/BoF0ZL/lFwkx62PWyR6ruWa8rraBMG88D48tVxE4WWC2EuawCpj/eMvvgNlHC7+GTyJ5LOvJSSeQTJjrjaNLCczjDxHyA4zbhxH/5jFYCEfC6wV4YnwuEsZsgP7lRTCNyYb2pZPQEqIoum7i+F2qJzyO8VU/MpcOvBv16XpxY1MQ8+IG6F6hM49mbak62RjNuRNQTioQC5wOINW2C5S/JCeo6rIT2jKJgzIWC3xSNogkaVCxfF/SwSUg2/h5pUZOcsLMmlVgrj/1GOq/LTDTnSfydrpzAhNLvCNu3wPzS0w3LCWscvyZMFufdQKdTZgJNOO2ApoSp5bOMTkDS459y/tL4mvEMw3EzD6JoPmn4L/wDHyXXoDXSgK85hJqMVLXXncRtdeXoupmwrzlArxTriN4ymbCbIZ/cGgFzH+85bfDXMVXB/9GI5D8JuPiW6fYWPcSaNbLXMe/eYhRm1Fz4gU62QnYXsxAswk5aPY+HXvGTiTNyobhdTbeF0/T1Q8h8OUtBCMXSW/kovV7e9F25kHUn8S69FU25JcZs8cXwfh6LoxjClTHU+wrIjl+K1GVMDuBFKDppgKmHBL6Nam63kXKNe+TwKc6sSibrFlGxEnHFiGOm7BfncQQR5gTWScLyPXfO2mHmbVzfUZtBTSjdrKjdlZA09ldYY4tg5kioHL+sUWAlk4xGcDigFkBzW2J33KOtJwRFc/ntL57FJpZJ+jKJ+G/4BR8Fp+BF2N1HbqxgOy28QpqbriImhtZL28lzNsuwDf9JkLe2YwaMSb4B4VUwPzHW34HzH6EufFIQsy6ccppJEzcxzhJAAiz8Y1jME26gbjJNwjASYz84DDW7byFvPP/RNHtH7DsxHWMXHkSDUadgIG1o++zq9F/TgFmpJ7AvjvAwc+AtNKf8GbKVbSaspO1516EMF5HE0DD63sQK/AJkHLYxwmiC4zKRUXior8iuY8TVgE13kXqMmGJF3BdNZEQT2TyIMjiyglvHybMrJElXoszC9R0ygYEugGBrsfaWYBW7qyA5k6C9Xa8HKeWkWSjCmF7qUBJDb4h1LGEOvY5gi1QO+M2ZaZkrLjmOdbUrxapnYkM2RSYQwiz36LT8Fl2Dl6M1rXXXoL7+suovukK3DZdgtvmUlTZfh5VU84jIOsmwt/bguoaM/yCgitg/uMtvwNmfx38moxE4sQdME89TXdiI51IIGTgxKSThPkyNK8R2MlnsP7Qt7j4MXDi8j9w8OJnuPzND8go/TeGf/ARLKPZiCflIu3c33D1Lz9gd+mXKL7wNxy+82/kXwOeW3USDScW8TkPwsBa3MAa3Cou6QRSIq/EcV4XXwalfW2TY72icQ+X3EcdQqJUZBZ4nQCL8zolDuzUW3Y3VoegxJWnEOZ3HDBPJ8zTTzJyC8z2uC21s3SEJdKd7TDzNeUcYwIdR5jjXpHDX/weRArmfMQ6gFYurca506EdMMtplNGE2fA6H8tEYJ5+XMEc/AFhXnIGPisuwFO5MgHecBnVCHP1zZdQfWspKqeeQ9XUs/DPvIaI9+0w+wQGVcD8x1t+R81MmH2bjkQ8YTa+cxq2yXSdtwgFG3q9SbuR/FoWXacAPRZdReEtIO/UT+g+aj06PTsba/J24BDhnrDpM8QzRndZcBJHPvk3dp69iS5T0tFs7BZMXLcfu24CywovoetbKWg+qcBeVxOGWIJXBiOTgMB2F0Ju83KCY23jzuWhEmelwzrvq57H+Vhefy/AB8tkm2yXHFNOFMkxZoH5PTvM9QlzA7pzA+XOBPptujPr2jKYZQcylvW4A2YbYY4lyEqM3OLOArNEbqmhnTCXOfMzWdC8lAPzeO7Eph2F+X07zCGsl32XnIXPqlJ4rGGsJsw1CHPVzVdQdcslVN0mMJ8lzKfgl3EZ0TO3wk1rgU9A4ANhvv8XLVxVAfP/+uXBMA8eMpAwW+wwDx2oJsGv7K9XMMdNYvR99zSsbxMGxuG4yQcYt4uQ+OpGrovRZckNjN3yEV5fcRGtWB92HpuOMYu24thXwOI936Lx2BwMWnUJp/4BrNl/Gba3dkP3WiEGzipE2pl/IOfEJxjxQTEa8HGJ41lnPgBKgU1BKaKDS++yDOSQ7ThC90tSzsr7iVy31eCPtx+suCkiidaEWMQ4rVz5fTry+6eUGgjQ0wi0wOyI2gpmFbUZ3wXm1wVmfiaBmVFbSaK2ApowE2iBWU72sPds24GWIaCG1/iYtw/AxohtEphnE+aFp+G7/By8CXNdwuy+nm688TKqEOYqW7nefhGV08+iejqhT7sA7extqEGYvf0fAnPFb02V5+VemH/48TuMHfsaBg0egFib+Z6fpxGY/Zo9TSB2Qf/eGZjfpmNOZrwlIPXf3YeG0xgd3zkE6zvn0IRu137CIbQcdwGt3zqG5zccwY6vgTk7P0WLiVl4cv1V7P47MG3PJwieehHhUy6i04zd2HTmO5Rc/icGLaADcQcRzyj/MxhFBMzpkgmyTaltKq4MvgdLPZYQy32dj1OPJazxBNWphHfuKt4hidbSi530LmGWWnkGQZ55WqkBgW7oAFpF7bd5f9lJiPOXwWyP2vEEOm60PW7HEei4l+/W0AK0GiFGoMWhBWg5c8sq/RPvHoFtOmGecRy6OacQsvgsfFdegNfqUtRZexFuhLkaYa68hTBvo1IINGF2yyDMjNv6uSmoTpi9KmD+Iy6/HeYqLjDrpp+BaYoDZsbsxMklbMCM2e/th/G90zBN2IOGdJGu8y+i/ZRizCm6joLPgPG5l9ByajpGbLqAki+AWXs+RcTUM4iZXoou8w9j6yWgsPRv6DlvF5LZYOPfOVwGp81VU3m9wOeUC4QiqSuVCOCD9MDHyfVlOor4d+2SWGvXMSRQiSLG6ySplV1grs9tpzs7YZYx3PaovZd1M2F2uvMYB8wyGk46w0QqcrvALBKY6dAy0CSWJY3t3cMKZu3s44igKwfRlX1WsV5eU8p6+SIjNqM1Xbnytqt05auM14zcGefgnkEHJ8yGeamoJjAHBKmZRmS6XQVze0fNrGCuOGuqnC6/D2b/pk+zdtwFLWE2EmYrYY4nzElvFaDR21sQO62YYB5C1Ht00bmHMPbA51h49BOc+ghIOfd3dF2YhfpvrcWILcexizX08n0fq+eJmXIAHT7Yh5TrQMmlL9H1gz0wEhY5BBNLcGPpSFaCrcQGbZl2RF1XBqgLdE4InSDaXMWIKoonkPGO+zrvI8/h+rg4x30FHhtjbdz7JxA3/TgSlE4gaQYjthNkB8z1GbsfBHMiYU58c7fq1Y6jO9vkMJUTZpYiArPUzzIJgn1AiQNmurOVQMfKsWkXmCOl42v5GfitPA/v1RfU4JCa6y8qV66y9Soq84usknqNMF9BtczzcM+0w2z6IA3VNGY7zAS4b+cuMEdFq1MgK86aKvfLfTD/8B1eHzsGgwYNgDXWjPoNktRPuiYmOmBu9gxsb++CZsZZGN7Zz7qZ8VE5czEbcLqCWUd3jnybcXL2fkw48U9sJcgnvwS2Eub+K/LRdNpmPLnlGIo+/AkrD38K0zv7EDV5HzrM24fUG8DOS5+jK53ZQGBi6YA2wiWwKaBFAvJ7vCxygkjoYtnIY7kWB7XDat8ug9Ip3i+ecMYTSrmPXCePlfuVPU62eXucgpj3m3FCKc6hhJknkTjzFOrNIsSzznB95i7Q7xFy1tT1WDfLaZKJEwn0+H1lMLu6szNuSw1dBrScKinDPR3jt63P5qhj02bCbJ1GmPl+ohacgv8KRuxV5xmxLzBil7JeJsyb7DBXSiXMaddRLf0aamRdQO0sgp/C0mhBOqoIzIHBFTD/8ZZ7Yf7++2/x2muvYuDA/rBYjahXP0H92Hp8gtV+nJkwW6fsQvSMM9BPOwDr1H2qhk18hzFyejHM03bC9P4Buup+aKcUodnSA+i9YjdW7L+DQ/8C3tl1Ea1nbMNTKaew43Ng/p6rML27HzFv70fnBQeRTph3XfqUMO+ww+xwwzhxRwfAVlkLuO8fg5USOAW4WMZyURmoTjmAdMrG+9hm2qGU2+WylVLQlj2GtxHYn2nWKaWEOaeROPs0kglzvdmEmaovYAvQjNoyVluGd6p6XLkzYR63pwzoBEftnDDGUT8LzDKYhECr854Js5rlhDDHynFn3maavBeW91gz831HM2L7r5CIfR4eawjrulK4bSDMjoj9uMCcfhPVM27ALZvOnc37p5yGdWEGKscwZgeGKJhlInzTL8DsqvLyVwEzJTB/9903GDNmNPoP6Auz2YDkevEYMLAP4uItqOyrVTHbSmeOmnmGsB2kU+5n7XkI5vdPQ7vwKoLpksFTDyGaDd+woBTWFTdQ/4ODeH7tTuz5K7DywGV0nZ2JkRlXUUK3nrHjHMx0cu3Ug+i25CgybwG7L3+Gbh/shIGR1Ur3szHOSgO2EjaBVyTQCoCyjhMw+Xq2WXY9EEJK7uOEUd2PawEynmDGUQnclstOJQi09yl+tl0CcxLvk0z9EsxJ0qNNmJMmSo//PjVqLvHNPfb6mUArqKV+flVGuDFK3wezRO245/Mho93MLEWssuPidxKz8Cz8JWKzXvZgvVybruy2kfXyFsKccg2Pc6/ohNk9+zw8s08hMOUkYhemE2ZxZgfMXQhzdDS6tXfMNHLfL1qUR6ArYKYE5m+//SdGvzoK/fr1gcmkR1JSHMHuDVucGZV9NPBvMhJmRujwGaehn3GITnEANsIbNfU4guZcQSjjacy0/bDNP8VId4613RXELziOJzfsRObVv2Fd0VH0m5uPkZkfoeQrOvOhKzDTxXWsBXstP4Gs2wLz5wpmIyG2EBALIbLMOgHzzOOw3KdYXi9gxhEwp5zAPUgCoR1eXuY6ce4ZJMyzS7ZdJfe9X/GE1/k8iXPOEGY7yEri0g+DeRJhnrhfAS0ObY/bBNnh0DIqTE6PlDgtMJfNPfZ8LhJfLELyG/vs5YXEfEb6mEXnCPMF1sv2XuxaGy6hxqZLqCIw05UrZdxEFUpgrpV9Ft5Z/P/ZzhSzIPUuzB3sMMu82Q+D2VUVMP+vX+6F+RsXmI2EOdEF5kqEOYAx2/LOboSyQennHiNkR1hLEqr3WbfOPY5WC/ZhxNaTeOfQl+i95iiixmch9p1sjMo7idNsH5k7jqDr5O0YsOkWCv8GLDpxXcFsYEPtu+o0su8IzH9Bd8Isx1IthMZCsCxzuXOYQ7hdZCWQNipuLuGk4n+zBN6zSPyAUutzZUq6T2W38X7ymAQ+tuzxc88iiUqeIxKw6dSEWY49yzHoZDmMJec4y1lUbwnQhHkiYXZxZ6dDu8Ksfv7mpTy1tr6Yj3qjdqD+xEP2RCI7Jb5ezKLzCmZPwiwnVNRUMF9G1e3XUDntBh7PJMyMOW5c1yHMftnHEJZ6DAkLCXO0ScFcMQLsD7f8dpjFmYOaP4fYaXsRQifSfnAMprms4cQdZ5+AlnHZ+k4Gnsk+g9yvgbkHb6LP4hz0XpCOBYevYR/hXZB/Ga2nFmPgti+w959Azo0v0WPpHnReuBdjtp5G7kfAlgtfov0Hu2GdTWgJnOmDMzB+cJprAs21eR4B59pKxfI2p2x017jfqPj5BHP+ud+seBHfi1PqegGaEqCTCLjE7iRG4GTCnOQCs6qb1eCU/Wo8e8KEvUhwuHMZzGOK7/70jYKZUVs6w14pRtIbhH/qEZj5PZv42U18/cglDpgdh6TcBebN98JcVcF8g/XyGfhnc8eafhxJi1IIsxFeARVjs/+Ay++A2VuD0JYv0IkPIogNN4bx2fDBUcTOI2QLLyGSNXPUoiNIWrsPH5T+FYf/ARz4y+fIPXcel//6E9bTmrus+Qy6SUfQcvE1rDn0Bc5/+i8c+8s/UXLtUxy98y2yP/w3hmWeRMLMHUhYcJ4QMwEsOAvDQgJNmVgrmikLY6aFa6uIt4tiRYT0YbIx9tsWnkPcwvOIo7OJ4h3rX1P8oguIX3wBCVwnLBSd5/u717kTJYqzLk94/wQS5Di0YwYSGced8PZBxE/apxQ3cS/ixxNmOX30TXvvtvzsjUzTK9MTySSCMpmgRU75JMjmKQfVIBEDQdbw80YuOYvg5efhR5ilXnbC7LblKmG2d3xVyrqFalTNrBvwyD6NgOwj0GSeQLLAHKmH50MGjVTAXK6XB8Pcv39fVTMnE+YBhDnO4cxhbV5CwuzDCKATRS85Cd2i43TLU2xo5xA9txSBi44hYMUedEk7halHPsLa63/Huqt/xwfHPkeXVQRy0S2Yl9yGds45tF10EFMPfIpZZ/+OBaXfYS7pH5x6CcbF+3gfNlzCEcN4rWcDNiy2y0xHMi05p9YWyrr0glpbFnP7NyhW6QJsS0qV4pZedJFc/mUl8DEiBTaBTuQOJ5EuLZFd1dUuMCe+e0w5qozjlpFm8W/JMFQ7zHGEOd4JM91ZwTxGpiZywCyDR15hLT2O38W7R2Bk8tFzxxaz6CzCl55FkANmcWaJ2bU2XIH7lmuoRpirOmCuTtXKum7v/Mo+DD3X9RcLzFp4+gUQ5k6E2f4rkN0J9sDevQlzxe8zl+Pl5zC/OnoUBg3sDzNhrpccj0ED+iA+zt6bHdZ+FOPlUfhL1FtO4JaeoGsy+qla9AIi2Lhqrj8Br3m7oJt/AE1WnUPLTddgY4OLXnkRgUuvwX/xFYSuvInQVdfgR7iCll2Fce0nsC29g+C55+Cx+Bxi1n0I4+o7MCy7AiMhMi67AONygruiFOblpTDxsqwtlFm2KYtI4P41LSuFddklxC6/fK9W8LoVF++RbTkhd5UL9AJ0Il36V2EWqSGkP4dZFKdg3oHYMfZJEWWObtOoIl7ehbgJB2B9j+XMnJPQz+cOlDCHKZjPqQEjUjPXWXcJdTZeRa2t11FDYE67icqM2DUYtWtnXYN3zkkEE2ZTzik0XJKCKhEawux/9yddtVr1Y+uD+vTGob172STYHkSOdlHWPqjy8FcBMyUw//OfX+ONsa9h6OBBsBDm+skJBLsvEuKtCuZQwhzPaO3L2Bqx4jSil5+EdjGjMOvXuAUXEL3+Kjw30qGXnkEUI62eMOpXXOf9rkO/6kPELLmJ8Pm8buVHBPYzeDGa+y2/hcgVtxC77BoMK0sRsf4MDGsZiVfTQek+1hXU6kuwrLkM0yo6N3cKTpnUuhQGQv5bdPexfC7RqofpEsyUhfcVWZ2ALyPg3BnYCLNtCaO3xG/G7QQHzImEOZEwq+GejNllME/5bTDLBPommQ2UUNtkhpJJh2GdfpzOfAo61vpRLCVCmVACl52DL78Xr9UX4bHuCupyh/lzmG+gTuZV+GSfQEj2IZgJdaPF21A1IgZefn4PhPmwwPwT20MFzOVxuRfmb//1D0yaMA5PDRsKi1GPBvUSMJgwJxLmSoQ5pMMo2AizDxtVGGNz5MpT0CxjBHa4Yijhk8MloYsvInLBFd7nDh34Y4Sv+Bgxy+i2jNgiPV04fOVnCFz9OfzWfMzH3eD1F6BbcQKR6w7BtOYwXfEwn/MY3fcMnf0KLJRxzSUY1ly8KzZmvUM6SsvrHiq+L93aS9DxOXRrr3D9IF3m81zm84n4WnxOI2VadRFmAZvubCXMsSK+XxvdOY47LekUk5pZhni6wqxOypDBI1I3u8BsI8xx4x8EM92ZQFtkzrBx+xH/9lHCLD83cwpaljaRdOeQRWcQwFLDh0nFizscz3VXFcw1GbOrbxOYbxDmm/bOr8wrhPk4YT4IS+5JPLFkG6pFxsD7QTAzZlfAXK6XuzD/9O8fcPPGNTz/7NMYRme2WUxoWC8RQwf1Q3J8LCr56xDSeTSs84/Ae9E5hK4+g4hVjNqMe1o2qFDCELHiHJI330C3bZ+hw4YPYdrM6zZeRARBClt1FSFrbpcpdANB33QHYZtvI2bTTVjXXYOO9w3ayuddz1p5zSkCfAGx6wnR+gswrTsP4/rzMDikX1cKvcBJaRk1NaL1lxDzAGnXX0aMAM3aMnrdZeoqU8S1+3SVaYGpgaCLNLyfPJ88r547ACOBFpe2O/SDYD6D5JmnkCS92QQwmTFbznlW+jWYX2d9TIBlBhX5VQzrWN4mJ2hMkUEy98NMZ5apdAmzN3c4CuYNV1Fz01XU2CbjsQlz+g24ZVxH3awr8M05gdCcQ7AS5sZLtqO6gvnemN29g71mPiQ1c8VZU+V1cXHmn35AVkYaWrdohv69eyEpLhaNCPMwwlyPMD9OmIO7jIaJMHuy1g1ecwZhaxi1V50nnJdQm408ZvlZDN35D0zY+wOey/wI9TYeRcyqPXS3w3TH04T0UpmiCaqGgOrWnod5NWMqa3DzOt5nK7XpDMLXnkLjoi/QrOhzJKVf4210vXVnyhTPKB63hkCtZeSlYtcyjvM5rYTcKTOhN24g+BsuI5Iwx2y+inBuh224hvCN110kl68hklDo116FjlBH8n4RG+0SoMWhXWGWmP0zmGfZ3TlZYFaHp46Vzavt7ACzOWEeJ1Gba8IsJ1/IDJ4Cs/pVDJnMYBKj+Tsy6u2kC8xnCfM5O8wsG3yYIDy546nD9+u+8QqqO3q0K6UxciuYWcYQ5jDCHJt3Ck2WpqBGlAbe/ndhtmgE5opTIMv3Ihw7YZZY9eMP2L55E9q2bIH+/I9NiLWgIWvmoQP6ol6cFY/5axHY/VXoFhxG3aXnELCWLrH2NMJXnUMw60zfVTfY2C9g5M6/4v2z32Lu+b/j9cMf4t3rP+C1k3/Dq6f+jlGn/oGXTvwdzx/5K57e91c8WfIFniv5CqN3/A1vFH+Cl3d+iH6FlxC76Rh8Vhyg2x9B7wuANYOwbDiG1w58i3dPARMP/YgXir/E6P3fYCIvv37kRzxb8iXGHPwOU88B7/Axrx36HmNOf4fnT/8LydtvMe5fQVTKDQRtvoxAxtLATdeVgjY7dQ1hvF5HmDWEI3TTFYTwvqJo7nwUzK6uLIetFp5Xx6ClZhaYkwizuLMMHFFzg71LoMWhCbP0aMvporaJBFpmS5FznEVv7Cn7IQGZzyxWNI4OPvkw4qedROyM06yZz7BmPsuamYlIdRqWwm95Kby5c/GgO8sE9+5MHTI2u2oKozZr5ppZN+FBmMWZy2Bedi/M/QmzVWBu//Ox2U6AXVUe/v7vwvxvF5h/IMybNqJtixYY1LcP4i1mBfMwgdlmxZ/9tPDvMQaaBYdQe9l5+NEdg+ikoWvOIWrdDeg2/QWNNt7E6MPf4a3jX+Oto1/ghZKbeOvsv/Dmya8w7tRfMeHMl5hITTr3FaZc+gFTLgNTqfeoWVe+w7tX/okXT9xBo5xTjJA7oUk5iV5XfoI57ywapZ/BNII6h6DOPA9MOf4DZnB78S1g3hVg+tl/K83gfWaWAtN429SbP+GNW9+hHl0qkM4cns7GvY2OtvU6fLfcUPLbKroOfyqYQEvcjqJDB9PFg7fYgY6hM0vdbCVA0pOtHFmOPy84rwaQqNFkD4JZZiMh0FI3y6QINsIcK7OlyHxjD4N5rEyNdABxb9PN3yPMM0/DdA/MFxBMmP35XmRGTpkjWybyUxMTOEaBVc24CXfWzc6YLTDb8k+j6fJUuEVr4RMQcA/M6ofjehBm569AVpw1Vc6WX4K5Tx8kEOZGSQkY3r8v6hPmP/nFwLfnGDaog6izikCsP4PADWcQyqisWXsD1tWf4onV1/DS/u/x3M6vMYKO2yX9I4w4/CNeOvUdXqEzv3ryM7xy/BO8dPQjPE0NP/kJBp75FP3PfoSB525iwPkb6H36CprsP4fI9H3QZh5Fy1NfIGj7fiRknsJzB/6GETs/wdP7v8Dzez7FG4f/hqnnv8ckOv7b3Gm8U/otpl/9EZMufYORhz/CU2dvo//567BkcefD9xosJx2knoUHo6gn3dqum/DafgM+264jYOs1OjLrfyqYkTWEThe2iXXzWnsHmPRix8vxaRWvZeDIXZjV0E7HGG11KuR0meTvhJLUzb8FZpnmVwaK2Fgvx0/hY6afIsxnYJpz1gHzeYTx9YOXX7wL88pS1GZqcON7lCmDnMea3TNu3IU5l84sMC9zwOzvCrMG3du1wwD5sfVdO/HvH75nm6iAuXwtD4G5HWEe7ID5CReYH/GJglfP0YhYeAB16HLeG88ggLVtMOvSUNagAatuImblObTJuUPdRv1tl6FlHZuc/QkaF3yMNiUfoQOdum3hVbTMv4yGWedgTT0BffopaLJYDxLWmOyz0BdchJ5ROzKbNTlvN5VcQ82NexFJl26aegX1N59D/fRLaJBxGU1yb6A1n7d5wS08kXNNbXc7/BU6HPgS9fKuIamYsbiE7y/tFjw2fwSfrI9RO/0G3NNuoCYbfC1eX0vWVO00xtJUQk0YBGpx5gjWzQKynsDIMW11OIogKzkHjThGgLnCrGYgcYFZhna6whxLmG2uMMthKBG3pRc77q3DSODjEgmybfZZO8x8nWi+XvjiUoTQmQP4fnwoDwJdm+4sMFeTmUZkcoLU63BLu4466Zf5mU9wJ3YQlrzTaCw1cyRhdukAsyiY2ztgpjMLzI6a2TVilxe4K2B2wJxCmNs/DGbvCNTt8TLCFu1HHUY6r82n4b/lNII3nWd0vY4qjKweBC0i5TR02Rfhu/EYqq48hjqbLyGAkHhvOIeQrRcQnS6gnIf/xtMEmI/ZVIpajLeVN9xElc0fombaF/CmowcSuuC0ywjNvkLozsI3tRTGbaxpWfeGEz6/rFuow51Gnew71IfwyP0EnrmfwSvnc3hlfQbvjE/gxagpqpP6Ddy2ggD/hOrpf2NNeRNVs+hgrCuribJvUbdRnarJ27wJQwhrZg3jq3Ngiow0c8KshnUSrKT5FCFLcoFZnRbJqH0vzMdYMx++C/MEl7pZYKYUyCJHL3bS+6eRNId1OWWecw56vk6MwMzXDmFCCJSovYw7Vbq0TH4vMFclzJVZFlTafhU1Uq6hduplfv7jCMw6CFPuKTRakoLq4ayZfV16sxmzK86aKu/Lr8CcaLbD/CRhbhBLmL3CUKfHiwhdsp/wXUKdbacZTU8jYMs5ri+jpkCWco4ufBGtWOP23HcdjXPP0CVvo+epz9Gk8DRa7TyHLoevo3nxGbQoPodBpf9Ag5yrCNt4AbU23UT11I9RjTDWyiWEOdwJZF1FUI5ExotslFcRSUcNYXz0yrmB2nRltzy6bN5N1My7hdqFd3hZBkxcUaohtxdcVqqR/TWqZxDkrH8R2i9QNfcWdYOvxR1Izi1Uyr1tl2zzuWulXUPIRhncclENDJFhoDKEVOK1Avk/hFlN2ztJftOZMFNqgn2ZeF8gfpMRm3DLfOFxcn/WyglzzyOWMs07Bx3jfDTTgIKZO5XApfIjcdxpEmYPvs9aTEs1WNur2Ua2yWGqq6i1/TI8Mo7DP/OgGs7ZcBGdOYzO7GuP2XaYNRUwl/vlF2Ae0rsPkghz40TC3K8vGiqYQwnzCwhetg9u2y7BPfUUY+kp+G07B2/5+ZPsGzBnnkevfTcwqOQ0pt/8Gi8fvYrXL3yIYQdOYcyVO3j27CUMO3Iao6/ewes3PsOgfRcw4thf0IhQ1WWsrZH5ISoVfILqhVdQu4A7CYIekHsHNbOvwYOQBdFFfbiuWcAYWXgdNSh3WeddQfU81osEtyofW6WIKr6KKjsuoMrOC7z+L6iW+w2q5f2V+gRu+Tf5mBuozp1GJe4IHs27g8cI86PZN/FnvpZ7ymWES51MYOp/YO+1FpilB1udZCFynmhBkOX85yTpAJPTIKUTjDH7ng4wxmwF82TCrHq0GaXVvN322llAVpP3062tvI/13WOwEea4eedhoQx8Ha0LzKGEOYgKoEP7UvLTrbVZCritLkV16Qhjre+25Qpqbr1Edz4Gn/QDiMngjmXhdriF6eDjE6Am9OvjmNCvAubyvvxemD1D4dn9OQQt34sqKYx0GSfpmCfhlXIGXttOIjyvFHEEcNC5z9Fm206MO/sJxh77EEv+Brx25hOMu/IV3rj6d7x05jOMvvBXvH7pn2i19TBeuQrE519BpdTjqMrnqEEY3Qvp1IVn4Zd7hc5MJ86WQyyM59nXEUxHDci/Ab+86/DJ4/WUd84VeOVehnf+VfgUXYd38XV4sDavy9q7TtElPhdr48KPULvoFh9zA6GM+n6Z3BHksjygmz9Gp67EHUUNVQ7I4JeLsBGeZLptQ9ascfPPwrjIfuaVOv2RrixrcWQ5r1nB7ASZriynQZYdmpLjzIRZTriQullNrO+Y9zteoHbUz1aCHDtpPyzvHIFp+nGY+XxyuqORIIsra/jaAnMEYQ5jQgimAihf7mC8mRzqLj2PmivOowaBrraO3yOhrrnpIty3HUGdlL0ITz2K5Pnb4R6qh693oOrB7t25MwxRURUwl/vl98LsEQLvbs8S5t2olHYBj2cdZ2w9jrppp1F7yyH4ph2Gqegs+l/9Gv0O3cT469/hleN/waTLP6L91iPoVXAJw49+gU65F9EhqxTPn/0OAw78BU9d+AnWost4LPsQHZlun38WdQrOKAXmliKMoAblXEYwFZZ9GRG8HEHHDuc6jFFcFE5nDi/gdVQYIQ4puILAfMZ0yp+v60OovQm1T1EpQvn6BnHejKusua/SnW+gMpNBNUb4uqzdI5ZdgpVuWH/GaTSiwzZUDimnX54h4GftkxQI0A5HlkNSalz2rFNI4v2T7xs0ooZzTnWePXUY8ZPlDCr7hP0icWfpEBOQZXpgmfdMJmUQkA0EWM8dh5YQxyw8hygHzOGEOIQQB/KyH+/jw9s8F59D7aXn4E6gq6+6ADfGbvf1hHrzYTr0XgRv53uYtx01QwzwI8zd2rZDz06doI+MRNcKmMv58rthDoZf16cRvHwnKqedY215DNUpj4xTqMkoVz39CILyz+GJU39Fp9P/wMDz36PLns/RlrVsk6wraL3jQ3Q/+S80oTsmZ1/CwIvA8BtAp8N/g20XQSo6Q9jOIjSHEBNkfzpzRB4bMoHW5l2EJvcCNDnnKVlTcn2+XRoRa/WYwouIpiILShFRwEZfyJ0BFVpMFV1ARCGhyLsAfRZ3CnR7n7xrqE3nVzNybKPTr7mkgDELnDMIpEjmDpt7Ctb5hPqDM/bRXnRLJ8zqbCm6qB3mk2o4pxNmNZRTjc92nnBBoGVop0xYoCYtoFPLT+GIU8vtBDmeTm9lLW4ixAa+FwFZQ3CjqUhKYrY4s4KZIAcI0JQ3ga67hEAvszt0TcZud0JdY8MR1N58AEGbjyJ+tsBsIszBdpg7OmCW3uwKmMvxcj/M/E/8JZj/5BEE/64jELJ8B6qknUXl3GNwyzsGz6zT8Mw9i5p5Z+CZc5aueAmGohuILbgJG2OsNfMKYglOPC8nlNyBteAaolNPc30FlrxLSN5xA9bd1xG0g65DiM2ZJxGdx9heeBK6vFOw5PK+eWdh5lpO4xOZc7jNy2a+pplOLjLln4GRjzdQekpbcBrawjPQUDHcUUQXnIKO1+lzeXv2BURKB1sugWa89ki9Cd91dH+6m3Yun3vmCcTOlLr1GOJmHUfcnBN051OIn0dw6dL2Di9HnSzgzybITpi5A0hiTE6e5ojXjM0Csn2iAoecM5BQ6pc1eJ2aVH82dw6s0WMXXGASIMwEVkvFEOBIRukIgXkhYeZtIVQQgQ+kAihxZw+WAnUIdC0C7c7Y7bbsHNzWHUOdTYcQuEEmA0yBW6ARvl5B98Jc4czlfHGFWcT/RDnO/HCYAwnzUwhdXoKqaWdQLf84ahYcZ716Gt6E2YOu7JV3Dv50vhA6aTjjbGQOnZLQRGdznV3KbToo62JN/nlEEcYogqkvPg/9jguI2nFGndnTmC4fxx2FoYgw8TUS8+hw+SfUOoHXi9S2iLcnFJxQiuO23D+W7ym28DgsBcdg5tpcdJzx/ziMhbzM28zcURj5fmP4/kLozAGp1+C7/grhOIvoWbyN7mh6/xj0s45CP/sojHOPIXYO38fsk4zUBJYuLUrmdj1CnMzrk/m4pFmEmDuBpBl8v9MJ8jSC/C7BFRFogdl5FlWSwCuT5FMCt/q5G+k0oysrmAmsmQAb6cA6SkMJzOECM8EVmEPpyiHcdgLtu4D/BywFai86A7dFp+HGz+O2+Czc17IU2nQUAWtlWmLC7E+YPYPQ3QVmqZkrxmaX5+V3wvxnz0AEdnsK4StKUCOdDYZg1Ck8AV+6YwAhDMo5gpDcowilW0cQtEgqOu8EYy2Ve4KxmGvG8qjMQ9Bksb7mY8076Ja7eNtOwlNyFPX4HB22HUaj7COwFR1BcsERNMw7gkb5R9W6Qe5hpYZ5VD4vUw15nwZUvfzDSBYV2JVEJRayRi06DFvxIdblB2EtpAqO0uX5utypRORfg896QrDgGMJmHIWBAFrppub3jkA36zC0sw9Dp+Y5I2wzCelswjqH4FIKYgWyA2Il3scJ83uEdhpBFb3rgJjPLXV0MreTCXGyTJQv6/dOoD5duf486WCzw2xRMJcS5lLELClF5FKplcWZCTJdOIQKdoWZ9bzHAsK84DTcF5yCG8sCd8Jdc9UJeKw/Bv9Vx2B5Zxuq++oVzNIB1os1s+oAqzjRopwvvwDzsH79kGgy3QPzo4xmQT1GIGplCWpmsNEQRo+iE/DLP42wHDb8rBJoc3ayxt3FGncXdPm7GXf3QJ+/B4a83TDm7aEj7oYhayeMGbuondDz/lG79kKzZx+sJfvQPGs/+rC+a5V5EPUKD+EJAtk0/xCaU83yDqJp7gGlZnlc5/OyQ02oJ/IP/EyNCg6gfuF+JBbvRVzxbthK9nAncRCx4s6sx6MZ9T2WHkTNd3cgcsp+xDL+SidV7DuHoJt5kDBzPZc7BLp0/fcJIGFVDk0lOR3ZAXGiQOyUE2aHkrmTUBCLxIUJs0zFK798IaPD1I/OzTmHBnTlREZs26JSWAixiRDrqJilTDnLShG+hEAT8lA6tMTsYJeo7TP/DDwIcJ35p1BT9MFprs+g1vIT8KQ7+y9nQnl7K6oKzF72X7To1cnemy1nTUnMPiLnM6uYfS/IogqY/9cvDpgdNXPGtm1qMMHIQYMQr9ejcUK8grmB1YI/ewUiqOdTiCbMtQhzHUZYz+Lj8Cs8jXC6pj6L8OYQ3lzCm7uX2sM6di/r2T2MtrtZHxMmbicW7KNzEjDeFsfL1qK9dM59dNF9aJKzH+3TD6B5jh3EpgSyed5+NOd28zzCfo94ff5dNeV1TfP2EvS9vM2uZvn70JivV5/PnVi0jy59gK/DqJ51EubNx6BZfhAh04oQOr5A/did/JRMEmvYuKkHGbUPwkigTXTohBlHUH86gRRQxYmpREKc6IC4DOT3WStznSxrB8T1uK7H+lkgVvNpiwixgFyf2/Jjcw1nnUGDuedQj64cT1e2EmSZLklHgKOpqOV3YQ4rg1mc+RxhPqc6wnwJr9cHp+DxwUkCfRK1uV2b19VZdgJeKwnz4mMwTtyEqj461QHWq0NH9X9tJMwSt/t264bjBw/CPpzzLsCuKg9/FTA7erM3rlqFji1a4sn+/ZFopDPHE+a+fewwexPmXk8hZlUx6hBmD8LsXUKYiwhzPmvcnH0wEkaRiTLzspWAWenIsQIy3TqhYDdB3oP6VIOCvdQ+RmWK9xM1IqBNRAInr29O4JsT+Ba8r1rzuVzVkrc7pa6j87fi67RmOmhDteLrtiDUTyigCSqdPiHrCGI3HoRhwQ5op+TCMC4HsW8UIOmNXag3fj+S35KTHGTuLfkFCbr4+4eQOP2wA2Y6rkRpBTF3CqytnRKQk7gWkOuJ3iO8hLk+1/UJs4J42nE1Ikz9jrNjdJgc+mo456yK2El02DjCaqYb6wlvzAqWAkoXEbG8FGGEWc6akp7sYMIcxDpZFEj5EV7veSfhSZg9CHPdeadQlzDXXXIC3suOIWABy4hxGwizBv4+IehNgAVm+Xma3ozb/bt1t8Mszsw2UV7gvf+vAmYnzCtXolm9+up0uIa2ODRJYMx2wPyYTxBC+jwF7epieGaegRcdzqeEtVjRKcJ81A5yLkFmDDYrMbYSyliCJjDHMXYnEuJ7YC7cy5rXrkZ0T3FRgbgpLzflfZoT/haiwl1c70LLB6hVIQGm1Hb+TrTO34G2eTvQLreEQO9A67yddOvdaMydRGPW2/W2H0Loe5kIfSsD4W9mQPtGDqzjChE/bpf6TagE+U3ot6l39yNu2n7Ev8edAKFOfu8QYWVsdjjxXZCPKiUqoO+FWYFMNWBN3HD6Ka7tQzydMMvvOTeadRYN5p1HPcbrRDqyjZHatPwSdAQ4epXM0nIJEasoXg4j4KEEXYZzBhNoBTKjdADlS5C959KFKc95olPUadbR3OkuOo6AD45BN3a9mjLZ3zdUgdyHMkdHq8g9rG8/+ymQqk1UnDVVDpd7Yd5TWIiubdqqU+OeoCs3Yc08vE9v1LeY8bhfMEL7PgXDmhL4ZLHxFB2DH2EOKD6JiAI7zCYCbAf5ACwOmG2EWeJ0POFMKtyDegIzLwvMDXm5IWFtRBifKCJwXDfl5aYEs2nBTjQv3EmQd1AlVDFaUq0ckm11uahESbZbFxWjTWER2uYXogPViY9vT5hbZ+9BqyzW4unH8MS6Q/AatRb+ozYj7NV0aMbmwDy+ENYJOxE7kQniLdbVb/P9vrOXItzvMqJPO8Da9yAS36OzTz9CcAkw1/EuSqRzK5jp2D+DefoJNJK62KFGBPsJ0Qy68uyzSJ5PkFkny+yfFoJsWHmZCegSIgly+JrLCF9NrXTAzPgtMAc5YBaQA1grC8w+c+jCcwivQD2HDs26vu68Y4zfRxHA6zVj1qGSVwwC/ELVj8YJ0OboGHXW1MjBQ1CSl2dvE44OMNeIXV7grugAc9TMX378MSa+9pr6EW5jZCSaJCViaK+eqGc2obJ/MML6PgnjmmL4Zp1mvD4K/5KjCCw+gUg6sz1a22G2sOa1cttGmOMIczzhTaAzJxPWeoS1AbcbEWQB+Am6buOindQONCG4zQp2EOISNC8qQouiQrQsKkCrYrtac7uNQ60d17mqTUkB2pXkoW1RDjoW5aLnzt0Yeug0+hSeQpv1+2GdloXI17dC90YWtGOp17OgG5cH3cQCGN4qgWnyTlje3oXYKUwSU51AUwQ6gU6dMO0g4qcdIsgCtV2JCu4jBNlVrJMJdH2qwQw68Psn8MT7rI1nnESDmXaIG79/Gk1mnkXDueeRsEhm/bwE64rLMKy6As2aq4haewXhVNjaywgj0GGEOZRR2xXmwIV3Yfaba4fZa9YxeM46Sh2HB1V39lHUnXkIAbxeM3otKnlG0ZmDlStLb7b81lTXdu1Ux+eEsWNx7dJFNomK3uzytfwM5h/x9V/+gqkTJqhzW+WkdYF5cK8eqGcyoYp/EML7DiPMhYT5JGE+jICSwwgqPo6ofJmXea+qk8WRBWQrt22MzMqVVcTeRZh3MmLvpCvvQCMC/AQBFogb01kb01WbUs3psM0JcYuifIKcR9fNJbg5Sm1c1Lo4G61KRLydarMjD+125qL9rmx0KMlEx+IMdOcOoU/RfrRfxx3G7CJYxtKJX9wOyxi68eu5MI3NhZ4wawmzbnIx9G/vgGnKTvWztbapdqCdUItDx6vofYAASx1tr6VF94L8CzDPYtSefRpPzDqjQG4665yK2LFLL8FMkI0EWUuQo9deQ/i6qwiT6YsIcyhhDmXkDiHMwYQ5WGBefC/M/oTZdzadmdB6zTyq5DmDmnkYniwTgpgYdK8IzJEIKIO5s4K5c5s26EKgX33pRVy7fIlNwl43u6oC5v/NywOc+fzJk3hxxEhVM9ePjUXT5CQMcThzFf9ARPQdAtOafMIsHV8HEbDjIIKLjyC64CBh3k1X3kOY98CqJL3XUivvIsw7CfMOwlyC+oS1QUERYS7GE8VFhNiuJiWFaFYsENtBblGcS1AJbUkWlUnXvVetS9LRakcaWu/IJsi5BDkHHXZlodOeDHTelY7ORdvRMSsd7bdkI3naNsSO2Q7jM9TTKYh9OZOXc2Ah0AbCrJmYD+3kQmjfLoLh7RKYp+wgzASaDm2bIkDfdWipoxMIhxLr6PthTiZAzqjthLkRHbmJjPMmyPXnnkGjOWfRZPY5NJt9Hg3VT99e5vd6FXoCrFl3DZHrCfP6qwiVwSwEOoRAy6SJwXRnmf8raOkFBBLmgPtg9iPMPjOPUUfhwx2KN1ODN3c6PkwUwdOOQP/yGlT2jEAgSyaJ2HKihcDcsVUr9O7aFc+PHImb166wSVTAXL6WB8Cck5aGHjKAoGdP1swJ9pjduxfqm82o4heAyD6DYVybC5/so/AtPkCYDyCEDh3DOG3O2UWQdymIRbHcdoKckF+CpIJi1GM9KyA3LCikKzsgVipEU4LcjFG5BSN0i+I8SlxXQM4gvOloW5LmUCq1nQBvJ8iyzuDlbLTfQZB3pqHrns3oTrg7Z+xFi9WFBCsNxlc3wfDcFhhGbofpmXRYXyTMownza7kwvsGYPV7cOR+6SYWM20Uw06VjJ+9A7Ns7FdD3wszI/d4BxIsIyf1Al8E8g3UzQa7vAnODOadRbx5hphs/Ma8UDRZeRDxd2bj6CnQEWUuQZdrfCEpcOYQwB3MdzLgdRJgDCXMg3Tlw2QUELDkP/0Vn4b/gXph9BWa+Bx++J1++Nx/ufHxZ+wdN2Q/9iytRxTMcQSyZ5OdpnDB3adsOvbt0wYihQ3HjymU2iQqYy9dyP8w//IC0LZvVXnpon77KmWXQyDBHB1hVXz9E9xkEw9oceOVwj1+yH/479yO06BA0jNOWHMZTESGOJdg2bjtBTswvRnK+gFyoQG6UX8j6uAhNnSLM4srNBeZiuyu3LHaCLPCmuGgr2u7YRG0myFvttzNSdyjORLu89eixZyWj9S60pdslTNmL8Ge3QfssIX4ujcqA5fksxL6UjdhXCLMjbhvesDu0YXw+jBMLYZ5UBOtbTqBd6mcHzPHv7SfIAvO9QAvI9QiTgnnmCYdOohHr5CYzT6PB3NNInn8WjT4oRcOFl2FbcQWGNayRZc5uAhyz/vpdVxaYqSBCLgpg1PYnzDJdkD9h9lt6Hn6E2Y8w+ztqZrsz05G5UxGQ/d49AL939sCPZUPgW7uge34pqnmFIThAfp+5YxnMcvaUDOkcPmgQrl4sZZOogLl8Lb8As4wAq2ex4omEeAzv2wcNLBZU8fElzANgWJcNz9zD8N6xFwE7CUvhQWjz9hJkNv6cEjoyI2rODsRx2w5yEVWIevkFBLkAjagn8vMJcQGaOSWxWhyZNbKK10Wsi4uyCSkBLU4nqGlUqkMpZWqv1lvRsWQLuqpYvRndclLQaTN3IgRZMyoTYSM2I+bpbTA8mwrT8xkw05WtL2fB+ko2rK+KO+fARKDFoY1v5sE0Lh/mCYWwTiom0HdhjiPMcU6Y6XYSt+MIyz3uLDCroZ8iOeOKMM+Sw0+n0JQwS8ROWnAOjRZcRKNFVxC38iq/z6uI2khtus71DURsuM54fY2OLBBfQSDXIn9GbT/WzTKRn//yB8PsP4vOLK5MmP3eOwh/1vgBrP0DmTACx5fwO1iM6oQ5VH5svX0Hwmz/sXVxZekEe3JwBczlc/lVmC13YbZaUNnHB1F9+7OuyyLMhwjzHgRSkYUHoM9jrM4pJMRFsOUWE+RixHNbQE4ixMmEtz7VqCAfTxTkoXF+LiHOR3OlPKWWqsNLQGYNTLWj2hdlokNROjoR6E4EuhNhVtu8vlNBOrrwtq4CcvF69NuRgiE7itF2bTaMEzYh7JltCHlqE8JHbCHM26F7JhWG59NhfCEDxpfSYSbo1tHZdncm0OaxeXa9mQ+LHKqaKDCXwDqZSYNA2wi0jS5ne3cvZa+dHwzzcSQrEWaCLCdjNJp1WsEsETth4Tm68iU0XHwVcauuQS9OvJnacp3rGwjdeJ3x+jpBvqYgDqBLi/wcMPutkDmzHw6zH9+DL2tlf8IcwPcZRJhDmDCC3yyC8ZlFqOEZijAHzH0IsYKZ9bKcOfXU4MEVMJfL5X6YWTOn/iLM3oS5H50kE165B+FTshtBO3YjqmA/DIzWtuwCwlxIkAuRQCVSyXmifNTLy0OD/DwHyHlompeL5gS7BdWSIKsea7pyG67bFmUR4ix0KMxCR0LbmcAKtF2K0qhU+7qA69xU9CjIQB/G7N6FW9E7i5BvyIZp/Hr4D1+KoGEbEUyFD9+MqBGM2k+nEOg06J9Lh/4FQv0SXXpUNsx0Z9OYXMZtOvJY6s0CmMcXwTKhGJZJJbDQnZ1AxyqgBWa7SwvIMqgkniAnvH8YiTNYN4szO2GefRfmZjPOEOaz6jehJWI3WnyNMF+Hdv0NBG+9gaBtN7m+iUAC7U+H9qND+224Bn+CLPotMAfwNf0Z8f3fP4aA6QcRyBQR/M5uhNKZg94ohHHkAtTwCEZogP1EC+dMI30Is5xsMWLIEMehqQqYy9fiCrPoV2Cu5OuNSF5vWJcB7xzWYsW7EEKgY1gvG3N3EuZ8glxARy4gyAVIItz1HCDXJ7wNqScKctFEXJnbAnILwt26kCBTAnI7xmvlxgIy1bkow+6+hWnoVphKpaA71YPbvameOVvRNy8VI/bsQie+r+jRC+A3ZCEhXoPgIRsROpQOPWwzIofTnUekEOhUBbSO9bOBQJsYt02snU2vOmEmyG+yZh5nh9lMdza5AG2dYgc6Vjm0C8wEWWCWMdwCcxJhlvHbd2E+g2YzzyH5g3OIW8J6ma7caMkN2FbdgGbDDQRsuwW/7bfgz7Xvlpvw2XwT3nRoH8qXQPsRZjnf2nf1RfiuLFW/M+V7H8zSASYwB8w4jgAHzEHT9iKEzhw+eSeCXy+AccR8VK8biBC/e2cakXHZ8uNxT0sHWMWhqXK4/AcwRzhg9iHM/oQ5tHi36vwyCcw5eYjPzUdCHkHOZbTmtkRrceQGBLiRgExom3LdnJcF5Jbcbl3I+riQ9bECOZsgZ6CTgMzrunBbQO5eRICLtqFX0RaKLszLA0s2Y1DRegzMzUGPTYTvzXXwHjgXvv0XIHzYWoQN3ogwAh0+1A5z9FPboR2ZCq0DZrs7ZxJmujlhNr3GeplAm94oYN1MoAVmyjTRCbN9QIkTaAWzgMyI7QpzImFOnE2Y5ayqOadQX3qv55xVh6GSF16AbdlF1Ft8BfWXXIdtzU1VJ/uk3IJ36i37mu7sRaC96NDelM/Ga9RVeK+/DM81F+G5Sn6W5gJ8lp2H72I7zNKbHUCYAwlzIGEOJMyBfG8CcxhhjuKOKOQ1fq6nCHMdgTngnskJ+nXvrsB+Ztgw3KzozS6vy70xW2rmTi4wq7OmHDA/7oDZSJj9sg8gsGgXwot2Q0uYzYQ57hdgbpifQ1fOQVOC27wgGy3ys9CK69aUAplSNbJy5AyCnEmQswhyhnLkngrgTehbuAH9Cjajf34KBvM5RvI99Fq/gyCuhd/ARQgbuobwrkHIwNUIG7gB4QTaFWYNnVn7bBq0hFlHmA2E2UiYjYzZArORMBtdYDY5YDa/RZAJhIVR2zpFnFmitvRou8BMkO/CfAJJBDl5zml1AkVDqvFc+9hr64pLSFp2FcnLb8C89ibrZIJLkD3TbtnX22/Cg0B7yDzklOema/AkzB4brqDuukvqBwg8CLQn3dl7yTn4Oo818/UCZxLm948j6D07zIECM3c+UZN2IuRVfrYn56FaHX8E+/qrYbvSo62LiLgL8/Dh98AsALuqPPxVwOzoAEvfTJhbtqIbPxjm8P79YFqbAf+sAwgu3IVIwqzP36+OLyfk5CORACcSZCfMDQhzQ8LcKC+HtXI2mhHelvmZaJ2Xjnasd5XKOrukTpaOLcJMdaG6UT0KUtC7YD0hXoNBBasxJG8TnuRzPJNzDn1XXkEca96APisQNmA9wvrbFdp/HUIHctsJ85NbET0yBRq6spY1s+Z5O8x6wqwnzHo+h/H1PBhYMxsIs5EwG1k3GwmzkSCYJ+8myHsUyNYpBPmd/WUwJ0w/ZAd55lEkzDrqmMDgFOUAef5FpQbzxZXtx5TjV15H/Kqb0G+4hdCtt+GRfht1RGkUga5Nh67FOrr2luuoTZjrULUIcy26c23G7TprL6nfmPJcRodmDe4//ywC554hzHTn9+jM7xxFwLQD1B7Wy7sUzKGvcmc1fB6q1vZHkIK5DWHuAH14BAZ076Hq52efHI4bV68wsP1QLkGWvwqYHwazyymQj/l5ExQ7zIGEObSAjaRwNwyE2UpnTqAzC8xJrJMF5HpUQ8LciJH6CTpzE8LcvEAcOQNt8tPQvkCUriB2gqxcWXqpqa756ejOdc+C7ehTsA79BeT8tXiSNfKTWQXovmw/kl7fiaih2/i+CG2ZNhBsSpyZMTtCauYHwKxVMGcQ5iwFs4HObBCg3yDQAvOEIhh+BvPeuzC/4+jJvg/mxDkn7NMLzTmDeh+cJ8QXUX/hRSTRlc0r5edhr8K65gYsdOXozbcRsJ0AZ9xGLRFhVkq5iZrbbqDm1uvqR9RrbqY2XUVNAl2TQNcizPKTNB7izosF5nMK5qCZp+jKdOaphPldO8xhhDlm4k6EvcIyYpgd5kDC3KV1G/RoT5jDwstgfuY+mMvjXwXMvwNmM2EOyjyAsHw2kgKZQWQ/YhXMuUjMy1OHoZw92A1ZF0utrCI2QW7B6NyagLYtSCXIIgKtOrzsIHcqFJDT0JXqRuDvwrwWA+jMwws348mcLPRckwXb65sZpzcicvAWRA3aggiCHNFvA0WgBeZB3B6yCRGM2K4waxiz7TDTnV+8C7P+tVzoX6fEnd+kO/9XYWatXI9uXH+BgHwJcXJa49rLiGRkNmy4Qd1C2Lbb8CG8NbNuwz2Ta7pzTV52J8zu22/Afdt1JTcC7U6g3TZeQQ3CXJNxu9bqi6jrCjN3HkEzTiF42nEEC8x8fwHv7kEEywPNhJ2IIMxmF5i7usAs5zLLOG2J2RUwl9vlXpjTBOaH1MyP+nkhZEAfwpyO4Mz9iMjfCQ3d2ZS3Tw0USczJoSvnEmTpvc5Dg1x777WA3JggNyvIREsCey/MqarDS0DuSJA7F9oPO3VltO6evx098lPRi+t++RswgPF6SH4Gem7MRuKkDQgZshSBvVYjvO8GRBHgCK7D+6xHJLcjCXbkwE2IHELQh21F1JPbED0iBTFPC8zpyp21z2cQ5kwYRmXDNDqXdTNd+bV8wlxAmCVmE+QJJayZWS+/RZgn/zrMMr1QwgNgTlhyCRa6svxcbCijs2bTLWg230FQyofwyLiDajl3UFV+64pAV6dDV0+zT8hffft11BBtJcgEusYmwrzhMtwfAnMwYQ557wRCp7JmfleOM9th1o7fichRebA4YHbGbBm6qwsPRz/CLDXz08OHqeGc8sP7FTVzeVqE4986Aoww/9nfE8EDexPmNIRk7ENk3g7oCLQ5l407txhJdMzk3Bw6cq4CuSG3nSA3IcjNGK9bEdjWdF0nzB0ogVjUiSB3LkwlzCmslbcR5i3KlXsT5v65mzEwNxUDcgrRfH46goYthXePRQjusRqhPdYgsvc6hPeiuBawo/pvQtSAzYgeTJCHEeTh2xH9VCo0TzNiP0OQCbROwZwF08s5sLChm6WDaAxBfr2QMLNeHl9CmHeUwWwVmN9+OMzxhDluth3mBJnB0wXmuKWXYWCtHL7xGgJZC0duuY3IrR/CL+0juvKHqJRH5d5BFQJdhS5dOeMmqqTdQJXU6+onWqsT5hoOmKsLzPJrFWvsMHsRZj9HzBaYQwlz+DuM2nxvErMj39oFPWGOHpUP67APUK1OAIL87B1gPRwdYM5DUyOHDcX1ikNT5XD5BZiHC8zWe2H+E2EOGtSLMKciNGMvovNKoM8vUWdJxeUWEeZMunI2Yc5BA6phbjZhzibMmYQ5gzCnE+a0B8CcSpBTCfJ2grydrrydMG9VMPcu2oq+BHtgznYMyGBdLaO73liHuj0WwqvrkjKYw6mwXmsV0E6YowcS5iEEeRhBJswxTxLmkQSZMOtEzzFiv+AC82iBmSLMxjeKYCLMpvH3whxLmEVxhFnkhFkGiyTMOob4OccI8kkkzDutfrM5eWEpkhddQuyKK9CyVg7dfB3+228ibPsdhKZ8BJ/Mj+GW8xEeK6QK7EA/Tj2afUv97tVjGTcUzA9z5jqE2XOJTLN7DgECM2tmV5ilNzuaJYJpPKM2YbYR5uqEOdgvQE216zyfWWDuXgFzOV4eAHMqY7bA/NTAgWhgs6FRfFzZiRZ/8vcgzD1hXpeCsIw9iKEbG/KLCfNuwlxImDMIcybq52cR5izCnKlc2Q5zOpo/EOYUgpxiB7lwG2HeRpi32WEu2Iw+xVvQj9uDM9PRb1MO4ieuRtDQRfDtvQqBvdcgyAFzmFM91yLSEbujBhBoqaeHsF4eug0xw1OgfYp1MoEWmPXPZsAgML+UA/PLuTCxpjSOpujOxrGFML1ZrIA2E2YrYY51hXnKvgfCnDDnOEE+hfgPTiOegCUsLlUR27zqCmI2XEUII7Y/6+GQtA8RnP4xvLM/Qc28j1G58GNUKvgIlfM/wuN5d/Cn3Ft4JPcm/pR1A1VT7sJ8f81cZ4UdZpkA359JQDrAJGaHOWFmzI6mM5vGsSR6mTAPtTuz1MxynFnqZFOMRo0As8M8DLevX2OTqIC5fC0PgDl961Z05X/yiEGDCHI8gY5V5zMnG42EuS6Ch/SEdX0KwjMJc14RYS5Sh6Xk+HJyThpdOZ0wZxDmDDSkFMj5mWian44WhFnq5Ta/BLNDTpj77diC/oS7/9YMNH97LaJ6zEBot/nw674cAd1XILD7KoR0J9CUHeY1iGDUdgKt3HnQFsQwbmvo0rrhqdAzbutGck2gjc9lwvxCNiyE2Sy9vYTZxLhtfq0Q5jeKYSbQZkZt66RdiHUBWmCOZ8xWY7LfP4JERmx1fJkwJyqQz6hfjJQBItaVcmbUVUQT5jDCHJRyi2XKRwjO/hR+8nvSeZ/BI+9T1Mr7BDUIdhVG7kdzb+NPObcUzI+nXUeV7dfsUVuc+T6YPQiz/DSNH2EOmHVKHZpSHWDSmy0w870b39yBmJdyETt4LqrW8oO/t6+K2eLMVp0OXdq2xbABA/DsiKdw+8Z1NokKmMvX8gCYVy9dimYNGqhTIBvGxdlh7k2YTUb8OcADoUN7wbYxBZHZ4sysLfMLYc3dQZjzCHMq6ueloQHBbUioG1FSKzd1wky1lsNSDpjbMVp3IMj2iJ1CiO8CbYeZrrwzBf35uK7L05D04nLoOs1DZKeFCOy2hCAvd8C8SsHsVDjjdoR0hBHoaInbrJ1jBm6BhkDrhqZAT4c2jEiFkfWzme5sfj4L5hcd7jyKItBmurNlbJGC2cKobZ14L8yxrJvj7od5tgNmghy/6Bxil14gyJfUpAM6OU+Z9XL4lhsI2X4LoYzXwTmfISDvc/gRZgV17qeoTZirE+bHCfOfc+zO/Gj6dTyecg1Vtl1TP9UqMfsemJeehxdfz/eDM/AnzAHT7ceZ/Qmz/zu7EcVkYXijBNH8jNZBc1Clpi/8PL3VoSmB2WYwoHWTJujSri1GDB2Cy6UX2CQqYC5fywNgTtuyBR1atFSTE8TzP7kea+WB3bshQa/DI361ETK4G6zrtiIig7Etl3E0rwCxuSXqGPN/AnN7VS87Or4IdNciEWvmom3oTvXflY2+2Xlo+T7r3t5zoeu4BFEdFyGE7hzcfdkDYZbaWWAWZ44hyBqCfBfm7QpmI93ZzLhtfcZ+frMTZjNhFod2wmwhzFbCHPsgmAmLwJxAmCViK5DnnUDiwrOIX3wesctKGa8vwUCQdRuuI2bTTURtvYWI1DsIy/wIITmfIJgwBxLmAMo39xN45n6Mmrkfoiphfiz7BmG+jj9n2oGuRHeussXRAeaAuTZhlp9y9STMPoTZb/Yp+BPmgPtg1o8lzC/kwEKYKxNmX4G5VWsVs+OYujq0bIl2LVpg1PPP40oFzOVwuR/mH39A6ZnTeHb4cDVtkI3xS2Du16Uz4nVa/MmvFoIHdSXMmxGeUUKYWV/m5xPmYnWMuZ7AnEuYCXEZzApkB8xSMxNmqZnbEOa2P4M5VcHcjTB3L96OHsWp6FVYgPbrchE3ah1CO30AQ6dViGi3CKFd5zNSL0NIjxUE2A5zmIhRO6IXYzZhju67EZr+m6EVkCnt4G3QE2aDA2YTYbY8DOZXCfPrRbAyaseO2wEbYY6bRJjfssOserRdYHZG7IR5JwmznExBV15+EaZVl6EnzNr7YA4nzKGEOYQQBzJiB1ACsxdhrqVgvlUGs7jzn53u7IRZerMfBvP7J1grH7PDPHUXIifugG5sMaKez4Z54GxUdveBr4cXOrdsVQaznMss5zQvmDMbX376KZtExYR+5WtxhVnE/8B/ffU3THz9dfTv3h1JJhPrZpuCOclowGNBdRE2tBviNm5FVPZOxuwcwpxHmIsIcw7qE+YGhFmBnJuOJyhXmO0dYHJ4SjrBfg5z5yLCTIC7Faege0kKepSko11KARKnpyO833KEtF1CmDcQ5qUI77oQET2XEt5lBHmlHWaCLL3akdKj3WcDYgizVmAesAW6QXRlwmwYYodZxWzCbCbMrjHbCbOFMFsJcyxhthHmuAm7EO+Yhvd+mCVmJ80UmE8gft4pJEitvKRUTZmrpgNafx/MKa4wf0qYPyHMnxDmj+/CzHr5ccL854fA7OY4NPUgmANmnFSjwPynHYQfYY5gza/jZ4mUzzlwFiq5eSuYOzGByagvgVkm9Bvcty8KMjOB7+UXLSpgLl/LA2D+5quvMOG119SIoGSLnDUVp2CWmrlSsAcihnVHwsZtiMneBQ0BNuXlwUaYE+nMvwtmwiswS9S2H5pKIcyM2A6Qe+5MRc+SLDRenYeIVzbBv8tShLZZAV2H9dB2Xo1I1sxh3RYTYl7/AJijBeZ+m+wgDyTIDpj1hFk/7L8As8TsKftgnboPtmmEebrjHGbWy3JISvViE+ZYwmyW+a8Js5YwazbeIMy3CPNtRBLmiIyPEJb9MUIJcRDr5MC8j1g3fwRvqnbuHVSnM1fKuY5HswVmRu0MwpxKmLdeRbWNvxfmEmhfKyTMdmeuRGf2IcwdmjdXNXMsyymBWSYo2F1YiJ++/aYC5nK3PAjmv3+F8WPGqLG6yWazOjTldOZKQR6IHEqYN2wlzDuhJcxmwhyXI8eYZaCIS8R2gblJfkYZzC0LHYenCHAbOnE7AtyR6lS4nTBvQ9cSRuwd2wkzgd6RibhZqfAZsga+7VcgrPVqaNqug6Eb6+GuhLgL4/YvwKwhzLr/TpgZs23iygTZ+g5hdp7HrDq/7BE7fv4ZxLFeti4thWnFJejXEOYN0vl1A1GbbyNi222EpRHmzA8Rnk2gCXEwAQ7K+xD+dGSfnA8J823CfBOVCfNjVBnMaddReRth3mSH2Z0w1/qNMGvGFN4TswXm9k2boWfHjojV61XMlh+PO7hrF3785l8VMJfPxQGz1MyE+bu//x3jXhmNQT17MWYT5jgb+nbuhESDHpUC6yJySDckrN+CmEz5BUc2fCouW44x05kFZkLbkPA2op6gGrNGlmPMTVgnN6NaEOKWjNitClLQhgC3LdyGDoVb6c5b0KloC7qUbEG3HVvQY9dG9N2VgugX5iOw01IEt11OmFcius0quzN3ZrzusgQh3X4ZZmfE1lLSAaYlzDqX3mwTYTY9lwnTC2zo98EcyzrT9kYJ4sftJMh7ED+Z0ZquHPvOfljf3Q/b9EOInyHjsQmyI2LHySEp1ssW1stG1su6tVfV5AOhW27BN+02vDLvwCv7Q4RSUVQ4IQ6lBOgAgu3LdR1CXYNAVybQj+UwYjNuP0qgK6XTmbfbYa4hMK8lzCsvoM6y8/BaTJjnn7XDzJpZYA5widkCs7MDTHqzfT3tMPcizDadXv2ihZzbfHD3bvz0/XdlMAvArioPfxUwqw4wO8xvjnoFQ3r1tsNsY83cqeNdmAd3Q+K6LdBk7oCBAFvozvEOmOs5e7IJsMCsgGasbkw3bkKAm1LNGadbEuRW+YS5gDAXbEV7QtyhaBNh3ohOxRvRdSeB3rkBnbMI5dBZCG/NSN1mGdfLCfMKRLVfjohOAvMyBHflutsvwCwdXw6Q1bHmoYT5SSfMaTASZjnWbHqB7vxAmHeUwSy/P2WjK8cSZCsjdixdOZ61cvysE4T5JOI+OAUbYZZDUuYVFxmxL6upc2M23EQgHbl21h24M0LXzP8QIXTg6Gw6dB6dOu8OQgiwRG2Bua4T5hw7zI/m3lCdYU6YqwrMGwRmRu0ymOUnXX8Os3SAKZgZs10PTT0I5r5du2H/rp2qI5T/lBt47/+rgNkB8/d//xpvvDwKQ3v3Ub8C2TA2Fn06dlCHph73r4PIgV2RsHYzNOklMGbnwpqdg4SsQiSLMxPkBgT4YTA3o1oQ5LswpxDmbYzaAvQmxu11dOn16LJzm6qfGyxfiYiBcxFBmCPaLkMkgY5us5wwL1Mwh3VejpAuKwizozf7V2CWQSPaYXZn1j9FEWg9gRZnflDMfiDMdOVYgmxlxLbJeGy6cjxBllFfcfNPw7boLGKXXWDEvgg9YZYJ7aM33kSAgvlDuBPiWoQ5lMBqcu4gijBH5N8h0HRnwuxPeXK7JgGvln8bj+fdxJ8lbrN2rpR5HVVSrqHqZkeP9u+BeUyBfdDIEPugETk01a5JUzWpX6xWp2Du160C5nK+3Afz119j7Esvq0EjCmbbw2E2OGCOVzDL1EAZDpgzCbKIMBPsxo6YbXdmR8zOT7X3aBPodnTr9kWb0aF4NdoVrEWnHbycmwfd9NUI6bvADnObpYhsuxRRArUD5nDCHNaZtXTXVQjrtlqB/Ftg1hJmnQvMxufvwiyDRsyOQSMCc+ybrJfH70TcW3dhthGS2DKYGa8Jc/y804SZrsza1bqsFEbCrGO9LPNgRwnM2wXmj1BTYCasYYRZS5ij828R5tuM23RnQi5R25PrmoS8GkGulEdX5loculLWDVRWMF8mzJfgxpj922AuQcxDYJazppwwy/jsMpgrYnY5W4Tje44zM2YT5tdfvguzjADr08kBc0AdRAzqinjCHJNBmO+J2YQ5L5MwZ7JmziLIdj1BsJ11c1OqWWEamhPslpR9aGc62vP29qyZO5SsoEuvQceSdDRP2wX/N7cgsDfBFZiVOy9FRDtC3IHquBThnZZTKxBBmCO6rkZE9zWI+C0wM2brRlAj7ZP7GQizjM8WkI2UcwSYHGO2jpPRXzvVYBGpl+OmHkD8O4cQ9+4hJEw/hoSZdGUCFD+XtfJ8gryI9fIy+684qt+MkkntN96CvwPmWlIT53+EcMKsp2IKbiOSiii4g9CCjxDI27yoWnTr6nm3UFlAltqZMfvxzGuolHIVVRizq66/iOprS+F+D8z3doCVwTyeMDNpPAxmGc4pE+A/CGZXVcD8v3n5NZhNdph7PwRm6QATmFUHGJ20PkFWJ1kUZJUB/QS37wKdgaaM3KpXm5FczTjC29rxPu0KGbcF5pKNaL8jB/U3HyDMRQiWYZl05ahWSxAl7kyYI8SZCXRERzvM4YQ5nM78e2DW3gez0QnzK5ScbPFagX1s9vgdsMiJFo5DUnLao40g26YdRtz7Ui+zVp5DV55HV15wDubFpfbfVl7FiO2AOWKTwHwHtRww13XAbKBDawtvI7rwFqIIdHgBozZv86Ez16Fbu9G1q+QLzKybGbMfUzBfQeVNl1B1gwPmVRdQmzDL+Gwvwuwz5xT8HVMHSW/274G5TwXM5Xj5b4Q5UcZm52WgngBNQAVs5dISuSkn0E2pZozfLahWvK4NgW+bn4O2hdvRpmQl2u3ahtYlhbCuOgK/N48htN921snLENNyCWJaLUU0Y3ZUO6mblxNmRmyJ2b+zZv41mA2vyiQFBY6zpnbAPIkwyywjckjqXamXD8Hy3mHEzjgG2+yTsM09jdgPzsCy8BxMS0qhX3EJGtbLMWuvImrDdYQTZj/CXDPrE9TK+RgejNIRBNlI99UTZG3hTWi4jhR3Jsz+XHsQYrf8G4T5Outm+yGqx7LkWPMVVNp8EVU2lCqY3QhzreXn1eEpjwVn4D33FHwJswzpVL9oUQHz/5Hld8L8GGEOJ8xx6zYj2gGzmTDbCLN9/q8MJDFqJxFiORWynjodUqB21NLcllq6MdWEtzUnyC2p1iLpFCtehxasn+tnZCN68S54TNgHj2Hb4MfaOJIga1oR5LYEud0KxFAC83/SAfYwmCViGwiznjDrZY7pcTI5wU4YJ+2GmfWymRHbTLczTz8M0/QjsMw8DivrZSthtn5wFqZF56FjvRxDVw5fdwWBm67CZ9t1eKTdQu0MO8y1CbMnYQ6n++oL7TDrCbOu4KaK3BK3A7n2Isw1CXJVqpIAnUtl05kJc+UtF1F1I5153UUFc03CXEdgXngWXvNOwYdpwe/9Cpj/by2/E+ZHCXPY4K6wEeaozBJoc1lfUvKzNGqa3ZwMJORmKiVSSZRArRybqs9t5dZcN8rLItDZaEa14G0t81PQsmgTnshNhXVLBoIWFMJtYjGqPb0FNXswSrdeBm1Lgtx2Bd15JTRURMeVCP5vhlkvMI8RmAthYL2sn7ALhrd2wzhlP0yslU3TDsFImI3vH4Fp1nGYCbOFEdvCelnPujVmeSki1lxG0IYr8Nh+De4ZdNecW6iebYe5TvbH8CbMYayPtUV3YCDIhsIb0BfcgJZARxXcQjDlQ1euRYirFRDg/Gt0Z0pgThOYGbMZtauvv4Qaqy/AfcV5e9ReJDCfLoPZtwLm/0PL74T5z4Q5mDBb1IkWOxBDgPWE2ZJTRKBlJFgm4nKzEE8lUIlUEqEVt7Y7dRZjeBahZk2tYM5RMDfPYx1NmJsXblUTGhi25MJ/IUF+qwhVn9mKWj0JLmHW/Q/CrCPMeoF54i7oCbOBMBsJs9EBs4EwGwmzae5JmBixzayXdaxbo1aUImztZfhvvIq626/DzQGzzPHlnk2Ycz4izB8irPBDaIpuw1B0A8bCazAQWl3BdUQT6hDKlyDXJsTV86+i8kNgrkaYqxNmtwqY7/mrgFlglhFgvwDzIwG1ETCoC4yEOYQxO4IxO4Yx28CYbcnJhy0nizBnE2a7EqhEwppEyXRCakqh/GzCnI0GVJM8+ZkaAp2fTqWiGevm5OxsxGwphM/iHaj2TgmqPbcNtQlzJCO2E+ao/wRmSusC84N6swVmZ8x2wqwjzLrJdpgN7xJk1st2mI/CMPsEDIy1xvlnYCTMmqUXELnyovopVj9G7DoyQ0jGTVTOvYWqCuaPCfOH8CHMoYzYMcW3CPN1mAqvwlhwhTBfJczXEEqo/QhwHYJcowxmR8z+fwhzRW92eV7+A5h9BnWGdt0mBGQUI4QgR+RkQ5NdABOd2cbtuNwcpXgqgUoksGrGTjp4Mtcy2Z/87pRM+Nc4Nw9NeB91IkZBKpoUbENcdhbCCLPnsl1wm7UP7q9kwKvfOsS0XgF9C9bOCuYV0P5OmEUyNlvOZ5ZBI64wO48zSwfY3ZrZEbMdMOun7oeeMBves7uy/v1jhPkkYT4DvUTshRcQs/QiIldcJsxXCTNhlLm7BOac2w6YP0JdOrOvwMy62A7zNcJ8RUlPqGPo0mGUP6H2IMQ1qSp06kqsoSvl3EBlGQW29TKqybHm/+aYLTAf2EmYf6iAufwtrjCLXGHu6wKzY9DII/614DmoE6LXboRvehECCF5Idiaistj4s2QASRbjdg6hlh5uwkznll5uOWyVrPRgmNXJGAVpaJy/HbFZ2QjeUoy6K/bAfe4BeI0rQOBQgth+NQwtVyCi7XLGbILdhm7d4b8Z5pftvdn3wMya2RVmvYL5qIJZP/sU9PPOQjf/PHSL7DBHrJAfSL8G302MydtvoHqGnP3kCvOH8MuTY8q3CDPr5aKrBPmykr7oCmG+Wgazp4L5uoL58TwCncMdgxPmTffCrDrA7oNZOsBkbHb4+GI7zC8SZse0QRUw/9GWB8H8j39g7KhRaqpdgbl+rBW9OrRXkxM84lcLdQd2RuSajfAmzH6ZWQjKymT9nAdtJmtngmglyLGE2Jadi3hKAU39EswyT1hjB8zWrBwEbtmJuiv3oub8AwiashvhT2dA32mditmR0pNNkE2tViLq/xHMcmhK/xpj9pslD4VZN+MYdIRZ98FZaBech5YwRxPm8JVXEEyYfQhzLcJcjTA/RpirlMF8hzDfZsy+SZhvEGa6ctElJX3RZcTwchiBFpi9KIG5cj5hzqVkfHYaY/f9HWCO3mzPhWfhTZh9CbPz0JTAHDauCNGj89WJFmVjsz28KmD+4y33xuzvCfMbAnNfB8xWi4I5TqtRMNdmzRyxdhM804vhTZj9MzNZP+chmjAbCbOJjmxWwzzpAlQcgY0nuIlUEiUT5KvfaqYa5eXjCYL9RGEmZYfZQpf327oHdVYxYi84CK+Z+xDwGp+/50ZEtV6OcMKsabMC1hYrEd2eMHddeS/MMjunE2bHLCMKZoKsamYnzE+lQj8yDfqnZVI/+ymQCuZReTDSxQyEWebNEpj1k/dCR5h1CmaJ2ALzcQWzljBrFp6HZnEpopZdIsyXy2CuSZirpstQzFsqartn33kAzHTlootUKWG+BA0vh9Gt/Qm0J2F2pztXluPMcmhKzpxSMF9G1Y2EWQ5NEWY5NCXHmb3uh3naAfhN2fnrMGsJs2M4p4LZpWYWgF1VHv4qYHb0Zv/wNWF+eZT6eRqZaUSm2O3Vvh3iNITZvzZqDeqKsHWbUTejBB4ZWfDJyERgeh4iM/OgI8x6OquM2TZm58HMOjqWwNrknGeCnCBAC8z5BahPNVDKQ8OiTDQizE/kp8CclQ/vbftQa9V+VF94UKnW1BKEDNqCkDbLENae9TLr57hmK6Eh2AJziADtgDmCMMu0QTJlkHOWESfM0putGSqdYHKiRToMIzNgeDoTxmezYX4hF+aX8gh0PkyvFsL4erGC2aBgJshTD0A77RB0049AJxF75gno5pyChjDHsF6OXnIJkYQ5jDVz0Npr6reVBeYqhPnRbMJMuWXfJsy34ScnVhRJzHbCXEqdh6G4FJriywgvvkKYr8CDcbsGYa6Udw2POgaNVEoj3FuuqAkKqq+1H2d2Dhq5H2Zfwuz7KzBXnGjxh1ruhflHOrOcAjm8X38Fcz2zGT3btYVNE6Mm9Ks5uBtC121BnYwdBDoL3oQ5gDCHEeZoghxDkDWM1VqCrOPaSHjNdF9rHuM3FU94EwsKkEQlK+WhPmFuWGSH2ZRdCK/th1Br9UFUW3QA1RYfRO0ZexD8dBoCO69UMGsIs3Lmh8CsnPm/CvNrhHnsw2HWEWYtYY6ZfxbRjNhRhDli+SWE0pkDCbMXYXbfxho37Sb+TJArOWHOFZhvE2Y6c8l1wiwR+wJMxecI8wXCTHd3wlxkh/mx3KvcIXCdeQ2Pp9KZN9OZN9CZXWBWwzkJs8/c0/CbeRIB7xHmdx0wv1mEqNF5iJIphQmzTOgnkxNUwPyHW+6H+Z8K5if7C8xmwmyywxwjMNeB++DuCFm3DbUzdqF2ejbjdhb80vMRxKgdSmcOY8wOZ90cSZCjuNYQYF1eNgyUibLks54mwHGF+YgvKkBCUR6SCHN9OnMjwmzMLoZnyjHUXHMI1ZYcQFWq9tz9CGIdG9R3A0I7rFDnNBtYM0cS7N8Ds8TsX4T5Re54CLOZMJsUzNRDYNbOOgGNA+Yowhy5lBAuv6xgDmDM9tp0A26EuRJh/lPWbda7tx0w3yLMtwjzDcJ8jQBLxD5PmM9ym3G9hHU33Vlg9iy6rmB+NOcK/pxFoAXmlKuopGC+Oza7lmNstveCs/AlzDI2W2D2E5jf3oHQNwsR9QphvmemEc/fBLOrystfBczOmP1PwvyKA2a6cjJh7lEGc124D+pFmFNQK2MPaqbn0qFz4J1ewLidC9/MdPhlym83M3pLT3duNsLzCXZ+NmIoDaUryIaxkPUpITZTliLW1UVZSGLdLBMb6LLp+Kkn4L7uCKotP4Qqyw7BnVHbf/JOBLPGjei0WnWCRbBeDu30EJh7O2bm7LcJGgfMqvNLamY100gqDC4wm5/LgeUFvhcnzKPtMBvFmcffBzPrZe2MuzBHzz+HSNbL4VIvK5ivEObrhPlmGcyPZN1ivSvOfOs+mK+qaC2ubCo+A0PJOcJcytsuOWI2YZaInX2VMBPk9OuovP0qqrBerraerrymVJ0CKYel5Fct7sJ8QsGsZuecvAPhbxQi2gXmSjV94O2Auaxmfshx5vII9P9NmIXj+0aACcxvEObhTpgtrjB7EOY+CF6XjpoZ++GWkU+o8+CRXsz6OQ91CbMH5ZmVAe/sTPgT5iACHJyfhbCCLIRTUYVZiCnKhraYjl2Sx8acS6CzEc/bZCy3JnsXaqWdQo0NhHklYV55GNWXHob3rAMIHZMPTY8NCO+4CgGM3IGdHw6zzMxph5nu7IRZubPMm02YR9hhNj5jh9nqgNlCmC2E2UyYTQ+AWUuYNTOOQ0OYYwhO1ILziCDMYRKx5bDUyquE+QY8CXONbYzXafKrFLdY795CjTKYb7rALBH7LHUa+pKzhPkCwhi1/QizDBqpmk1XzryCP6VfxWOprJ9ZL1deX4pqay6gxsrzqLnsHGovPou6Mi77A/thKd/pMs3uUfhP3Y+Atxwwj7LDbBo0G4/fD3PFCLA/wPIAmH/8F5159Gg8NWCgmp2znpU1s7MDzM8L1fv3RdDaTNRIO4DqaYVwoyvXSt9BqAvgnpGBmpmZqJWVhbqM3J452fDJy4JvPt2aCixIR3BhBhtrFiJKshG5gzV2SQ6MBNtGx5aRYjE5dPzMM3DbcpQxkjCvOYIaq4+j7uKjCJ28C9aBaQjvsgZe3VbCv+uDYXZOs/tfgnnMw2GOmXkcMbNPIGreaUQsPI+wJaUIWXEJwXTlwFVX4bv+BupuvoXq2+0w/zmTMZswV8u5hTq5NwnzDcJ8jZ/9iorWRrqyseQ0dDtYf++4gGBGb+/Cy6iZR3CzL+PP6Zfxp9QreGz7FVTadAmV115A1VXnUWP5ObgvOYvaC0/DY/5peM09BR/uaPymHUXA1CMImLJPwRwx1u7MkayZjYT50Vo+8PKsgPmPtTwQ5n9h3OhXXWC22GGWQ1M+3qjaqw+CVmej2vYDqJxShKqphaiRuoNwF6F6eg6VixqM3O506lqZdOscOjflmZcH7/x8+BYUIKCoiA22GCE7igl1IbSFdGfG8XhVa++GWw6deftRujPr5nWEes1xuK04Snfej7DR+fAbtAm+3ejODpBDXA5NKZjvcWaXmC36NZhfyoeVMFscMBtdYNYQZs2Mo4gmzFFzTiCCThi26DxClpYiaOUlBKy+Ar81V+G18QZqbyG82wlx2m3WunaYZS7se2G+7ICZ9TJh1u5gZCfMgYTZI/8SauQQ3KzLeDSNSrmCx7cRbsJcha5cja7sRphrEuY6hNlTXJmxXwaLiCsHTTmCwLf3IWjSDkQKzHRmgdkweDb+VNsHnhUw/8GWB8D80zf/wvhXx2DEwEEE2XrvoBEvb1Tuxpi9Kg9Vthxg4ypiDVfIRrsTVVNKUCWlUKlqahGqpRYruaXvYiTfg1rZ+1A7Zz/q5h2EZ/4heBcchl/xQQQV7UFMQRFMuXmwZeUhnDDXKCC86UfhvoWuvOEoqq09jqqrj6HyisN4ZO5OVB9Fd+6+jiATYgfID4rZrh1gZTCr35qyw2wcmUmYsx4Ks1lgnrDbDvM7hPm9Q4ghzFGzjiOSMIfTDUMWn0fQ8lL4r7oEnzVX4Ln+/2vvLaDjuvJsb1lQJGaGUoFYpjDaTswMie2Aw4kDduKYmSlmZpAMsmSSxczMYHaSTvfMW9+befPNvGmYpune3/7fqpJlR6GZnm+NMrpee91SqVxVqrq/s/f/3HPO/QpeF76B28Vf8bP4IZi/ZLS+pdTKSsQuvQkDfw4qvM3H3WEsvwcNI7YTYXaiK6svfqmcX9YlWSK2GyO2h0Tsgx3wJ8zKKiPbLNeZCt/QiPD11QhfUwrz0kJEE2YjYY5/ezfsvALg49cH889r6xHm3yvrZstVIJ8ZPFiBWYZzKjD7BkA1aSbCT+Yz7tXCIa0YjhcLeZCVQX2pDKpLJdxTl0WlinRXKhnHq+nWNXDLqoNHTgMP1EY6TxP8igh0URVMBcWIzy3AoMwCRIozFzXysY1wF3e+0AzduRZozjTD6UwT7E5UQ7s2F+FvpiJsOiHuBrOM/vopMEvnVwJh7m/tALP1ZnfVzMp5ZsK8oQaxhDmaMEftbIJpdwuMe1uhJ8zhhDmUMAcl3YXfmS/hff4reKZKT3Y3mDO4z7TCnEeYCwTmX7A+/grxxbcJ8k1G7JswS8QuugW/vFtwz2ZdnHkH6ox7UKd/ZVli9+JXytpfLqctkyukXvY6fF2J2AGM/HLRONsVIPXrG6FfVw09YY7qBnOcFWbvPph/ZlsPMP/1D7/H6sVL8OGbbykwPzDRwjcQqvGvIOJEIVTn6uBwoUQB2imtAqq0cu5LKUJ9sbxLmsuVPKiroCXQuoxauGTVwy27AR4E2quQDl3EAy5f5kYXYUBGMfS5hJmO7U7oPa42w/ViC5wv0JnPNUN1vhl2Z+ug3VGMwLlXEPz62S6QfwrMymVdCXM8YY7/JAuJc3MsIFvPM9tOTSUKzGsqEEeYY7bUImpbPcyE2UiYDQIzHTHs6E2EnLyNQMLse/ZLeKZ8BY+0b5TOLxvMjoRZZYXZkzAH2mAu/pow3yHMty2npKiggpvwymE9nHULmgzCzHpZc+UraC8R5NSv4HL2LlxtHV+M2N6HOpWOr6A9HQjd2YbwrS2I2NiEyHUNiFxbDcPqUkQvKURMd5i9+2D++W0Pw/wXOvP3wewTDM2416A/XkyYGwhzGWEuhWNaFZxSK+BEuJ1SCTSlEqgpjQB9qYIHZOV9oDPrCHQ9PPPr4FfAKJhfjuicMvTPKIM+pwouRfw9YXa71sgIT2dOa2XcpjuntMDuQiNUh6vguSYPgR+kKQD/FJjjCXPCe+n/AZjrCHOD4sz/EZidMn8JLSO2B2EOeADme4grvouokrt05dvwz2V0zrwJ3bVbUKXfhtPVu1AxYmvFlS98qazIKWOxPY7RlRmxbUsFScQO3U6YtzQjghHbsLYBhjVVMK6yrJkd+7mlZrbB7OX/bZiVU1N9Y7N76dYdZtEPwewdAu2YWdAfLYEquRH2KeWwTyXQqVUEuwKO5xm7Uwi0SMC+QKj5e4FaTaDV4tJXLS7tTKg9WD/75NcgNK8S5pxKJLK2jmBd7ULHdiXMrhmNfGwztJdb4X6hlc7UCjvedjzTCOcDlQian6GAK1d/7A6zrQOsJ5gTBOb3e4a5fw8wx3eDOXq7wNz8PTDfgydjdo8wZ/0Smtxv4M56OaDQBvMvEF/0FWKVIZx3EFJwCz7ZrIUzbvJzugWnK7fheOUunC7Sna3XZXZLut3tdFSn0vHlLx1fu9oQuq3VErHpyoY19TCuZgmzgqlnUQFi5+X+IMyvvfSScnmaPmfujVsPMP+7rWbu1gE2c6K1A4ww68a8Dv1hQnuqDv3OlqLf+RLYn6+gyuFwrpgqIdRUCh2aUtG9nUSpjOEXGccJtIqxW3O1mu5bB++8GgTn0UEIc8K1SoRnsb4uqIMLndvlWgM015oIRQvcU1vgQoe2u9oGe0ZvpzMNCFtbpFxLyubOXTDPOIeYH4A57sNriPs4E3GEOWFuNhI/zUXiZzLRQoZzFll6slfI4gQViN1Yg2hxZsJs3vVtmINZMwecvgOfM/fgcf5LvtdfwPniL9l4/aoLZkfCrM77Bm6E2V+B+RtC/A1h/ppQf4WIwjsIyGXEzrrBv/tBmFWEWbmKxbm7cDt9W3FlBWa6sq+s+bW7TRn1JcvrRlhhNq4mzKsqYWKDFLuQMPNvk/PMSgeYwPxQzJbrTN2HmSD3wdzLtu4wW2O2XDRs1aJFPfdmE2bn0YT5UBEcTtTCLrmYNWwRoaZDn6VDn7XCrIjxm3JKKSPYFGEWOV2shNOlSh7oVYzadfDKrUUAQdbnViEqsxoh2XRmxm+prQVmNWFWs3Z2S20mIC3od7UV/a60Euhm1omsCT/NQOiscwifkYyI6ckwzDiDqIdhlgvHScQWSQeYFeZYgXlOFuJ5kCd8lkNZYV5sgVnmMwvMMYQ5amsdzD8I8114nPuS71Vg/oZ/4y8J868IswwakQUGvoErI7ZfoQwa+SViKXFnE2EOLbgLv5xbSsR2Tr8Ps9NlOnPqXWXUl8tZRuxTfIxE7MOd8D7QAd89bfDf2apckzlsazP0Ui8zYhtX1cG0kjAvK0bsgnzE0pWjBOa3eu4Ae3nCRLz+8suor6hQjoM+mHvl9hDMv/sdVnUbNPIM1TVrijC7EOaI/QXod7QSdqcKYZdUQKhLYX+mFA5nCDPlSKgtQDNqnyfUhNnBCrTSWUagRY5SU18qgTdr5aC8agTSpb3zWFPnEWQrzNp0ceZmuBBeHWF2JMiOjNqqS63wvXYbzgcroP3oHALeOIPAV5MR/oolZneHWa4CGf+mBWalA+yDdMRaYY4lzHE80OMJczxhTmBt2d92jnllGeLXVj4Ac9TuZuW0lHF/GyIOsE49cgPBx289ALPrha9Y538F9ZVfwDHdcgVHe1n3mjA7E2Sfol8hslBmTf0KEeXfIKj0SwTk8/8zYrtn3IDu6k02YLf5/++w8bvNz45gn70FbZJ1oMjhDnjwtb32tcFnVwv8tjUpA0VCNzYiYl09IlfVwri8BsZlZTBJ5xf/Jvk7zUwh8W/sgp2nP7x8fTBm6DBlTPagmFhMJ9SzBObKSsuxIMcEJQB3V2/41weztTf7LwLzAsL8+iw8NUBgHqDArMyaIsyuo15H+L582B2ugN0J7k/lwe50MfolMW7TqRWYzxBkyuGsxaEdCLTA7HDB6s7SWUY5Sj2dWgzXy8Xwza2Ed2Eta0q6cu59Z9amNxLmJmgvEupLzXQqRuxLLWwMWvi7Dj4/H7MuC16fpMLv9WSEEWbjK+cQ9ZoFZtslXRNsML97H+aYTzIRMzdLca04gZl1ZbzAbOv8WlWGuB+C+fANBBFmf8ZfC8z3CPOXCsyqy1/DIf1r2GdSObxNV9YJzMV/B2PR3yOK++DyX/Dnu/DJvQ3PrFtwTb8BLWFWEWbVZTpz2i0mnxtwSLoB9cnr0B3rhOuhdrjz9T2ZELy2N8F3SwMCNzUgZH09ItbUIXIFQV7K1LKkFIaF+Yjm3xf9UQbMssjDrJ2wc/eDp7c3Rg8Zimljx2FgdDReHm+Bua6Szmx15d4C78P/+mC2wiyzplZ+16wpLyvMe3Jhd6AMdke5P5FD0aFPCdDFsBclE2SRAnQZ7M9R50Wsqy9UdMlR4L5QwrpaRouVw5u1snteHXSM2tJB5pxexwObUftyA51Y1Eg1EeRmiy40wjmF9fRRPn5FBvxmMWrPPAP9a+dgnnXhO2GOJcwxH11DNGGOJszRn2Yh5rNs1pU5iJsvV7MgzKyXE1aXIXZdJaI3WWHewZhNmOUc88Mw+zH+eiffgftZ1rYprHFTv2TD8xVh/kqBuR9htmetrGW09ikRmP8Xogl0YOnX8CggyNm36Mq34Hz1BhsvwsyIrbp0i5/TTfQ7cx0Op69DfaITuiMdcD3QBne+B09Gfq9tjfDdXI/AjfUIWVuHCLpy5LJqGBdXwbCoGAb+PcrfODsdZjZg8a/tgJ2rLzy9vDDq+SGYOmYsBkRFEebxeF1qZlvM7psC2Ru3B2H+s0yB/K5ZU16hcBs5C+G76cb7SunOhPkoYT5GmE8UKbG736ki2NOpRf1kT6j7iaSzjC7dj1BbxGieQp0vYgzP50FcCg/Wz9IppsukrlFX63lg1yswqwmzmiCr6c42OZ1vgEsqD+pUOtXeCuXcs9TPkW8SZJkh1S1mS81sWZ3TAnP3mB1rdecHYS5Tpj/GrqsizLVWZ24kzDJgpI0wtxPmDsJ80wrzbcJ81wrzlz3C3I8waxixvUv+XoFZLknjV8gaO+823OjKLtcYpQXkyzfhcPEW7FNv8HO6rsDs+B0we39hgTloQz1CCbPeCrOJMBsXEubPcy2NFv/mKBko0wPM/QVmxmypmS3OLMfDfXfurt7wr68DzAbz982aIszuI95AxC7G67105kN56HckF/ZHitDvGGE+wVr6JIHurtP8Hd1agLajU9sRajvGb7tzvI81tf15RvOUIqjTSuAqM7EYrzXSi53OPWFW22C+3EgR5ssEmVFbpE1rYS3dBu1l1o8pbTBsrUTo7EswvWcZf22DWZbZlYUJot+h3rPALB1gtlNT0gkmdfN9mKUnu5wxu4IwVyN6Yx1hpisz0pp3E+Q97TDu6yDMnYT5FmG+Q5jvwDvpHmH+skeY7QizncDMOtmr5H/BUPi/YMz7Jbzz+PicO9DRlSVeqy/fgiNBtqMj2527zs/qu2H2ssLst6kewYQ5TCL2yloYGLHNiywwG60wx9hgftUCs5enBeYphDmRMEtv9uvTBWZrzSyS46Kb+mD+77z9VJg9w+D+ImHeQYh3l8P+QD4cDubBSXq3CbTdcXFoAkyXFtmd5P4U4T1NJVHJ1BmrFKDFrQVo1tYXSgllNZxtdTLjteg+yN+GWXO5VQHZ+RJhvsDIe6wZwcvzlJo44a3LXTBLb7YNZrmcaywjZwzrx5g5PMgJsUTsmHk5iPk8R+n5jV9agviV5YhbXYFowmzeVAfTFw0w7mgiyK2I3NuOyP0dCD/YieAjtxBImH0Js9f3wGxzZjWd2bP47xGZ/78QmfUN4zUjedYdNl7S4cUa+dJtOjJBpiPbne3kZ9XJdHMdToRZc7wTzoTZjTB77G2B907Wy1slYtchdH0tIlazVl7B97uEpcHCcpgXFME8L9eSQN5PR/T719D/le2wd/GFj5f3t2HuwZn7YO4t238AZrdhjNlf5MJhF+vevflw2pcH9T5G5UPFjNwE+Cgd95hNjNcnygk4dZJOfooSqJO4TxZZwO53jg3D+QqoUqsZMwnxFen0IsSiLohtsoAsUl1po9rhQpg9GLV9LhCu3TV02GyY30hVpj/aZk1Fv0UJzO9ftdSPczJgZq1smsfHEuKo+bmKYhYVIG5ZCeIIc8yaSkStZ/25uQ4GwmwgPJGEOYIxO5wxO4QwBx65Cf/jt+FDmD2T7sLtjFw7+Z5y2VWZ5eRw9Sv0y6CyCbOstFnwS7gX/h3Ccv4OoelyxYu7lpFe0nN9+S4c0u4wWt9QILZL7mCq6YDDqU6o6MraI+1wPSiu3MKI3QSf7Q3wZwkQxAYnjO81cmUFzMvKEbWoFDHzSxD9eQH/RqaNDzMQ9y7/7neuov+MbXB08YOvl88DMCuDRl5+CbV9p6Z66faTYQ6Hy5DXEboxG047K+G4iyDvzoVudxG0jN2q/VVdUu+vhvoAdYg/H66C02E+/gh1jI3A8Uo4nKiE/UnqFJVUBcezNXBKqWXcJsBKffxQp5eiZtaTrV1yIshOVzvo0B3QXeqAy+XrcD/XBre9lfBdnIUourHprTSY3r4I0zvUu/x59lWYP8mA6dNMRtBsGBfkwLQgly6WD7P0/C4uROwKwsCIHbWWtecG1qBb6qHf1gT9zhZE7CHIdOYwOnMwYQ4gzL6E2fvkHXjQmV0VmGWq4peMy3Tmq7+AQwaV9QvlSo4yCsw195fwpCu7Xb0H9dU7sJeOrot34Jh2F/Yp/Dn5BgHugNPxdmiPsrE6zMbqQDu82Yj47WpFwLZmBG1pQDAdOXhtFUKZIPRsfIzLShG1WEAuYtlQyMSRj6i5OYifnaGcXzezUes//QuoXPzhR5hHPvc8Jo8egwSzuWsEWG1FOQ+HPph73/aTYY6A7tnXEbIuC5rthHR7HrQ7cuGyvQguOyug3VXXJd3ueor7fbXQ7qPjWuFWHaqG05FqOB6tUeRwnDrF28l1BLoOqgsEmECLnC5yf7Fb7/VFuvFlurFVTld4wF+la12xirflZ/tLbfDaw5qRwEa8dxGGt9MQRZCjCbL+E+qzDBjnZ8NAkA2LcmFcRJAXFcJMkKOWFCF6ZRmiCIh5bQ0MBCaC9XLE9mZE7GpDmEwzZM0cIqtgsmb2O3ID3sdvwYMwu52+C+fku9CeuwcVo7ZDGmG+IqenCDKBdsokzITaOfsb6Bi9na7QiS/fhh1jtX3qHTik8Oczt+F46gbUx9hAHWpXIrWcT/ZjIxKwoxXBXzQjbFMjwlkjR/D9hbPRiVhRBgPThHlxMWIYreM+K0DCnHzEzGXamJPNsuOaMo/byLKj/0tboSbM/t6+D8A8ddy4vokWvXr7yTDroX36NYSszoTui2potubBmZHbbWsRXLdXQLeT8FrlvKsezgTaeS9/3itA10Czvwbqg7V06loCXafI8WitMprMMameMBPgFDpxKvdpjYpUaYQ4lXVyGqP1xVY6dnuXVHTkLpCtEpgd0zvhncQ4vKUCkQQ3ls6cSJdO+DAdYfMzELIoC5ELrSAvzoNpMeMoIRZFLStGFGE2E2bjuhroN9YjfCvh2d6CcJliSJCDZWLD/k7405l9CLMnYXZjzHZhzNadscF87wGYlfW7CLSWEAvIWlkG6BIjddot1sc3YH+OEJ9h1D59G5pjN+B8uJMgd8BjXzu8xJF3W65SEbKVMG+UucpsZJgcxJEFZNMSuWoFQZ5fiPhP89H/E9bKc6TzKwvxrJXj3yLMr6ag/7Qt0LoGKEvtjnzuuT6YfzbbwzAzXv0QzLqnGbNXZcF1aw2cN+fDbUsePLcUw+0LwryjtkvOO6xQizvvJsx7CPNewkygVQcI8yGLHAm2/TECfZowJxPgc01wutAER6ucLjQTcKsutMApla6cRpgvEmRGaycr1E4iwuzI2O2QTgguELpjTYhaV4r+H2dgAGvl/ozXYQszEbwkC/oumPO7wUyQCUYUATGvqYJBOpU2NSjDJMO205V3ddCVOxC0l668/zr8Dt6A19Gb8DhxG66n6MqEWcuYrekO8+Wv+Z4IM4FWE2gNpRWwWUtLfWyXcpP18XWWGjehOnULGjYMLodZLjDGe9D9vdhweO1uhd/OVgR9QZg3NyFsA9/TulqEr66EfnkpDHzfkiyiF7Den5ePeDpy4sc5iP04G1HSYy9TPt+4BMPM8+g/ZTO0dOYAL1+MeOZZTBo1CvEmEyaPHYuZU6eiurQU+NOf+mDudVt3mEWE+U/fB7NHJJyfmoWwFVlw21wLt40F8NyUD+9NJXCnC2rp1oq2VUO3rQa67RSB1u6shWYXQd7NmL2XokurCLXTAUbsgzWwF3c+SZiTGunOzXA83wrHlFbGzhY4nG/hzxbJbQfe73iBETu1nTUmdZG3CbTIkUA7sI62v9rGGprx9FwrjHzdBAI7YE4m+s/NQgRdOWRJthVmcWXCvIQRW0BeSpCXlTFmVxJmRmxxv02EZ2srYWadvKuTMF8nzNcRcOAGfA/dhOfR23A/cRcup+5Bl/wlNGdkwb0vFZgdUwnsJTrz1W8I9DcsA34JTfo3ilSXv0K/C4zYZ2/A7nQn08l1OvJNgnyTIHeyTGiHJ2O9FyH22tECX1nUfksz6+RG5Xxy2JpqhLHR0fM9GwiyaWEBoj6XMdh5iPskhykkCzEfZSFKOr9kCOusNBhmnEPipE3Q6PwQ4OmN4U8/g4kjRyLOaMSk0aMxY/JkVJUU469//EMfzL1u+w/CHL6MMG+ogvv6fHhuyIPXBjrzpnJotlR1SbvVArZuO115B115RzXUuwiyFWgnurQToXYk1PZHqOOM3KcYr5PpwOcEXsIs8PK2gwB+1npbAZ0A03kd6dIOafyZQDsS3u4wa/mzJ6EPP9IA08ZSRC+mU83P4oFPV17MetnqymYBeSnj9VJx5VJErahA1KpqmNbWIlLq0s3NCN1KV97eQZivKzAHEmb/Azfho8As84vpyqfvQSswnyXM579kkrDA7EiYHa98w9QgAH8DLfc6GbOdetcCclIn7E4wXRzthPMhceTrBLkDvjvb4Lu9lRCLWuDHdBC4sQnB6xpY5tQyHVUilLVyBOtkAx3ZND8fUZ/lKnVy7MdZiJudiegPM2FmvRwrp+leS0Xk9LOEeSM0Wl/4e3wHzMV9MPfO7SfC3M/TAOcnCfPSDLitrYTHOsK8Lhee6wvp0mXQbK7sklYBukpxaHFq6TBT76iCSgGazszYrWYt7bSvFv0OVVuiNt3ZKakJaoLrRFcVeAViR1kySPYiwuwkItDfBbODFWbvVEbi5BYE76+im+XBsDQbxoUZjKTZdGRrrdwFcgmiCYfFlathpCtHbmxQJvuHftGGUCvMwYQ5YB8jNmH2Jswex+7A9eR9mNU9wGwDWX3xF9Bx73KZMJ+nKwvIpzrQ7yiTxKEOxZE92VD47GxHAGN94BetCGQq8CfIAWxUgjY0ImRtPUJW1SCE7zOUEVvPOtlIRzbNy1MuPxMzh6Ijx32QgajZGTB9kI6Yty4h5tULD8CsODNj9kTG7DiJ2WPGYOaUKaguKQH++Mc+mHvnZoW5W838XcM5BWYdnTl08TW4rCqDx5pceKzNgfu6ArisL4F2IyGmdJuozQRZ1BW96djbCfVOSonc1B7CTId2OFANh8N06mP1UJ9sIhStrD3bCAbr4zMEl3I8SxFwWwSXqC0wO6aJLHFbgHa43KY4syOlSm+DK+/zorNH8HlDNhcxYmcS6lyYlhKApYVKh5d5eQnMBNm0qgImgmxgPSquHMn6NIIwCcwhhDmEMTuQMPvtZcQmzJ6HbsGNMduFMOuSWCsns1ZmzaxSYCbIqQSZAKsvsVbmXsOfVWfvwPH0TeoGGy/WysdZ6x9uh4vUyHs74c3X8GekD+LrBhPgEHFjRY0IXl+P4DW1CCbIIXy/oXzvkYzXpnm5MH+Wo0xxjPmE8ZrROoaOLCO+vhtmH4x8VjrARiPBZMYUgXnyFMbsEvz1T/dhFoC7qzf864PZ2pv9/RMtLDCHLLwKZwLgsSqHQGfDdU0enNcWQ7u+Arr1BJkR3HmjVVsYta2RWxxay7itJcwiAdqJDu0k9bPSy13PurEJzqda4ZzUzhq0nYAI0ISTYDt8C2bWytba2UGgvkQ3v9yqwGyXQWXz56wO6NI7EX7tDkKO1DGm5iNieR6My1lnUuaVxYS4DMbVlcoyO5HSg02Q9ZsaEUmgIsSVqeAddHmCFrCHIBNmH8LsQZhdCbMzYdYSZjVhdlJgJsgKzL+AKs0Cso4gawm5nHayO8z3eqyTjRd1pAOagx1w29vBGpnxmq8TuK2dDU8LQjewXl/XiIj10uFFkBn9g1ZXIWhFOYL5+YeyMTLI+XGCrMyMkhFtMg77w2uI/uAqzLPTvxPmQGXQyPOWsdnmKEwdfR/mvwjMfRMteuP242Hu52W0wDz/CnRLiuC5kjCvyoLL6lzo1hRBt44wr6uEM4F2sQItLq21Rm/1VooOraZDq1lHqwi0kwAtnWLSy02gtaxxnY83w/V0G1wItNYKs5MCNF2aQHfFbAHaCrXA7ERXdrxC6NPbYZdJ5RB0wux8rRMRGXcRnXITRqaBkDUEelUB9KsKEbma7ramDHqWDRHrqxGxsQ5hm+oZr5ugZ8wN30ZXJlxdMIsr72fEJszuhNnl2G3oCLPNlR0F5nNfKUCrLnwNNaUlyDrZn+PvT1pgdiDEArLqMGHe3w5X1skKzHTlAHHlTc0IW89ksLYR+tWs3VfXIVRxZcK8nDCzLAhlvW/4nPGajhw9JwvRn2Qg+mOJ1+mIIswmyigj3mRseo8w3581JftXplh6s//65z/xmOiDuRdu34a5e8z+FsysmUM+vwztwnx4LMuC+/IMuBBqLeFQryqFdnUZwS6nUwvYFdBuqIBmYwXUos0U62j1F6yd6dIqAu3E2K3aQ+2jUx+oheZQPZyPNMHlRCtcThNmAq1KssDsRHd2sgGdQlBFSkeYwCynqHhbYL7Wjn5Z92F2Icz6zHsYnPUrJCZdR+D6AtaeBQhdV0RgSqhyhLHxCdtUi7At9Qjd0oiwLxjN5XQU43WwxF5xzN2yeN5NBWavgzfhdvgWnAmz9uQdvse7cEyWQR93+R4Zs6VHm1ITai1dWiO3k27Tka+j3yG+R8rpUDvUB5k+9rIc2N0Gzx3t8GEDIvVxMOtjxZVXN8Cwqg76lXxvrJWDl1cgcGkpgpcUs9wpgOGzXEQxWiszo2Ra54cC8hVEvXcFJoJs5D5Gxqa/kqLAnECY1QrMvl3zmQfwu506ljDLqamy+zD3xezetAnHPQwa+a6a2Z4wuzzBmnneZegY7zyWZMB9aTqcl2VCw+iqWl4E1YpiqCnNyhIL3OvKoSEsapEVaM0WOrW4tEDN2O20m9rHmH2gjgd3A4FuhvYY6+aTPNBP0b0ItSMjtyNd2vEM92ep8wSYsqdDO0jUlvPOcq75agccr3VYYeZ9WZ1wvXYd+ox7eDT37/H45a8RxdcI3FBIFSFwYwmCNpVTdLwtdL6tDZbLu2xrUU5HhYgj76Aj75R6+Qb891lhPnQbbkfoyoRZffI2nAizA2G2J8wOVoe2iPcRYvtTt+Bw/AbrY0ZrOrHjfv4tlNO+Nmj3EOadhPmLFvgwXgcwXgevrSe8dOQVMqWxBhHLqhCynO9xaRkCFxUjiLVy6HxZPpcRW2CmI8fIggt05ej3BebLMBNks0z5tMH88n2YA7x/AOa+DrBetn0HzN/Vm+3gaYTb47MQ/tlluMzPh+eia/BYfBUuhFqzNBdOrOFUy4qgJtQaG9R0afXacqhEBFolQG+yQK0i0E6M3Y50ZyelZ5sw7yfMB5qgOdzM+rkNGjltQ6hVdGgnSoFagLbC7CDunEqIu8HskCEwd3TB7JZxnTXzLQzI+gpPZX6D/slSlxbBZ1MhvDeXwpfvxW9LDfy+qIX/tnoEbGtC4HZG3Z0EmRALyP67riuu7EeQfQ7cgudhC8za47f5/ui4p+8Q2jvol3xHgbpLch9Btj9xEw5Hr7OU6IR6n8AsYgkhMO9uhdv2FnhtbYbvpiYEsEYOXsNYTTeOWF6DyKWs5ZdWImxpBUKWlCF4UQlCFhQg/PNcmObIKiJWV5bZYIzWUe9eVoavRhHkqHcI86z7zhxPmJ1092GeSpj787udYhs00gdzL91+KsweBrg9+hr0cy7C/bM8+MxPh9eCK3BdnAHtkhyoCLNaRKA1ywmyaHUp1JRqTSmc1pbBaUM5nDZSdEMnQuS4tQIO2yqh2k2Q99ZDs68Bun2N0BJo7eEWaI+2QnOcUJ8i0KyjnRi5HaV+PmeDmU6cRre7REhkSGd6JxwzO2Gf3Yl+uQJzO9wyOxBKwGMzbuDJnK/x6OVbiDhcRifMh/uWcnhsrebtOnhvr4HPjlr47myG3652+O/uoDrhy1rZd7etF/sWI/YteDBiux65xQRxy+LMhFnAFaAlbjvKnnI4RVc+SZCP3YAjXVl1oIN/J0EmxBZnZgLZ1QyPbc3w3tpImNmYrGNCYKQOXcEano5sWFJJVUC/uBzhi0oRuqAYYfMLECG92J9kW3qvxZUJcgyjtcBsfucSxf3blxHzeiqiZ5yHnjDHTd4IR2df+HlbOsBss6b6YO7t20+E2dE9Eu6DXoXxozR4fZID/0+vwGfeJbgtSIfr/Gy4f87ozYPMY0EhPBcWWbS0BB6s8dyXUcupleVwX0WtroD72kq4rauEqwxA2VoH9+0NcNvZCJfdjXDe2wTd/mboDrZAd7gVOgH6RBvUhFpxaAVmuvAFwnyRMF+WsdnX4ZR+HQ6Z12FPR+6XQ8Dp0O6ZjMsZ7YhmLf1I5k08RqeOPV+DgP0lfE2+Bzqy27YGeDAheO6ugdfuFnjvkVlKnYq89lyH115q3w14HmCtfOAGXA/dhPPhm2xsbvF90Z1P3YGTiFBL/Sx7R4LscNziyDaQNQRZx/rYeVcro3Ur3He0EOQmunIjI3Y9/DbUInBNNUJWViF8WSX0dGQDITYuKodhYRki55dAP68Y+s/yEcmIHfVRFiHOsCyFRJBjGK2jBOS3L8L8FvdvWnqyo6afU2COJcwyn9mXMHedmjKb+2Du9dtPhdlVD48BryDq/VT4zc5G8EeX4U+Xdpt3FV6fZiLo4zwEf1KAkDms5+YWIvTTIoR+zkhIBfMgDF5QipBFZQhZXIHQxZUIXVKF4KXVCFpZwwNYJtnTmVivuu9ohNuuJrjuaYbLvha4HGiFy+E26I4ykjJ2q0/Tcc/SgVPowIzYDoTZkTA7XaH7XSXIhLUfge5Hd9YQZg8F5jZEZbZhAG8/ktWKQRl1iEppgN/BZkJVDxd5TdbuHvuqlfnC7ntlEIdlRJbIjXI9cJ3v5TqcD3TC+eAN6A7dgPbITWU8tebknfs6dVeJ3k4nWCd3A1m7rwPOBNl1Ryt8trYikPVx8EYZ2SVL//C9bKyD/3p+HqtldFcFIpYQYEJsJMSmBWUwzy+F+bMSmOcWwTgnn2K9/KEsPHANce+nKwsvxEjEFpDfTIOZtXLU62mImZkC88tnEEGYY6ZsVFYa8fZ+cNBIH8y9ffupMLvo4Zk4A9HvXkDAe1kIm32JAKfB+9Or8J1DmD/KQ8jH+Qgl0KFzCLMATRcJ/rwYQVTwAgLNAzOEB2jIokrWfwKznGohzKtrlVrRb0sTPLc3wWNHM9x3tcBtD+tJRlG3gzKvlzAft8DsdJYQKzATlot05Ms3FJgdCLMDYbZX3Pk6tHRoT0btkKw2mLNa0D+rGYOyGgl0AwZe64T5nHRosQHZ1QgPxnwP1uzu+/l6crqI0Irc9lv2LgIxpSPQ2oPUIYow6xi1dSfudElLh1bRrZ3ElaXDS+pkPp9ujzgyYWY9Lh1dgQRZeq2D1tfDn44cQJADmVZCVlUgbBldeHEpQS6FiTKzIYzmZxnNBjKan6/5E9bLHzNizybM76Ur18+KZayW60/LqaioN1IRNSsNUa+mImb6eZinybri92H2IswvPv0MJowYiViDwTICrA/mXrw9DPMPzJpyco6AV/wMxLydgqB3MhHx/iWEzk6D3ydX4P9xBoJm5yD4w1yEEOpQQh3yST6CPy1E0GdFCJxHfU4R6CC6TNDCcgQvqkAQXTqIdWHgSh7MaxkzNzXC+wvWj9IhRAeTyQbuhMBD4DpocWf1SUbtMx2wP88oTZgd0ujIlwgyYbYXmK/xNutjh0y6J2H2ym5HaE4rzNlNSMghxFn1eIS3HyHsA9PvIYzx3XNPIzz3sSE5QFdmLet2gI3HwQ4CLGtucc/bzpSOYHaBTOkYtXWM2rrjt7ukJdBqurUjXdmB/8fJFq/5t7gwWrtta4HPxiYErm9E8Lp6BK1lY7aWjrymEkEsQUKXlyGCpYlhEV2Yn5dpfjGi2BjGEORYpp4Yfr7RHzFiy2SK9xmx371qmUxBkGXhwpg30hA9i3Xya9QrqYh9+RzMU5OVmB1thdnT2wsvPPU0YR7xLZjRB3Mv3HqA+fvGZqt0EfCNm8EDJgXBhFn/3kWEM3IHfHgZgbPTEfx+FkI+yEYII3gowQ75KBdBc/MR8Gk+62tqXgECPi9EIA/OQMbuQDpOIF06aAkP4hUStRkzNzTAl+4skwu86WCePPg9GE1lXq8rAdMdoTMzajsmdaDfuQ7YXaA7XxCgGasvUaybHdJvwvEalXkLzlk34M24LTBH5dKZqcG8/Wh2Gx7Lvo7Hcm4jmnW336F6eLFG99rPeL3PEqsFZAXgQxZpFRFmAfkwI7boCHWUtTPhVRyakh5u9VEmBT7WgY2Qw742qHa3QruzBc5spNxYSvgQ5ACWFkFMJEGrmE5WyWcgI7tKEbaUdfHiEhgXFDNaE2Q2hNFsEGNk9RC6sgLzh9mIpivHSLyW008CM0GOY42sLGIo65/RlWNnpiLupXOI6g6zW88wK6em+qZA9tKtO8yiHmB+ckAiXho7BoOjoqDShsM3ZjoPmPMIfisDEW+nIvydFAS+l0ZdQfC7GQh5LxMh72ci9AOCTagDGQf95+bCT/RpHoEm1AQ6gC4dwIM1QJyaDh28jBFzVS386VS+dGe/L1qUWUPizh4CNJ3NVaKqDLQ4RphPtcPuDJVCqBm3HQi0HeO2HYF2lEu7XKMyb8Ml66YCcxgBjibIA3Jb8UhuOyG+jidEudcxgHE77HQDvPe3wHPvDcJ8kzDfUNxYINY8INbh3WDWEGYNYVYfo2TPn0UqPk5OPznsbYXDnhY47WqGmuWDbmsjXDfxtZhCAlbVIWglHXk5QVZGdVkGg4QtLIJ+QREM8wph+qyQ0ZqaW4Bo1slRbCCj2VBG8/OVBfpiCHKMEq8JMeO1LCscQ0eOee0CYunKcTMuIG7aWZgnJyGCdXPU5A10Zh94ePUMc00fzL106wHmP/72t1g2fz7efe01PNG/P2WBeVCU+T7Mb5xHyJuE+c0LCH/rPCN3KnWZbn0NIQQ6lECHWV36YZj9eoA5kHV0MOvngBXV8Kc7+25k7SznXMWdJWoTZs897aydWXMSZo3AzKhtgbldidsOKVaYL7N+vnILqmu3ocq6A9fsm/DJ6UR4Xhui85oxIK8Jj+a24cncm3iKID+V147H8zoRndYEPzqx5557FmdWYral8dAcvi/t4W6ubIVZgZdOLHISHWGDwoZATj057G6B/c4mOO5ogmpbE7SE2WVjPbzpyP7L2YAtq0TgEpYdS0pZchQjZFERwgly5HwrzJ8SYiqGCSdmjiVeW0DOQDRrZQE55i0CTJCVNcJfT0MsQZbzyrEzCfL0FMRNPUuI5aL0yYievB52Lj7Kutl9MP/stodiNmFeboM5MZFKwLQxozHQbIKTJgw+0S8jbtY5hLxxDRGzUhDxxjm69AUE0xlC3r6GUMIc9m4mwqWDjECH8uAL+TgXwSKCHcKDMoQHZyjdJpTxMWSedI6JO5fzwK6C36pq+Kyrgw/dy0fiKGH2lkn6hNndBvNR1swnGbFZN4szd8FMVxY5Xb5phZnOnH2DMHcgQoG5iTDX4zHun8rtxNN5HXg6vx1PFjB+Z9Yj9BQbD0LszrjtxtrZRWr0Q20PwcyYbYNZXLkbzI6E2EFA5mMkXjvSlR13NsPJ6sjubKQ81zPOs8Hyk7JCOv+WSr8BHZmxOpgghywsQPj8fESy0TOw8TOxEYyeS4j52UV/bKmTFZDpytGslWPkPLKMvX6TELNOjlPidQphPk9XJsgvUVPoyBNPQT81CdET18HO2Ruenp54sRvMcr65C+ZuNbMA3F294V8fzLbe7N8Q5s/n471XrTAnEObRoywwqwXml3jAnEXorGuIfP08xdtvpiLkrcsIFZjfIcxUOIGOoIzv5SgyvE99kAvjh3kwfpQPE2X8uAB6OZVFsOW0VdCScrpVJXzX1LKmpHsxbkvU9iHM3ozZ0jElK1Vqj3YoS88qy9EyXstVHyww36Qzy6VdbkGdcRtOrIddcm7AL+869IQ2Jl9grsbj+XUEuQnP5LdRnXiysB6P5JfDdLEC/ifK4X6wCm4H6aAHWedKrD/c0SXNEcbsLl2/DzMlIPfj/Q6M4zIoxGlXC924EZotjNUsH8JX1CF8eS3CltVYevGXsLxYLCO66MiM1jKqK3RBHiI+z0Xkp9kwzMmC8ZMsmJXlf3JgJshRrJOjCHLUe5bBIcoSwgQ55g1C/Aad+HXG61fPE+ZzhPk84qdRkwnzBCvMEwizzkuBWRYnmDRiJOINRkwbOxavdV8DzDrRoreBLP/6YO6C+TcKzO8S5scTBOZ4TB01EgNMRjiqQ+ETRZhfO4uQ164i8tVziHztDMJnXUDoG5cQ+lY6dQ1hhDpcOsgo07vZiowiAm0i0KbZeTww82Em0JFyKmsuYZ5Pd+aB7b+sAr6ra+BrdWc/wuxLmH32So92m3LRNIFZru5gl2yB2d4GM0Hud/kWNFfvQJt5FyrC7MY4HVBwA5EF7YjNb8SggmrCW0OI6/BsfgueybuBp4rq8HhxKRIyqxB6tgJeRwTmBsIsA1baCCtfz6rvhJnxW3FkAZmurNrTCs32ZjhvaYQbHdl/dR0iltVCv7QGEUuqEbK4kiDLKbpSBeTQBUwqdOSwzwnzZzmInJsFwydsDD/mZygrhhBk0+wMRMk8ZSvIMjhEgVlZI5wQMynFywXzCHLMzLOM2OcQP5WalIyo8SehZ9SOHr8WdlpPeHo8DPO4HmHujf/6YLbC/Kdf/wbL5n2Od155lTAn4PH4OAvMRqM1ZhPmV88geOZlRPKAMbxyBhGvnUfY6xcRMusK4/dVOnU6a+lr0L/Ng/EdusvbPDC5NxBocWijOLTVpSPlNNYcurMStcsQQJj9VllgltrZf1sr/AizXIfYU04ZEWa5RItc3aGfFWYHwuxohdn+6m04p9+FLusu1Ll34FFwC0FFN2EoJMwFDXikqIbwVuE5Qv1cfjOezbuFZ4pq8VRpMQYTcNMlNiAn6/g69XA51KzALLFewwbEoh5gZuSWDi8na53sSJDVOywgu0vCIMgBK2oRSkcOI8hhiwjywnLlFF3wAjkPLyUHG7XPchFGkPV05cg5mTAIyB9l8HO6RpAtCw1EiawgRykgpyGabhz9OiHm9xBHV46VS9rOOKP0YsdPoSbSkcedROQkwjyOMGv6YP6Zbg/C/Ec6sw3mxwjzY4R5ysgR6G80QEWYfVkzx85MQuDLskDcGRjlIuc8eMJevUC3pju/fglhhDqcUEcQagOhFkXKnvHbwFra+J7FpQXoyNm5CP+EjsTaOUROVS1l1F5ZDf+1tfDfKJMeWpSLiQvMsn60DB6RS7RobTATYodzhFmuAnH5NuwJsnP6l3DOugdd3l14F9xGSNEtmAhzYmETHie4TxcSZAXmJjxPmJ+lMz/DWvHJ4mb0z+pAyJkWeBxhzD5MZz5CmI8RYkUEmDBrjwrENpivE2bLBArVPtbyu1sUR9ZtboCb1MerauEng2LEjQlx6IIKhM0vZxIpU/oKgucxlXwm/Qi5TCg5CGO0jiDEegIcOZufn+iDq4pkbrLx/StsFC8pi/qb35KBIQSZEMcIxFQcXTmWjawF5rOEmZqQhKhxJ6CfdArRY9fATu0BT3ePB9YAkwkXr/aw1G73mN1b4P6fCbNw/NAIMIF56ef3YX6UME+2wqzWhsM/ejpip59GwNQLME4/A9P0JETOOIvwmSkIeSUVoa+mIey1i4h4/bIiA6EWRb5JMYZHvkOoWUuLS0stHfkBnehjiZaFCFvIg3tJGQJXViFwTQ0CNtQh8ItmBBBmWQTemzC7KyPBOpTrFNvLGlqE2fHcDTidl3r5Nvql34Pzta/gkvUlXPLuwTf/NsIKbyK6qAMDi1rwpIBrhfl5wjyEMfv5ono8V1ZBteGx/Jswpd2A70nW50csEz2k4dAy1ksa0B67rui+O1PW4Zrq7tFaQF5dC1855UaQgxcKyOWM0WVsuOjI80qVwTTBnxYgeG4uQubkIJT1cRidOIIg6wlvJOG16Mp9vXcZ+nfZkL6TCtNbFwjzeUSz3JFoHcdGVSQgR09PRuw0mVghMJ9G1Njvh3kKYe5bN7s3bz8RZo02AgExMxDz8in4TToH00vJML90GgZl3C+j9sxUKg3hr6Qh4lUC/eolRNKlRfo3KAKtf5tAv51BqDMR+W4W9HRq/Ue50H9WgIgFrB2lZ3dFBYLXVCNIJh180UiYWxSYfViLerAmdSVAOoLlmMxozZjtRFdWyfrTrJf7pd+B7hpBpjO75t4lzLcQXngDsYR5cHELI3YtnhWQqSGsoYfmXceQ4gYMKavC82WteKb4DgayMQg9cx0uJ5r4Oi1wOdkB51NsQE4x4p8gzMdlgoX1HLO48yG6836mhV2tcGbjIzWy11rpsa5FgIC8qNrqyGUI/7wU4Z+V0ImLECLDXefK8Fc68sc5CP8oC+EfZhBkujEhNrxHF1bERpEyiujKNpDNb6QwXls7u+jG8WxURXFsZGNfTlbOL8cT5oTxjNeEOXLiKcQIzCoPePXB/DPbfrIzR8A/6mVEv3QSfhPOwjQ1Ceapp2Ccdgb6lwnz9AsIn5GqKIJQRxBqPaO33urSEW9QAjQdWi/Rm7Fb/14mImYT6DmM258XsJ5k3F5ejpDVVQhez3i6rZE1czNjdqvltBFd2YW1q45O6SRXSCTMKtbMqgsSs2+i37Xb0GTcg0v2XbixZvZnjI4gzHGE+VHC/HRhneLKQ/KrCXIDhuW3YyideWgZfybMQ0pu4Sn+X3NaJ9zOEOZTTXA70Q7XU63QnWbsPkl3VmC+qcAs9bLaOkdZxwThurUZHjKKjXVy4PJaRusqhC2o5N9Wjgi6cQRBDifI4XOpOQUUUwlB1n+UzWjNBm42S5H30wkuI/W7VxRJrDYwVhvlellvpxHkFAXkKIIsrhxjBTieSmDDGs9GNm5aEuKn8mcrzDGE2dAH8894+6kwa8Lha34JUVNPwGf8GRimnIJpMlv8KUkI54ETOo1Av5yC8Jcv0KkJNKHWvyIOfRHhItbTEeLQikvTsd8Sp6beJ9TiTKwdQ6Vnd3kZQldXImR9NWvmBvjsblZGZ3kcJCxHWTOfIMzKzClGbEKsZtRWy4XJrwjMt+BEGHU5d+GRcwcBhDmy4AYSCjvwGGP2MwUNjNe1BLnGCnMrhhHmYaU1VAteKOnAC3TsAZl014utcElugefJdrgltcA5qRHOdGkdYZZhmxaY+dpSL+9tU2B2J8zehNlfhmkurWbpUEGIy5g8SmGYWww9IY4gxPpP8gmwdACy1GBjFjmbpQc/B+N712B69ypr4iuEVi58R8mF70RvpcH8ZirMjNZRrJOVeC21MV1YAI6flowEKp7fR9yU09z3wfw/Z/uJMKvkPLNpGsxTjsF7HGvlySdhnHRcOeURzgMnbOo5hBPo8JdSECFAU3pxaGv0FqAVh55Ft36DEfxN1n9vSQ14DRESMVk7hsq51uWlypUNgzdUwW87a8+9MgGC8fUwgTpGByRQ2mS64Tk6MiHWUOq067C/QqAzbsJBLl5OeWXfRlDuTRjzryORMD9e2IpnCeqQvDqCLEAT4vxmBeYXSmupFgwvacGooho8wd8FZHTCPaUdnqeZCJKa4Jpcz8jN11dgFmfm6x+SermdMDNiy9zkrU3wZb0cIOt1yeogjNb6T0sUkE1zimGYU4hIgmz4OA/GD6VHPxvGD7Jg+iADJoJs5mdhfueqsqiAzEW2SCCWKY3S4cVo/Rrd2Hb6SYnThJcpKZ5KIMjxk08hjvVxwmTCPeksEgXmMRaYY8f0wfzz3H4izMqgEdNUuvFReI09Df0kOUCOKTBH8MAJpwtETD0PvWhaCvQvXUDkDAvMlthNmJXYTc26iEgCrReg32Xs/ohxW3pzF9CdlxcjdE0Za+ZK+O6og8e+RrpyM12ZUZeurD3dCc1ZwiyOnEaYL3J/6Toc0glzJmHOuw3n3NvwzbmJ0NwbMBPmAQXteIIwSw/2EIKqwJxfh2EFjYS5jo5cixdLmzCipBlj+fNzdPEIuroXn9udcd6dkds9uY5xu43J4AZhlnqZIMtgkgNtUO9lbb2jGZ5bWBasoyuvYJmwpJwwlyJSAbkI5k8KYVRAzoXpwxyYP8imCDId2fwepYCcTpCvwMxGTgFZ5iRbZ0FFvX4BMdbzyNJjLdE6TiI1IVZgJsiJ/C4SCHL8xJPcJyORMPcfd5oQn4BxAiEXmJ084O3WB/PPa3sYZhmb/b0wh/YMMw8eBWYeOBGTz0E/5TwirUBHMm7rrZFbAZrurH+Nep0wE2hxaD1jZQRhDv80h86cz5qZdTNhDtxYCZ+dFpjdD92HWZNEkBmxbTBr6coaK8z2hNkp7w5cc2/BP+cGInKvI4YwD2Zt/FRBK57Pa8KwXDpybi2GEehhBQSZ8L5YUkeQGzGSGs3bQ0paEVtwDwFXb0HHKO96jg1Kcg3cCbOrOPNxC8zqQxaYNXsIM+t7j4318FtdjUAZprmQCeOzIkZqQiyj3mT0GyE2zJZTc3KKTkbISe8+a2RCbGTJYXyL8ZoQm/jZmGaxPqbMhFhAjpIx18p55LNKvI5lfay4MiO1EqsVkLknyF0wT/w2zP2+A+auU1N/7oO5923dYRYR5j/8BJgjJkoP6TGE88AJn8i6eeIZRBBoPYGOFKBFErWVGpqy1tD6V9MQ+VoaDIQ6kpE7wgpzmMC8kDCvKEHw2nIEbvoumBlvz94kzJaIrSPM2ks3lJlSjozWmry78CTMwTnXYSTMCXmdeCy/A8/mtWJobhNeIMwvEOYXWDe/UFCD4YR5ZHE9IRaQGzCyjDG8tB2PFn6NsKwvob56G7oUC8wejNnuMtWRMKvltJTMpNpPmFnXu34hY69r4SdrWy9msphfovRYR7A2NszOgUkgphsb3md9TJANdGIBOZIQG+jGBqYUwxuXYRSQX0+F6TWrXk2BmYqyjrmWU08x1h7rWMIcO4WQMlrHS7QWV55wEnFUAr+TnwpzbVkfzL1z6wHmP/72N1j2uXU4Z2LigzCrQuFtnAojYfYcQ5gnsF6ecJQQn6AE7jPQ8+ARRU6iQwvUStxmDW2roxm79TMF6lRECtR0aP07V5SYrTjzogKErCTM68oRsLkK3rvq4E6Y3Qizi5zzZb2sTr4Op3M3lR5szUXCTGllpZHM21Dl3oWu4Et4599BWN4NRNGV+xdc7wZzM0FuwIt05Rfza/BiYS1GsGYeSYhHlxJmalRZPSN3J54t+iVMBb+COvdrOKcyQlud2eWEzF9mKpARYTK8dD/f127W1Fvr4bmuGgHLWe8vKlUWY5CJJfrZuTB8kGNxY0pANr6bAYOcc6cjRzJSS/+BlB0GNm6G19NgfPUCDJRcU9lEgM1U1EyCLOeRbSC/JCATVGuNLIpnXSyufB/mM+jPhjdu9HGYCHP86DWwt8L84tMy0cKy0ogsG9QHc2/eeoBZZk3ZpkD2CLNhCoyTjsBz9CmET2DEHn8EYRMI8wTG7gmE2apIBWjKGrcjRC8TbInddOjImTxYBWhxZ7pSF8yLCxC8upT1cgX8t1bDizC77W+E66EmOB9rhaYL5htWmG/CWYCWCRZZd6DOuweXwq/gW3CHNS8jNkEeWHgdjzNmP5vXpsD8ImEeboV5uMBMVx4lIJc1YYwiAk2YXyz+BvElv4JL8ddwv9wK7zO1cDkt74Gx/gQjtgzzPESQ97dAt5vvcUstvNbSlZeVI2RBMQLnyVporJEJs+n9bJjeY31sBdn4DvX2NSVaC8iGLpAvMrGkWmB+JQVGykyIowixSE5DxVph7orYNpC7wSxKJMz9+V30H8PfjzoO83g6t8DsSJhdPR6YAtkH889is8JsrZmVKZB0Zpk1JTB3H87p6BQCr8jJrJMPw2P0SYSNoyuPO4zQ8ccoRu3x4tZJdOZkgkygKcNUcWe6tOglxm7G7cgZPFC7YKY7v3OZMGcQ5myECMxrWS8zYvt9QZj31MOVMCvjpI8yzp5ixD5jHSiSKh1fNwjzdbhcYeyViJ1/D26MxwGEOTKvg/VypwLzE3Tm5/PbGK2bCXIjRhDmEYzYIwjz6JJ6BeCxVo0n2BNLmjCxqAVDimRRgwYEXa6FR0odG5IWOMrC/LKwoLyfQy2EuYkwN8BtSw2811QieGkZQmU1FRmmOScPJrqy2QqzBWSpj6m3LDWyRGsFZDZsBqYV4ysXYJpBiGfQkSlxZAE52gazuLIVZunBVmpla72cSKATCLSoP7+LAeOTMYAwx488jijCnDhqDRwIs48N5uEjEBdpUBbB7xvO2eu3bjD/+7enQD4W9yDMnjaYR51EyFi68thDCBlHmMed4O2TiCDQejpC5CQBOlmB2QZ0pAJzCgwCswJ0Kg9gwvw2I+ZH1xD+mVwIvQBBjNiBW6rht70Gnnsb4HKgEc4Cjaz/dZoQn2GkTiHQrJXVl6/D+ZIV5pw70Bbcg3vhLxBImI15MlOqAwPpzk/QmW0wj+gG88jCGowprce4ckJc3oQJdObJpU2YRsCnF1dhTEEFHssoQvilCrim1kEuBm8vC/KfEphliiQbGTY2ut31cN9cDd/VdOUl0vFVoMAc+kkuoghzlNWVTYTZRDdW9OYVGEUCsziyAnIaTGzooqYT4JfPI1pEoKNnEGYqRpbLFZC7BoYkWUCmEglzf0KcaJUC87hkDGSKSiDM0eN4H2F27AHmaWN6ngLZG//1wWyFufuF42Slke4wS8z20E9itD5IZz5FmA8/AHO4wMwDRk+gI3kgiQyT6dCUfgo1lbGbQBt4gBoYuRWg6c5Gwmz40ArzUsK8nvUyI7YsSO9BmJ0Js0BjWZmTMJ+9ocyScmK8VhNiF9bLruk3lVlSWtbLHoQ5uPAOzAQ4vqADg+nMT3aHOb8RI/PrMIquPKqoljA3dME8kTBPKWnGS8UND8AcdrkCzml1kAvA9zsjC/IzYh8nzIcFZr7H3aztmSZ8V5dZpjTOyUXA3GxlqKaAbH4nEwYlVosjS4+1BWLjLDZk0qBJSiHEklqM/HxML52FSZb7oaJeFp1RFE2IpdPLcm7Z0oNti9fixjaQRQPGJ2HgWMLMhjdh+DHE8LsZQJidHAizizuGPfkUxr84HLH6SOXCcX0w9/rt2zDbrjWlwNwtZqsE5oiJiBh7AF5jTiNkDGEefZBQH0Xo2OMIH3MS+rGnEDmOMIsItcHq0PrJlACtOLTFpRWgeQCbJGp+yJg9jzF7eRGCNlYhYFstfKydX85ydQvCrBGYk+jKhFnW/HIkzKqrNwnzTcJ8S+nF1hV+Ce+iXyCk8Dai8luRUNCORwo78RRhHvIwzAWM2IR5LJ15POP1RMI8uayZrtxCkJswo7gGYwsq8URmCcKvVjLO05kvtMD+HGN2cgdrZ4GZtTxhdiXMHgLzSlknPB/hhDhobg7CP85G9LtZiHqb8fota7RmjWwSkF+XGvmSpSNQYCbIklwUmAmxAvNUQvySRdFUzDQrzHJu2XY6SgGZNfKE7voOmEd+N8x9Mbs3b8LxQ4NGZKldgVkW9BOYu3eAqdVh8AibgPDR++AzJgmhow8pMIeOOYqwMcd4/wnoCXRkd6BZP+sJc4RIgZnubI3cArORUdss51c/zkK4DBhhTJULuAVsr4cP61D3fYTlgMwrpjPLFS2snV+OqYT68i2o02/D9cptuF2jK+d/CZeir+Bb/DXCi24hpqAFAwrb8VhRJ56hQw8l0C/mt3TBPJoxe2xRDcaX1GEigZ5Y1sCI3UhXbsb0okYCXYsJBPqZvEoYMmvgdrWB0b6FDUkn1OevQytXqbTBvKsWnhsr4LeiBGHz8qFnvA6dk6OMbIt5JwNRCsjWWC0dXrbOLunNJ8h6Nmp6gixj3A1s7EyE2MTPyzwlWVlZM9qqGEIcQ0fu3ostp6ISxz+o/tSPgnn4cMRERnZ1gD0Mc3f1wfzfefsOmG2rcz4Ms0YdrsAcNnIv/HiQhBHm8FEHCTJhHn0MEaNOIJIwG8acUiRQG6xxW+pogTpyylklblscmjW01M1yrpUuFrG0WLm0auC2evjtbIDXnka47W+CC+tlZznHLHWq1MvnCXPaTThdvQ11xl268h24Z96hK9+DW8mXCCz5CpFFNxFf2IJBRW14srgDzxa2YSj1YgGduaCREbseYwrrMI7OLDBPKCXQZfWEuaEL5hmEeRLvH1pch2jW2V6ZzazR25RF99VMBtpkwnykiTG7njCzvt9UTpiLEU5njpSZUJ9kQ/9BBmLeTKeuwkyQTW8QZkZr42sXYXxVlGbpCJSSQ/oTCLORn404spkwRxHmLpB5O3ZKEmKtMCvnlsWVrTALwN01kDAP4vc0aCR/LzDz+xhImNUOnvBjzSwwj6Mz22DuGwHWm7ceYLYs6EeYX3td6c1+JD5WgTnREAktYfYMHY+wEXvgLzCPOoSIkQcI8hFCfQx6gXk0YbaJYBvHsW7mQRUpoksrNbQVZnEh/as8kHnA6+fnI2JVOcI205V3yOSKBmWwiCtd2eVIK1xOtEOnjPySzq+bcLx0C06EWJ1JmOnK7lmEufgu3EvvIYRAm4puoD9hfrSoBU+XtOK54hYM5e0XCwlzYSNGFzbQlRmvi+sxoYSurDhzHWGux8tFzZhhhXky3Xo443cin8Mvtw26DMtlcNSp16Fh7aw52gjdgTq4yKVtNpUR5iLCnAcDQZa5yXq52sSsq4iddQVRlJkgmxmtzQTZJJ1dlHFGKozTpVZOYa0sV584R4gJMj+raJYn0YQ4RiCeLBKQ6ci28deM1wkEt0eY+dkPGpOMwQLzi8cQzeQ0cMQaaB29EODmqcA85oUX+mD+WWzfAXP388yDY2MwacSLSIjUQ6MKg2fwOIQN3w1/xuywkQcRMWI/Qkeydh55lGAf7wLaJuPY0wSatbOIQBvk/PMUOVV13jKI5PXLCGMcDV9agoj11QjdWg//nY3w3tNkWSXzYAtcj7TB9eR1OCfdhObsLagu3CbMdwnzXQvMGXfgSWf2yr+DgMI70FMxrJMH0oEfJ5jPsAZ+jjXwsJImvFjMiF3cQFeu7wazxOw6TCqrxRTuxZVnEvaZdO2ZJRWYUVqkzHk25bXDI5Mxn3W6KrWTdXMr1MfkipV1cN5DmDeXw2dVEYIX5CF8jiw1LANCriD+1cuIo6Jfu4ToVy8h6pWLMBNg83Sr+DmYX0pB1DRq6nnKAnM0YY4hzDGTCDEVp8hyXtnS6WWBOHHciR41kJ95d5jNI45hwPDV0Dl5I9DDW4F59NChlvPM4/rGZvfurQeYbWOzZQSYDOccFBONCS++gHh9BNSOofAMGovwF3bBf9RpQn0AEcP30akJ8wi6Mw8WG9AK1JSRcdsmg7j0BMtwT2UQyYyLCH87AyHzC5RZUuGbahH8RQMjdhO89rYoy926HSbIRzvgduomYb4Fzbk7BOkeYf6SMN9TYHYhzF6ZtxGUfRsRubdgKmDELmjDI/kNeIIu/GxJM2FuwDDWwy+WNGCUnFcukohdR5gZsQVmgjypvIYw19KV6/EKI/grhPnN4mK8X5yO8YWVGEBn9iHMKhk2KteETm6BijBrDtZBR5jdt5bDa3URAhblIWQuYZaFBd64jISZlxDPvzVmJjUjDdEEOJoARwnAVLSIn0fM1BS67nm68DkLyJPOEGJG64kEWDThNOtjC8RSJyuOTGj7jz2ORCqhm3qC2fjiYfR/cRV0Kh8Ee/oqMI98fghhNmJqH8y9fPsemGVs9qPx8YQ5SoE5LiKcMIfAM9AK88jTCCfM+hf3EeLDFGEeft+dbRKITYrEoS0wR/BgDWWkDKErK+tq05VDN9QgZGsDAnc0wmdPMzz3tcL9UDvcj3TA/cR1uJ2+Beczt6E5fxeqtHtwuPwlHLtgvgXvzBuE+Qb0udcRld+JxPxWPEqYnyTMz9GRBeahVphHEuaxjNDjSmoJcm0XyJPKqzGlrJowE2QF5hq8VVKM2SXXMKG4EgNzWxGQcwNaNhxOaR1wPNMCpxONUB+uh3ZfDdy+qIDn2mL4LclH0GfZCJHVQmZZQI6ffhFxBDl2ehpiXk5FzEsXFIBtUkC2whzLxi6GMMd2gzmWIAvMcTK+miB3wTz2+2EeTJgfGcHYTZgNww4pMDurfRHi7U+Yn8SI555Txmb3wdzbt4dhfmjWlMA8sBvMGsLsRZgjhu1CAGGOeNECc8Rwwjz82zCLM5tGE2TKrMRtC8zhjJKhM1MR+l4GwuYVKlc9DNlch6BtjfDf1ay4sqyR7X64E+7HqJM34JZ0Gy5n70B74R5h/vJBmDNv0pmvIzinE5G57YjOb0f//GYF5qcYl59jtLbB/IIV5jGEWIG5tIYwC8iiKkwlzBKvXymkusE8sbgcg/KaEJhzHbosOvPFdjicbYHDyUaojtRDs78WLtsq4bGuGD7L8hEgp9msMMfZYCbIcQQ5liCLYgTi7iBTcVaYLSCfoSMTZkJsg1lx5gknCDKjtKgbzN3Vv5szC8wDXqAzDz2EAQKzhjD7fBvmvt7s3rz9VJgdQuAdMBZ6whw44jRBPoDIF+jMLx4kyAI0YVaitlUjjsM46qTFmQVmWZ2ENXOYLGAggyU+yVMuWxq+Tly5EQE7muG7u5WuTJAPtDNiC8zX6cw3FZhdz92DLvXLLpilZtawVlZgzupEUE4HYW5FDEHun9/YBfPzhFk0lA79QkkjRpQ2YDRBHstIPb4bzJMF5tIqBeJXC2swk+79dmkJPiq9hsklZXikoBHBeR1wzibMl9thn9IC+6RGOB1rYN1cD9cdVXDfUArvFQUImJ+DUKmZBeZXLO5sAZmubAU4RonUD0lcedJZurFALGK9PP4UdVJR3Dg68ji6r01jjiHRptHH0N+mMccxkJ+59GYLzANfOAqTFWYdYQ7+Dpj7xmb31q07zCLC3H0K5MMwa20wD7XC/IIF5giBmfXYd8Is7iwwywQMHqzhMh3yLbrWpwWIXFaOsPVSKzcpq3D6KJdvlSV1O+B6mPH62A24n7oFt+Q7cD1/D1rC7HTxS9h3wUzHZsQWmINz2glzC2Lzm+7DLMsECcxFjRjC/TDCPJzObIN5HGGeIDDTkSeXVWGaAnP1fZjLSvBJWQYduxyP8TnCCjrhxrpcld4B+1TCfKZJidq6g43K6Sn3TWXwXiXX0cpF6Oxrykyo2Fct7hxHkG2OLC7cE8zRCsx05e+AOZ6O2z1OKzATXpsUkEdZ9gPkVNSYJDwynC499Ciihx2hQ6+ETuuHIB+/Pph/Vtv/DzAbCLNxNIEmzAaZUTWJMMusKZlwwIhtWFGJsE31CNrezIhNmPe1w+OgXIuZDkhndjt+Ex6nb8P97F24pnwJjQ3mKxKzbTBfh7esd53TBkNuswLzALroYzaYCeFzdGgFZqonmCcSZIFZnHmmwEyQZ/Ix75SVYm5FJl4qr8ATRU3QE2bPPNbu11gzX2yF/dlmqE42QXe4CW57auGxtQI+a0oQuChfOTUlM6JiX7uM+JmM2oQ5bhojtjVSdwfYpii6cnQXyD8AM0GOH30UCaPuK9Gq/pRMsBgw+jQeeZEwDzmCWLqzwKzV+SHAWzrA+mD+mW3fjtldi+BLB1j0T4NZ6dHuJoN0gnXBnIyIyayZZdXODzJhmF8Mw+oahG1pRNCOVvjtboe3XB/5UKfiyq5Hb8BVIrY4M2F2SaEzM2KrLjFmE2Y5z6zNuAVXwuxDmENz22DMa0FcQRMGEuLHCfPT3AvIzxfWQ1bhlFVFhhfXYXRpnQVmgjyBriwwT7LBXCww1+AV/v6d8hLMrczEy4T5qeImGAo74J1/E9pM1syXWtDvXDOcTjUpI8Fc99TBfWslvNeWwH9xPkI+zmACuYzo1y8jTnq0CbMCtMA8hTCLCwvEbOAsEpDPIoYwxxBikcAcw2gda1XcQzAnEOZ4K8gJIwkyJXu5L3HMSTr0KQx+gZF7yGHEDz+OAcMsMPt7+WDoE09i+LOEWXqzZXGCqayZFZj7LhzXS7duMMt55m6XpxGYBxPmiS/8BJitssEcOfKExZ3pEjJwRBb+C389jfVyNgxLymBYV4+wL1oQtKsdvns64HmA0doKsgtd2fUkdZown2FtLDH74ldQX/6KIHMvQzgzCDxh9su5jnDWs+aCVsTTlQcR4ify6wlzPWGux5CCWrzA6Pwi6+GRdN0xBHVsGWvm7jCXVlpgLqnGKyL+7t0KgTmDMJfjGUZ0U2EbfOnO2qxW1u3N6He+GY6EWXOkCS576wlzFTzXlcBXerQ/yUC4LMw3i+7Mujnh5bT77jyZrkyAu0SIBWQFZjZ6MfysYmQhPhEhjiHEolhCHC8QW+O1QBw/8ggBPoLEERbJzzGjuR9zgg4tMDNyP3+Ytwn3sBUKzH4eXhj6+BMY/syzlimQMjZ7iuVi638VmPsmWvTG7b8AZgFZerUpmzMrME9MQtiUZGVFTvO8AphXVMG4sRGh21oQQJh99hLmg4T5CEG2wuwiMEvn19k7cKYzawizSnqyr36pwKzLZAzPvoHAvBuMwB2IJmwJhU0YTDd+giALzM8W1HXBPLyoVoG5e8weX1qNCYR4ohXmGfz5Fd7/KmEXmD+tysSMigrlFFd0UTsCCLNzdivfA505pQWOp5uhOdoMl30NcN9WDa8NZfBbJleqyEKYLJlrhTnx5YtIfIlAPwyzFeIoliGi6B8JcwJhjh91BHEj6LpUwvDDSKTk52jCLKuLJI48icHDjmHgc4cwkJF7gBVmH3fPPph/ftuPgPmnxGyrKwvIcmqqq2aWEWCM2GFTz7BeTkfMohJEr6mFcXMzQra3wH+3XH6GMB+i0xJk52MUI7bzKQKdbDktpbPC7ESY7a/eg4owu2TdgnfuLYQU3IKx8DpiCHNiYTMeKWzscmYbzMMKa78b5pLKLpinC8x05VfLrTDTmWdWVmBIaTPiitsRVMgyIKeV6YAwX2iBQ1KLBeb9jXDfUQOvjTJGW649nYtwWdD+jcuIeeUi+hNkgTlh6gXEdYM5egJhFpDHy9UakxHdHeTuMI89gbgHYLa4sgIzIRaYE/g9KDCP4n4Uo/iIExg09CgGPnsIj4xJxoChK6Bx9oe3u8e3YH5FYC57EObu6i3/+mC2wqycmvob1MwCsjKck45sGHsKRtaBRhm2+MZVxMwtQNyySsSsb0Dklial88tvTyu85PIzhzvhcuw6nI/fgO4HYFZfo2MTZp+82wgpJMxFFpj7izMzast1mJ+iBObnC+uU9bGHF8t6X1Iz/xDMVHk1a+YizC1PpzOXY2hZMxJK2hBaxLo+t4UwN8EutZkwizO3EuYmwlwHz81yjelSBC8sQOiHmQh/6wrMr9KZBeZprJutMMcS5LiJ51gXS7SmIysgW1w5lhDbpMBMkGMfhtkasbuDnEjJzzGEOZYwxwvMQ45g4DMH8agNZhd/Zd1sG8y2ZYPkYutdMPfVzL1sE45/YATYf7Q3W3Flgixjsw08IMWVjXSnqPeyEft5CeJW1SKaETtiaxMCdzTBd28rPAmz+xFG2OPXoSXMWkZsnQLzLQvMF+5CfYkR+/I9OFzlbQXmmz3CPIiu/FheLZ6kumAmyC8IzKX1rJnrMK6sjjWznGv+NswzZfBIRSXeKi/AJ6VXMaO8DC+UN2FASSsiitrgmdvEZNAAu7RG2CdbYJZ51647WTdvqYLPugoELili3ZyN4LevwCgwTxOYLc4sMVtgjifIcePPENozhFhAtsLMJGPRqS5X7glmqZUVkCkBub8N5pFWmEeewGDCPOjpg3jMCrO6G8wvdoN5Zg8wd1cfzP+dt/8imJVaWVyZIJt4YBroyjKHWab+mT/KRezicsStq4d5cxPCvmiC/84m+OwjIAc74EZX1p20gKw5fQu6JMJ8ljCfvw1d6h2or9yDE0F2SL8DVcYtZQDHwzDLpVulA0xxZlsHGF15WHEDhpc2dsEsztwdZqU3m1JgLmftzGj9RkUBPipLxyuV5RhJmB8taYG5uBU++U3QZDag3+VGOJ6zzLV2PtwC172M2rKwwsZqBK2Uy7bmIeiDa4gkzP2nMWpTCVNSLaekJp0lzGcQT4DlNJQlVhNe5VSUTRKxjxPmY4T5GGFmndwd5hFWmPn59wgznXnw80cwWGAelWRxZrcAeHtaOsD6YP65bP+FMEeOtjizzJaKmJiEiJfPK9eWMs3JR7RE7A0NMGxuRKhE7N3N8DrQBvdDHUrE1p66AbXo9E1okwVmxu0UunTaLcJ8Rzkl5UBXdsog4Nl3lGV1ZZkgQ9ENRBe2I4E1swXm+odgZswWmLvOMzNisza2dYDZYJYOsJkCdVU5ZhHmD8uuKTCPLm9UTk/F8vn98xugzawnzPVwONfExqcVuiMtcN5Hd95eB69NNfBfXY7AhYWKO0e8lY64mVcQT5jjJqUgSs4pM61YYLaegup2PllGeslpKJFAHDPmKGJFrJPjbKejbD3YVpB/COZHhp9C/yHLCXMgvL36YP55bf9FMNtitl5WHmG9HD4pSVlNwyCXYPm8GNGrqmHexHqZETuYMPvslYvCtcH1cIcSsQVklaz1lXQDmmTWz+duEGZZ7P4mYb4Nx/TbsBeYZUGC3Hvwyr+HoKJ7jL+Wi6rHEbaBBU14jHXz0zI2WwaMEGY5zywTLUawZh5VUoMxlK1mtg0amSa1cglhZuR+uboMr1fmY3Z5Jl4lzOPKLCPJZHRZYF49dJm1hFnWBWskzHJhdmpfM1y218Njcy381lYiYGkpQhYWI1JGu72djqjpFxE78TxMhNlMmBMIcwJhjqMrxykQWwCWOC0uLOCKBOLY0UcQKx1eBFXpvbb1YFshtum7YB74wnH0f34ZtB5B8PX26YP5Z7X9F8IcwQMpgjDLIn/K6ahZl2D6OAcxSysQva4Oxi2slxmxg7YzYgvMh+Ti5nKp1utdIKuSGbfPEObz1+FygfH7IqP31VtwIsj2dGXHrDvQEmbPgi8RUPQlwotuK4M6Yoqalbr5cQXmJjxHAJ8vsgAtEy2GE+aRxQJztRVmy7nmyeU1eIlObYG5gjCX4jXC/EF5FmGuoIs3YBgbhkF05ZC8Orhk1sD+Si0cUxpYEjBqH2uB9gDdeWcD3LfWw2d9NfxXViB0eQX0bMQi3rkGE2GOmXAOBsJsmnJOgTlxXBLd+ZQCcfw4xmhKAXmsgCynmAjyKIIssvZci7rXyt2BlvtiCbP0ZneHuf/Qo0h8bil0HsHw8/Htg/lntf0XwyxrgoUKzLLu1ztXEfV5IWJX1SBmUyMMWxsRtq0JgTub4b2PMB9uh8vRTujElRmtRWpKe5Ygp1CphPoSnTrdArMDXdkx6y40hNmj4Cv4F32F0OI70Bd1sqZtQWKRFWbun6VsQMvY7BelE6wbzDIKTGrnyeW1hLm2G8wleK0qH+9VZHNfQfemsxNmGSYakV8L9+wapgQqrR6aM4zaJwizLHG0h3Xz9gZG7Tq6czWCV1chYkEJYc5UYI4mzDJG3cC6WWCWy8fIdEYF5PGM0FTcOII7lhpDcAVoOrICqLixANuDbEALzPK4nmFeBmfPEPj5+vXB/LPaHob5B2ZNdcFsmzX1EMwR3WAO54EUNuYEQniQhs+8oFy6NHZJBeLWNiB6UxNhbiLMzQjY2QIvwuxOmJ2PWWBWJwnI3J9htCbMrnRmVzqzy0U6NWFWWWF2IszizArMxV8hRGAuvg5TcatSNz/KqP0kgX5GFihQ1IChrHmVHm3CPFqB2erOhHgSYZ6mwCxDOSswvbpYgfndihw6dAVratbcbBBkmGhkXg28sqqhSq+Fk8B8tklZrVNzuBXaPaybdzQwatfBW64xvbYKYQttMF8izCmEOYUwpyBx/DkMGJuEhHGnlHHXNmeO7+bMUh93wSxubIX3Yf1nYVZOTZWWPjCcs7v6YP7vvHWHWfRDEy0cQ+ETOA6Rw3YjaGQSIgmx4cX90L94iCAfUWDWKzDbXPkEwiYnw/jmVUR/VoS4FTWI29CEqM3NhLlZGfnlLzDvb4VbN5g1AjNjtloi9tlOBWY3K8w6xuzuMEvNLDD70ZkF5ojiGzAWS93cgsGsbR+nZLLF01aon5flgxi3RxQR5uJqjLW6swJzRS2mEmiZYPEKa+bpVRaY36nMJcyVynpgI+jwArMxtxo+hFlDmFVpDVCfa4bmVBthboNW6uadjXCTa09trIGfLIe0qFSB2Tz9sgKznjBHTrlghTmZMJ+2wkwARdZea1tnl8Cs1Mr/xTDXCMx/6oO5923/UZhf2I1ggXn4QRgFZh48esIsINtgjmC8Dh13UlnoPuHjfCQsKkfCmnrEEmYTnTmyG8yeAvORdugIs/bkdWWhe4FZ6fw688Mwu+d/SZi/RFDxbYTRmSNL2hFrhfkx6kmRtX6WyD2E7moZCWYBWsZpyznnieV1mEKoZb1sWftremURa+U8vEVnfkWcuVQaAcswUVNeNfyyq6G9RpgvNUCVQpiT6MzH2pW62WV3Ezy2N8J7Sx38N9YidHF3mC90wZxAmPv3ALOlZv4PwkxJB5lckqYP5v8pW3eYu8ds6wgwgbn7CDCdUxj8gsbTjfcgZFQyDCMOwTScUXvEEeooZTktJUvu6nlwyrK6cW+m49H55UhcWoUERuwYK8x6whzCmC0wexBmVwXmDtadFpg1hFlrhdntIZhlsIhDhg3mLwnzV/Ap/BKBhDmEMOtL2xFTRJjzmghzE+GzwPwUY/czBFpmUL1YLBeMq8UoAdo6GmwCgZY1wKbzvhndYH5TYK6wwVzP56qHmTD7Z1dBJzBfrofThSbLAn/H6cwHCfPeZnjsbIL3F/XwJ9DBcjG597Kgf+UyTFPTEM6IHTn1AuJZPyeOS2adfJp1sqU3W6C29GYfV3qx/1POLINGHuoAs8Bs6QB7eARYH8y9eusGs3SA/frXWPrZPLw98xU8GheHgVFmjB82DLHhYdDRmf2Cx9ONCfNogfkwTCMYtUcepY5RluWCpBdbPz4J5pfT0P/dHDyygLUy6+XY1bWIXt8II2GO2CLO3IqA3W1wP8iIbXNmwqxh1Naevg5dEmtl1sxu574NsyrjLjTZX0Kb8xXcCLN3oXSC3UZwyQ2El7UjmjAPym3Co3mMxXkNdOcGPEU9w8gtMMs4bZlBNYLgjmKsFnceT01ivfwy75v+EMyvEubJJYS5UAai1CEqt4owV0OXYYHZ4UIjHGWBvxPt0MjSwAea4b67EV7bG+C3tQ4h6+ugX1YF/adFikOHTE+DXkaCTZROMBkFlkSQTymnp+IJdQKTjShuNN1Z6mV+1rae7J5AFtlglsfIcM6YUcf4f45j0HOHMeipA0gk1AnPLlF6s319fPD8Y4/jxaefUa5oMWX0GMycPAVVJSX4y5/+2AWzANxdveFfH8w2mP/1QZgHEeYJNpjpzP4hE+jGexE65gyMPMjMIw/ByIPGQBcQmGWwSIRcpmZCsnJOdcD7eYS5EjGEOXpVDaLWN8CgwNyiwCwTLARmXQ8wOxNmN9bN7g/BrEm3LH6vybLCnPc1vAokat9BEGEOJczmLpibCLNEbYG5XukEUwaRyPBOAbq4DiMJswwiscBci5cUmMsxvaKQEAvM2YozW2CuJcxslAhzQFYVnAmz0+U62Kc2wuFMM5xOsm6Wcdp0Z/e9TfBi7ey3rR5Bm+oRvKoaQQuKEfRRNkJnXUH4NBk8cp5AW2CW4Zvizg/CTIfuBrM4rgK0VQJwd9lglokW0fxeYmwwPykw8//8WJj7Zk31xu2nwjyRMO8jzGdh6gazkY4sSwTJ5Aq5RI1+4hmYZ1xEf8I8eGElopdWIGp1DUzr6hG5sRHhdOYQK8xucsFywqxlzNYc71Suf6w7RXgJ9MMwa8WZlR7t+zC7MGp75t9j1L4F/+JOBJW1wVjUjIE5jXhEorbizozHeXV4Wpl4UW8979ygdIbZgB5LyeVophZVE+gyTC8vwCvlOZhVnoWZ5eWYxMeNKKzB0wXVhLkSgVmVhLkGjldqYZfWYFl1JEkuKNemXLXSfa2GpxYAADYXSURBVF8zvFk7+7F2Dthcj8A1NQhk7Rw0Nw9h72QgdHqqcoVMWV0kVnFmqZstMNuAFpjl/HKMFWYb0NKrLdDaAO6uPpj/x24/Ima/YIHZWRWOgNBJMI/Yh7CxZ2FmLRfFg0ZgNtGRzaMtl6XRMy7KedToV69g4IcFGCQwL6uEeVUtYW4gzE0I39qKkO1tyuoiroRZIxcut8IsnWD3Yb5BmKmUG3BNI8yXbjLW3r80jZZAO2ffg1vuXQJ9k0B3IqCkHZEFLeif3YxBOU14JLcBj+XW4/FcRmQBmjH5GbrzcwRZGUhSxPpZ6d2uxTjCPIW3pxXRmUsLMbMsF68R5hll5ZjIxw0vqKEzVyMmtwJBhNmVMKuu1MHuImE+R5jlkjUn5Zx5K9wPtMCLMPsqUbsevhtq4L+iHEELixH6YS5CX7uMsJfOwzjlnLIggcWZZfCInKbqDvNRQinu/G2H/lvAHEOYJwvMU/pidu/dhOOHBo38gTAvmWeB+RHCPODHwkxnjhplhXn8aZheuoD4NzPxyNwSDCTMUawXTavqYFrbSJhbCHMbgre3w5cwuxzqgJowq4+Jq3UqEy2cGbUFZvfkm/A4S52/CdcLMj6bMF8kzJcJczphJtC6zHtwyb4D97ybjNud8KU7R+S1ISGzFQOymzA4px6PEubHCPMT4tB05ycJ9NOM2s8VydRIxu3CaoxgvTyaME9mlJ5WWMmoXYwZpXl052yCTWeWWE6QBeZYOnMoY7ZnRh206TLhogn2Ka1wOtOhXFDOhe7szqjtIXUzY7Y362avzTXwW1eF0FXUp4UIeZu188xU1s7nlfnMMmPKBvQDMI8UKI8SYpEF6L8VzC8Q5uhIwjxmDGYQ5srSB2Hurj6Y/ztv/xUwjz3NejkJ0a9cwqDZBXhsXjkGLK6CeXkVDKvrYFjXiIhNrJe/aEPAjnZ477XALM78MMyuCsw3HoQ59QbUqQI0Yb56Bxpl6aA70GXdhmsuHTy/E15FHQgjzPEZreif1YKBCtCM3DkNSv0s54lldJgskP+MMjJMxm3XWUeG1WECXXtqQRWmFxPmEsJclkWYyzBRlh0qrMKTjOFxdObw7Cr4ZtXDJaMR9unNymqdTufozHRn55Ny7ryZdXMDPGWO8/Y6eGyrhe+mGgStrUbYolKEzs5BiNTOcmULWW2EMEezIZTZUkrt3A1mATlu+FGCapm/LPqhmvmBDrA+mH/m298YZonZRtZ+Mksq7o1rGDynBIPnVyBxSRWMK6sRuaYO+vWslze3sF5mxN7VDs99VphZM6ttMfvEdcJ8Ha6UexIBJdBujNqujNrOhFkjQF+8Bc0VAVpWyrytLOznnM3H5HXCvaAdQTltiCbMcXTnBAKtRO5cRu48WRy/GY8UNOMx6snCZuV0lQz3lNFhL3I/tqABk+i+04qK6c42mEsJczUjOWEurkICYY5kzA4gzO5ZTXDIIMwXm+GY0gbN2TaWCa1wPdoEt/318JDrTO+shRvlvbUW/huqEbqiEiGfFiDoPdbOM9NgYt1slk7DCacJtGX2lFI7Kx1gx6wgHyXAR3rsyRZ1h1mZaKH8vz6Y/2dsf0OYjaOOW2CeSHeRayrRdWI+L0HU0nIYeeDqV1VDv64eEayXQ7e0IIj1si9h9hCYDzOadtXMFqB1JzsJdKfizq5yiuoMRaBdZPbUBQLNuK2+dIv16i0CTbCv3YRzJn+fwzo7rwPeuQJ0O8K411MGOrU5vw2xBD2e+wH5rRgkl7ApaMXjha14oqgFzxa1YijhHlnQhFEEd1RZMSaX5eG1UsbsklJMoCMPI8gC84CcCpgyCWQmI3R2C9RsMByvtMIhtRWqc63KxAvnY41wOVgPt711cNtN7apV3NkWt/2XlyJwcTH0c/JgmpEK0+QzME08TaAfhDl+xDEF5D6Yf9y/Pph/AswmK8ymbjDLqSlZ7N44ibUfo2PUJ3kwLCpB+PIyhK6sQMSaakSsJ8ybCPPWVgTuaIMP62UFZjqz9Gbfh1kGj9iApksTaBcb0Oct0yG1ijuzdr50g0Dz9lVCnnETLll8TI4sVN8BT0LtR6cOpEKo8PzrMBTeQBTr6vj8DvTPb8fAgg4MKmzHYOqJonY8W9CGF+jYLxTVYEh5McYT5llWmMfTlYdaYR6YXYHoa1UIy2iAH0HWZgrMLbBPY918nnAnNUF3vAHOh+rgsr8OrntrlQuyu22vhfvWGnhsrILXmnL4rCxD+KJixL6XBfOMCzBOToaZQIs7K7Xz6BN/G5ifOoCEIXycDWbvPph/XttPhFlHmP0F5pH7EEqYjaOP0p0PwzD6GCLpILI2tnnqeeXi4tFzC2BawgPVBvPaWuhlmaDNzayXBeb2LphdCbOcZ1ZOTVHqh2GWnm3GbVfGbfdzrJ1ZP7uk0I3pzk4Xb8Dx0nUCfR3aq3xseidcMjvgls3nzumAT+51BOTcRDDr6fC8W4jMvwVT/k1EE+xYKp5gJxR2on9RJx4puo4nCfeQ/BYMLajF83RmgfmNkmzWziWYQIiHllbjyZJq1uCViM1g2mC97E+YnTNYL19h1L7E/QXCfKaZ75/OfKQBbuLO++jMBNqdDu2+Xa58UQXPteXwXVWO8MWlSJxbiPh3MxWHFqAlbiudYYT5PxuzB9KRBxLmeCvMzoTZrw/mn9n2MMwyNvsHYPYjzEbCHGKF2WSDecwJpV42yeVJ3ybMnxZaYF5Gra5ixBaYG+jMzQjZ2oJAxmwfa80sMCsjwI4SYivQNphtcjnNCJ10E25nbsH1LGEm1JoLhDmNMF+8Toe+Dg2lI9TO6R1wzehgLdsJ76wbhM1yhcjQnFuM3LcYuW9S1wl1J6IIdEwBwSbQidQjhPm53FY8n1+LZ0uKMZY186xiG8yVGFJahScI9CO5rJsza2HMbEJQVitcWJ87ydK7XTDTmU/SmY8QZIHZ6s5K3O6CuQK+q8sRtrQUcZ8Xo/+cAsS+kwHT9BQCnWSpn8ec/NEwiwRoC8xHHoB5wNMHECcL4T+3BC7u3w2znJr6ax/MvXDrDrPoPwCzeTRj9pjjMDASSr0szhL9bgaiPyuEUSYXLC9HhMAszrxBYG5CMGvmgG2tSs0sMMt1pZwPW0aBaQm07XyzhkBLZ5icd5ZVOp1P31IW93Mm0M5n6cx0aBXrZ5X0bkvHmJyHJtjOlwk+Xdo1/Tq8rl2HXwbdWa4SyQgeTqDDc8Sl5fRVBwwE2kiZCXEM1T+vHU9ltxLoOjxTVIIxRfmYVcSYXVzCmE2YSyoVmB+ncw/KbUQ0HxuS3aYkAXV6q8WZU+/D7HKU8B6kDhBmAu0mV73Ywdp5czW81lXCb00lwpYzsi8k0J8VIfajHES9eRnG6TLnOYkNJGFmCZNgjdoJL1qUaJXt5+6/E/BjRh4lzKy3rTD3F5iH3ofZ/ztgrhaY/9gHc+/beoD59z8Ec5gV5nGsmcceg3nMERjHnoCswGmachbmVy8i5v3MLpj1AvMqK8ysmcM3NCKYUTuAUdt3Zxu89rYrV3x0OUSYCbRSO3d1hhHort5tgZlKIsgK0DehpTurWT8rQEun2AW6cyrhT6NDX6KjX6U7Uz6UH9064FonwrJuIZQuLZ1jwbnSQdahQC2XgjUS5LjcNjyW1UygZdhmMUYV5uO1ohzlnPP44nIrzDV4qrgBjxa28PHthNkS6dXX2mB/uRvMpwjzsXq4H6bozq77LZ1h7jvr4LGlBt4bquGvnHeuhJEpJmo+a+dPCxAzO4tAX4Fhpsx7TkI0YY4bLi5rAVog7s/b/blXoFYc26puMMdZYZarWSQS5lgrzK4Cs9e3YZZBIwIz+mDuhdtPhFlLmH0Js2HUPgQLzONOIGrcMcU9jBOTYJ52XrmuUszsbETP6w5zJfRrahCxrg7h6xsQQncOYNT23dEKrz1tyrWYXQ62QXeoDdrDbVATaMsgkvv1swKzLLsr7kygXQizTqI2YRagRZoUwpxC+FOpS/y/Vxjhr3TA6zLrc972I9ShmbcI3w34MRr757QhUGBUer3blF7v6JxWDM5qwuPZNXgivxgjCfMrxbl4WYG5lDBXdMH8eFEbEujqYQTZM5cNT0Y3mM828f02wu14AzxZN3scYu18gFDvo3bVwfOLWvhsqkGAXGR+TRXCV5TDwM8ren4JYucybvMzNL19FZEzGLlHH0cM4Y0lmPHcC8ADuBcJ1ImUOHeC7HuCWWrlZw4gZthhxBFmN7dgBPTB/HPcrDBba2ZlOCdhfmAKJGFW5jOrw+ETPgmRo/cjeMI5mCacgHk8YZ7AiD35DMwvX0D0G1cQ92EOoj8vUnqzI1gzR6wkzKsJ81oLzMEbGwlzM3y3E+ZdhFl6tAm07oBMH6Qr06HVRwjjUQJyjGAepzPLQBLKVju7JhNu1s7izlrGbe15gdkCtMCsvtgBx6vtUKXz+a7R9SnpGFNq6cx21tJMBgI0XTVQXNp6GstIqBOyWzAopw6P5pdjWGExppYUYlJZKcaUluH50nI8yZitwFzchkTW2+GsvwVmbUY7YWbtnNoKzdlmBWbX443wONII90O8faCBfytv7ybg2+rgs7lWmescuK4GwasrEUqgw1k/Ry4qhlEu3zMnD7HvZyGMjaaBQJtHn1Cic+IIAjriBGG2KJHAJvA+RQI89wrII6UnXGA+gsRnDyLmhSOIf34p3OjMAV6+eP7Rx/DCU08jJkKPyaNHY8bkyagqLsZf/viHLpgF4O7qDf/6YLb2Zn/vtaY0EfCJmIzIMfsRNOE8TBNPwjzhOIyTTsM4lU7NejnmrXTEf5xLmIstMPPg1BPmSIF5TS3C1tUrMPtvIczbWuDNqO3OqO1KoJ33M2YzcqsJtPowY/YRAnKUcMoVLk4IzBK3Zcy29GzTpcWdKWcCLSt4WoDm4y90QkWY+9GJ7Qhxv0w6JuWYzfsyWqGi3DPZkFA+WW3wo7P6U8ESuQl0VG4r4lkPD8qrxnOFFRhXVo6xFRUYWVGG53j7qdKqB2CO6BHmFr7XJsLcBPejzXA71ASXA3TqfU1dQzx9ttTBb1Md/DcQ6nWM3Gsq4L+qDEHLSxG2mEDPL0KcDPuclgz9pCR+3paZVXIxuP4jTxHok4oSCXSCiICLZEECBeSRJ5WfBw61wCyXdI1/fhnc3UMUmJ/rDvMowjxpMioJ878LzH0TLXrj9tNg9tZPhl5gVpaLPYWoSSe4T4LxpXMwv5KGmLevIf6TPMbFbjCvqFAGjUTI5VvpzkF0Z//NTfD9ohnejNruu9vgurcNzvvozHRoBWbW0N2B7glmBWjZS+/22RvQEWYtYdYJzGkEl9Hans5sz1rWgXIkbA7XCDPlkt4Ct2st8CDYXnRnnxzL+ehQSk+Z81qRmN+AJ2RyRXktRlbWYDiBfras4j7MjNnfCfO5Fr5PQnyiGR6E2f0wbx8k2Af4854meO1ogM/WOvhuqYcv3VmWFvKXpXlXVygwhywqQvi8fBjYMBreToeZ5Uv0jIuImXIO8eOSkDjmNOTaywNGEW6CbZNcKC6BUkC2wjyAMCc8R2dmBBeYPQhzYB/MP8ftR8BsXWlEY4N57H4EEmbzlNOInnIKpqnJML3Mn1+7hJh3MxAvC91bYdbbYF5ZpcAcvqYOwYQ5gHWzL6O293aZjNAGN9bOLgRaS6DVjNsqAq0izDagneVKF4zbtnPPynlna9y2iDATaO05OjPrZlUqwbpIR77UqgAmcpARWldboKK0l1nTXmmGy1VCxlrXM7sTvnJOOu8GgvOlt7uDDt2CgQWNeK68CUMr6jGkrBLPUHKeWWB+jM6c8FDMduDrqHqC+Qhvy1htgXlvEzwJs6xC4ruFUBNmX8Lst7bqAZjDPi+Afm4ejB/lIur9bJYw1xBDoOMEaFmid2wy+o9JolOLW1scO5FAJ3TJAnP/YYzXhDlaYB7yI2Hui9m9bBOOHxo00n11zocvHPdtmJO6YDZOPw/j65cQ/V4G4ubmKz2zNpgjCbNhRRXduWeYlbrZ5s6Uzga0uLOM21bOQxNk1tBaa++2TpkmSbdWJmRIxxgjN4HWnLkO9TnCfL4DTintcCRYjmnNihxEF5vhlNYEXVojdBepS9QVRuJ0NihZnfDMuUmnvgE/wh3CaG7KacbgomY8RaCfKa/D02U1hFnUgEdK2hBXSJgJtBfh1xFmx8t831aYXZNa4H6yBZ7H2GBJ1D5CZ6Y7e+xtJMz13WCmQ6+veRDmxXTmBUXQs3Y2fVqAqI/zEPVeFqJmXSXQqcrF2uPHy5JDZ+nShHp0MhJH0bEJdcJIm04pkTuRMMc+fxDm4UcR+xDMwwhzNGGeRJins2aueAjm7uqD+b/z9gMwP7ygn0YbAa/IyYgYewCBkwjz1CREKTCfgYEwG2ZdooNkIPYhmA3LK2AkzJGEOYIwh6xrQCBh9lc6wSx1c3d3FqA1NpilQ4zSHe6ETiK30iEmA0noxFbJNZxdCLXu9HVokjqhPkOdpaufpbufp1OmEGDRBUJNyXpdmpRG1taN0FCq1CY4EXI1XVWXTuen3FhvexPy4PQmROc2Y1BJKx4va8ITZYzepXV4vIQ1Ne+LKepEWAEbgTy+R9bgjpfp/KkthLn5AZilbnYlzG4HG5VOsJ5hribMlYS5jDAXI2whgf68EJFyZoCfqfHDHBgZuU1MQFEvpyJm8gUL0GPP0KHp1KMItQA90qIEOrXUzgmslWOGHIRxBPdDvw1zlMA82gJzZcmDHWB9MPeWrUeYpTe7G8yKM1t6sxWYDVMQMe4gAienwDwtGVHTZO4yYZ6ZAsMbl2F+PxMxPPDMPcBsWFkD/eo61s3So92EgC3N8NvWAh/WzZ67pHZuJdCsZyVuW2EWkLvDLKPEZHkhZzn3bJWLUk8TZsZv7WnCfroD2qR2aJP5PGcsnVFqWQXkXBPh5p4S2NTciwRuB8pRpjCmMRVcZBrg3jm1GZ5pDQhjbR1f1IFHytvxWHkzHi2tpys3oH9JC8xF7QgpYGOU28qYzcbiCl+Dzq/ha30XzG6E2WNnPbwIs8/Wh2BeVYUgWfyPn13oQgI9vwgRBFr/aT70H+cgko2l4a0rBFpq6EuIY6OaOP4s+o89i4EEetBoilCL+o8m0KMZt4cfQ/Sww4gceRTRhFk6wB6GWU5NKSPASvtGgPXOrQeYvzUCLPr+eWaB2ds4BfrxhJkx7z7MZ2F85QIMb16GiQdb1Ce5MPEAFJgjl9yH2UiYDavqEE6YQzY0IWhzM/y/IMwStXcwiu4kzITaVYBm1JbebZHuAPeHCDLrZ0VSQzNyKxKwKQFcd5y/E53k/zlJkE8RsNMUodLKNZRFyXRNSp1MqM+ICDDBczpPCFN4f0orxQaEe915gpdSh4DLDTDntmNASScGM1oPKm7CACquuAWRha0IyG+BW04TYW6E09UGwkzHF5j5Oh4n2VAda1VitgLzoe+DuaYLZlmaN1wWzmejqLfCHMHPVT87E5HvpSPyLekUS0f0uBQ8Mi4Nj0+UPSEec9oK9AW69Vkk8OeEkccR8+IR6GVizDDC7PEQzHr9/UXwy/oWwe+dW48w/ysWf/YZ3po5s2vQyLhhQxEbRph1AvNU6CccQtCUC10wm18+C9OrqTC+Scd47xrMdBDjZwUw8GA0EGbjsgqYllfBtKIGppV10K+h261vQvAmwixRm0B7baMLEmr3naw16dASu732tPPAl3PQ1AHWzTLsU6C2yplgOx+xSGfTUYJ/jDAfY+19nECeYD1Md+wuucib6hQhPm2RKqmJcBNGgq09S/gpnZwnPtsA13O18EmrhT6D7px/XZmQkUiA44taEEWFFrAxymuCc3Y9NBn1cEqvh+piA7TSEDAVeLJB8eL78DjKv+snwqxfyIZwAT9DunMkP0/pDIv4OBsRszOgZwIyvZ2N/pMz8PjoK3hi3Dk8Nu4UBo09TqDPEeZ0DBibigTp+R59UlmpJIIwmwmzG2G2nZqywTx13Di8+tJLqCkv53Hw5z6Ye93WA8y//1cLzG8S5kGxsUiMMmHssCGIDguFVqeHr2kaIiccRtDUVJgZr6NfkiV1z8H8WhpMb12FkTAbecAZPsvvEWbzijpErm5A+LomhBDmQIna0hH2RbMFaDq0O93ZkzB7727vOgfttr8DrgRaoHYh1IoOUXIlDBnXbdMR/nyEri4XP2e87Um643TgE4zYVmlOyFUcCeCpJujo3hY1wjmpDi5nauBxvgZBlxoRld2JhIIbVCdiCtthKGxDUD7fd24jdFl1UAvMijOzYWB8d0smxIT5P+rMNphNdGe5eqbSQNKdjR9lwTQ7B1Hv52HQ28WImXgRhjHHETv5NGInUuMZv8cWIGH8ZSRMSEbimFPKqiN6Psb0wlK4eAQjwPtBmKeNH4/XXn4ZdZUVPBwIch/MvWz7DpgXWWEeGGeBeQydOSrcArOfcRoMEw8jeFoqoh6A+SLMb6d/L8xmK8wGwhxBmMM2NluiNmH22doEHwGa7uzJuO29yzrf2doxJg4tcqVLKyLUrqylXShn1tb3RZAPEeTDLXA5YlPzA3KmtITLJt1Rgnu0gW5OnRDVM6bXsQavgfPpasblKvim1EN/tR2x2TcRl3sTZpkfndcOvzw2PtlyrWbCfI0gX20kzFKTS292K9yZDCynphi7f7BmfhDmCMJsnF+igBzDfRT3pjl5iGLyMcsou9l5CJueAtPMFMS+zu9i5klETz2FqImXYB5XhLgJV5Ew8QwSxhLm0cdhGH8ShmFLoXMPUsZmPwzz6wrMlZZjQSTHRTf1wfzfeXsYZrbI/8aYLTC/0QWzmTAPQxRjtk6rRwBhNtKZH4B5+vfDbCLMsgaYebkV5lUN0K9tQjhhViZdyGgwwiyDSHxkVNiOVqVTzGdnGzwJtQDtLkBbe7ttkkEmivZTB7qLMMtVJQ4S3kOipm9JgHY+zN9RrocbuSeQR+uhPlYHzXFRDVUN7YkqQl0Fz+Q6BNJt9RfpyFc7EZreBr9rdNxMvpeMVmiu0eXTWYNfoVKbIBeSU84zH29SYJbTUi58HVcF5oYeYfaXpXgJs1z9wgZzxLwimKi4heUK0Ka5+Yiex8j9YRZi52Tj8feOY+6ufGy/3IbP9+ThqembkThqBx4ZfR4DJ5xDvMDM+B0tw0EnJ0M/dDFUrv7w64L5qQdgrheY/2I9HuS46KY+mP87b91hFhHm3xHmhV0wxyExOgqjFZjD4ayNRKDhPszmlwnz9GSYZ5yH6XXG7HeuwvD+NRgIc6QCc3EXzFGEOUqBuRbGVXS5tY0I3yBRW3q1CTLlR5h9GbXldJUv47YPHdpLLl9Due9qgdtuAiraY5HzXmofwX1Ach8h3S8iQAcI6oGGb8mZUDnLfj9/3l/HfS00B2ugOlwNp8NVVCVVAdWRCkJdCdcTNfA6VQ+/pAb4n2mE13nW0xcYzy+xzr7SBrVVKpkCmUJ3TqbDn7Q4visbCpdDsupIPV+7Hq576+G+o44w1xFmAq0MGhGYqx+AWekA+7wIxnmFiFtUpsBsZtSOlfPPH2XiieUlWHauHpW/+Be0/dMfUHTzH3D8WifeXngJz40/jsETTiN+0hnEjzuNKMIcPe0swocuhIOzL7y9vPHso48qMMdERiowvzptGhoEZia0Pph72/Y9MM8SmOMJc0wMRg5lzI6IgE6jR2DkVJjGW2A2TD+DqJlnYJ5JmGelwfDuFUR+kM66LguR82TZoCLCTDdZXk6QK6lqJWobV9da1gPb0IDQTQ2E2bKutN8X3FO+26jtjXRnOR/LSLqjAe47CQXlsotQ2LSHsHyX9hJiOqDLPgK0j7VvdxFeRdafXffVUjXQHaAbH6yG6kAlVAcJ8sFyOB0sg9OhctbjlfA4VgtvxnBvmQ11uh7OZ+U8dRs0ae1QXyTMaZbRX9I7rkpmHW2FWZYOEukO1kLH13HeUwO3HTXw/KIG3ltq4bOhWhnOGbCmijBXIoSfVzgbQf3iEugJrvHzAsQvKUMs4Y6dX4QE3hfFunnSjg6k/wqo+KffYn9RBdKav0bL/wa2nL6DIfxuBk9JVmCWxfWjxpxAAhNU+NAFsHPxhYe3N54izEMJs1xratqECUpvtgLzn/s6wHrpphBt0bdgjkf/2FiMIMxmBeZQ+IePgWnMdkRMP4vImUkwvXqaEfskjG+eg/69K4iYnY7Ih2Gm05gJs3kFo/bKasJcg0hZeWRDHcI21SNQrpQo2koxevpRvtsouWD59nplgIUH5c5o6rqrm3YT1D0Etge5iuiAbopkyZ46uIv2WG672rSHIAtce6oZ3avZCDBa762EZm8F1PvKLdpfAS3lcqAK7ofrGJsb4HaCjQVjtO5MG3Tn2qFLoc63QXuOkTuZNbOAzBrc+TChP1CrSLefDcZewryrGm7bquG5tRo+m2sIcxX811UicE0lglZWIHR5GSL4uUUSZkk3pvl05sWEeUEJ4hYUI45wx32Si1lHvkbxb4GdFWUY+PYHWHjqKm7x531Xf4lnXzuLwTMI8tQkxLBWTph0Gv1fPonQpz8izN7w8PHBk488giGsmeONJrw0YSJmTJ6Cxqpq4E8CswDc7digesu//8Ew39/+ylrpd7/+DWGeR5hfJcwJ6M+6efiQ52FUJloEQOc5ECHPfko3PgTD6ydheOMozG/uRuQ7JxBKVw7/MAN61nKRMkmAB6LMabbUzJUwrZCrWhBmxknDOgK9oRbhm+oQxAM6YAtjpkiWomX89NvGOpLy3s44KutOUx4imdhvlcwLdiPQ3ydZc0uWuvWkvPl/vHbUwnOndS0ukSyDu4s/76JTUh47q9loEOydldDtqoTWpt1VVCWBJ/iMylIDux1n/D/ZDvfTHXBP4p5yPd3GSM4y4KjUyIT5AB1ZAJbGgo2Gy25qB1/jC8K8pQo+m6oYsSvpyuUIWlWOkJXlCCPMymAb+ezoxmZG7bhF5YS5lM5cgqhP85E4twDTd3WigPCe+boDs0+n4FTzl/iK3G1KbcYz757DE+9eQP/XzyJhWjIenXEWcWO3QWcYBTudK7z8ffHE4Ecx5MmnkWiKxsvjJ2H6xMlorK7FXxWYBeDeufXBzO2v/AIVmOd9jlmvEOaERAygO79ghVnn7A5Hl0B4xI9D1NT1iH3jGAyzjsP05jHo3zlHmLMQ9mEO9J/kQ/8ZXXlhGWGuIMxVjNrVlvPMq1gzy2L4a+sQub4BERsbECzuLNdiogK21BNoid2M2ozc3ozcXpQnXfpheTB2u+9q/H7tlJ5j1riM695yvWR5Pvm/jO5dEvdno+Etc4zZmMja1h5ba+DKGKxoG7W9Fi6UG9OBTGH03N8Cr0Nt8D7cAe+jnfA+ZpHX0Q54Hm6DxwHW+qzd3XZLecAUwYbIjXLn67jx+T3ZgHnLhdg3sCFbW02QWSuvlDnNlYhYWslEw8+Nn515YQWiPi+jI1cS5grE8LZZFv+bU4AXGMk3lP0KBzr/H3zR8M842v57XGj5Z7y/pxyD3r+EgUxJAz/MxGPvXMWTryVB/+Qn6OceAweVA4L9ffD0wEcw7ImnMcAci+njJytAN9XU4S9/lEEj1oOiF259MHMTmP/tN7/Fos/n443XXsfA/v0xIDEBw4Y8B4M+As5uavTTOUAbnoDI4bMxYNZBRL2eTKDTEPH2NYS+n4ew2QWI+KSYMJfBsKAKxkWEeGkdga4n0NTKBhhWNyJybROjdjMi1jcjZGMTgqxSxmxvboKfTJHc0kS4muD1RRPry2/LfRth2f79cqc85Pw1JeexlfPZlMdWQm6VJ+W1pRG+mxoJFxuRDfXwWk9HZxkg8txI2DezAZHH83Ee8vo7WpTTZ757OuC7txO++65bJLd5n/zOa2crGwm+Fh+vvBafw4MNlzyfN5/flw1awOpaBK6sYZ1MLatG6NJq1sr8zBZWE+RqRC2oRvTnVXTkaoJcRVcm4HPKEPNxHuI/ycDgeel4cmkunt3YiEcW5GL4vEt47KNLMLybgcj3shE/txRPf5qHp2YdRUDUBDg4eMHZ3g7hni54PnEwXnj8aQyMjsP0CZMxbewEBeZ//4MM57QeFL1w64OZmwLz736HRQsW4o3XZ2HQgIGEORFDn3+eMOvh7EKYVXbo5+ID98inETdmMfq/ehgxb11C5LuZCP6AMH9Y+J0wGwmz0Qbzmkbl9FTE+iaESq82QZbx2jagA6xA+xBo7+8A2mObAP39UsCjvOQ55LkIo9dmC1juTAIKXJQ3AfNbz1RAwHzX1MKHdb3XGou8RWvp2KzzBXIvwu7D55BZX35ftMB/eyv8d7RZtF3Uqtwvv/dhAyHPLfDK/1eei8/tu4qOTIiDmFaCCXHIkiqELK5E2KJK6BfSmedXwvg5SxPKTEXNoz4jyJ+Ww0SYoz6Wxf/yqTyEv52B4PdLEf5uLh05DQNY6oS/mw0Dk9KAT3Mx+O3jMAz5hCVSApwdPOFpZ49QnQuGEObhhHlwTDwj9hRMGTsezbX192HupUD3wcxNgfnf/g2LFi3Cm2+8gcEDBxHm/oR5CGGOhIuzDo6O9rCzc4Sdyhf+MWMQPWYV4t44D8N7GQianYfQj+jMcwRmGb3EA1KBuZauXEeYGa9XWgaNRK6Rc80yEqwR4esbCbRFIXQYWYkkkBD4CzCEz4eu5i3u+QVd9CF5MI5/nzwpry2M6yLC601wvTbScVmru29knGbd7rWe8BI0PwLrT9D8V1bDbwVrWcqPsdefkr387Mua33c1f8/H+xP+ADq5ND4yki2QjY9IBsIEytJI/J3yODYOfvK8/L/+K6v4fFUIXF6JoGWVCGGkDmGcDl1ELSxH+IJyRMwvR+Tn5TCI5pXDyIbRJPqUNTSd1jiXdfMnJYj5iLffLUHAqwXweJ0x/Z1yJLyXjoSPsmH8SKJ4NuLeTULA0I/hFPw4nNQBcLN3h6+dMyJ03oT5EQx/4hkMik3Ay5OmYPL4CWiuayDM1pjdS4Hug5mbwPz73/8eixcvxltvvonBgwejP6P2EMIcKTBrvaG294KqnzOB1kLlYYB7/HgETVqH8HeSEcT6LPTjHITPzYN+XqEyaMS4mAehMgKMYBMIA2vDyDXVjNmywF8NYeaeMIUTqjAqlICFbKolELWsnwkB60tfyucLuhrlJZd3sUpO7fyQvFj7iry3cL+5mkBXEeZKizZUEOQKum45I285QS6nW5YhcAW1vBQBlOyDl5USPMttuS9gBbWKj5G5x2srEbyezioL81kVJn8D7wteW4UgecyqcgStpPi8wdbnC1laykhdirAl1KISyjrlUc4hy1hsyiDrqMmElXl5MM7LJdAWGT/NQfQneYj9sADxHxDgDxtg/rgdZrrzoLfPYfB7KejPmjlx1n4EDZkNh5DHYacNgkrlAxd+fx523gh2DsEziU+xZn4OA+MS8NLkKZhEmJvqCbOtZu6DufduAvMf//hHLFmyBG+99RYeffRRxMfHY8iQIYiIYM2s8SXM/tD2cyXQGtirPWHnY4bDwEkInLKKddpJmD5IQvRHZxEz5wLiP7+E+AVXkLD4GuKXZiJ2aRZilmcjZmUOolZRq3NgpqLW5MK8lgcqZVyXh8j1eYjYwPhIhW7MJ9z5CKaCNufT+Qq6FMCfA3i/fw+S+0WB/P9BivIQuCEXQetzEbguhxBSa7IJWzaCV2UhdGUWwlZkIXxZJvRLqMUZigyLMli/ZsBIyW1RpIiPMfDvMfHvMa/k+1+dZ1U+/6583pcH04ocGJfRJfk44xJqcSaTiuX5ROYFVs2/BtP8dEbqqzDNuwqzVVGfXUU0FfXpRUR/moYY0dw0RM9JRfzHF+m6qYh5PQ2DGK8T3qcTv5mKZ945jCfe2IvYqVsR8vRbUAU/QpADYGfvApWjO7T2nnC2Y6pyCcMTic/g+SeeR/+4eEyeMBGTJlhg/nMfzL1/E5j//Oc/4/jx4xg5ciSeeuopGAwGPPPMM4iJiYFW4wInBx3UDlplb+fkAjsBWseDxU0Pu8DBcO8/GpEvvoEB0z7D4FcWY9DrK/DIO+vx2Ifb8OjHOzF4zi4M+nQ3Bn62BwPn7cEA0fy96E8lLtiLhAX7ELdwP2KpmEUHEL3oIKIWH4J58WGYFh8hEEdhWGJRJH/WWxWx5EHJfYZFfDxlWmiR2aYFfK75h7oU9fkhxMw7hLjPDiF+7kEkfHIAiR/tR/8P92Pg7P0Y/MF+DLKJPz+sgR8ewMCPqI8PYuAn1JxDGDTnMHUIgz+5r0c+PsTPwKLHRB9Zbj/y0UEM4nMM4HM9LHn9AXzdAe9bNPA96t19/Ex3Y/Ab2zBgxmYMfHkjBry8HjHj5sMtbgzs/AbzOzGzFAqDnYMf7O3d2Pjye7N3hoYNscbOA76uwXis/5N48pEnkUiYJ4wbj0/nzMVXd+/h97/7t14JsW3rg5mbDearV69i7NixeF46vgjzY489hujoaOh0Ojg5OcHJUU1p0c+RQDsycjsSakc3wu0FO40f7JyD0M81FPYekbD3MsPeLxb2gYnoF9QfdiEDYBc2EHbhVkVQ+kGwi7SJB6KBbmJ4lHqMegJ2xiepp3j7aeoZi4zWvXLfdyjyO6QX8fkiuincqlC+VjBfM4jRNFDE9xDwQ5LHyf8Ryf/n84RQsu9JD/9O/o+8ljzPw8/tz/v8RHxukS9v+/B+H35OXolsRGNh5x5DmQgw4WVdbOfkw++D34W9Bxz7uUFtpyPAaoKshrqfltLB190fjw18HAMSBqB/YiJdeSI++vBD/PbXv8H//Zf/az0ieufWBzM3gflPf/oTampqMHnyZLz44oswm81K3Swwu7q6WmFWKUA72msoLaXjQUPX5oHjYOcGe8rJjpGunzd0Dr5wdvTl3gsaHlwaRw/onETu0Kn4GBVv091FWo0nNBo+TsPaXOMDFWO9ExsHJ40/bwdArQ6kgqFRBfP/ce8UZJFjELQPSe5XiVRBcKIcRWqrVIFwcAr4lvqpCILKnzCwQeJ7/kHxb7OpHx3QwcEfjpSTYwAjLd+vg0Vy29H6GvZ8DdEDr+3oD4d+/P+MvyInStVNTnY+3eQNRztPiqAqnzNh7cfPlZ+9itCq7DSEl2IZJABrFakoJz7GEVoH3uZ3F+DjhycfewJRJjMGDRyI8XRm6SuRMutf/uVfrEdE79z6YLZu//7v/467d+/i/fffV2plgViAjo2Nhbe3N2EWkJ14gKqgsmdLL1IOHC10ds5wYaRzc/CAm+x5gLk5uMHVwQU6eUw/Jz7ekQe4IwF0gLpLvI9SOcmej5Hn5gGnctQoCcCJCUDl4Mz/58L/z5jI59byuS1y5eu6sg58UHK/PFakcmAjRDl+j2y/d2Btaa908DF1UP26i/fL7yxyIYDdxP/3wG3KsUt8bpu6vZ5NyuP52dlbX0f23dWPn+19afi+VJQTb1P8TB0IqCPlYO/AvT2c7C1S8We1qJ9N9gTZCW5aHcKDQ/Ho4MHKWYonnnhCabiTkpKUsxm//vWvrUdD79z6YLZuErP/6Z/+Cfv27cOzzz6LREaw8PBwZR8QQJdRCWgEzsEJWnsVdITZmfHNhXKl3AmtyINxzoOu7ebA3xNUjRMPMJUdHNR2sKf6ae7Ljj/bJOex7Z3uq59TP8qetx1gz+dx4OvKgevE11Zxr+LzqynNQ5L7lfTgpKb7qemGco7cIrntoNZ0yVGkYsMhkkZEnpfPrxb1U7ERopuJ+LfqHDRwplzYyDhTOictU4KWnwufi89rx8ZOET8nRbwtrynvQXlu7tVOdE6rVJS8x37d/5+6u5wsUlmldqQcKHuqH8safm4PfYZ2/AztrJ+foyPl0I8NiR2Tkx20TFbe7h4wRRoQY46CyWhUyilJYrdu3cJvf/tb/OEPsm527936YLZuv/nNb/C73/0OJSUlmDJlitIJZjKZEBUVBT8/PwVmidoqSnFYq7SETEc5EwSRKw9cF8qZB6i4gVr+D2F0ovsqEie2ysnBQXERxUkYBcXBLdHQ4vhS86npXGo7OjNd1yaJlpp+7j9a2m7SMfLbpBUxTWgolb07GwqWC3RRe6v60T3tmTDsHd0JpTvhY8RleaCItx24t6f68XdK34GjazdJX4Kb8juRfQ/qx99/+/99l6R/wpnvia7toGXjJqUOGwpp3OwlSjtYxc9RcWZ7Rap+/RjJ+ynfh6+HFwzhEdCzkR7AEmrEiBHYsGED/vVf/xX//M//rJRavXnrg9m6/cM//IPSMksr/fHHHyu92lIzh4SEKDCr1XQ7gZAuoWJEtklN59SoGJMJqobS8vc6SvYCslpxPBEdiQehxl5HiKh+lBLR6XSKdHAhuK4E15XAurImdGH97cwaUcdaUWfnxcezrlb23oo0PUjud7bKhXLtJjdFPnC3ypVypnT9fNiYsCa190Y/ey/WwlZJZ5KTt0UqH7qfVXK7u+T3tv/TTf0ceb/I9hwPy/Z72//ha8vr9yR7e9bLrJGlT0LNz0bLz8iZn5XlM9Py71Hzb7PImTFcZ8fvQiK2HYEmzC5MAn6eXggLDkGQfwCeevJJjBs3DpmZmUoi+3eWWRK1e/PWB7N1k5gtX6jUTdeuXVNgfu655xR3Fpg9PT2h0TAeCsyE1oHxTWKcmiDbYLYBbZHAzLiqSCImRbA1rIe7RCfX0FksUitxVhHjuiLGdU2X5BRLD1JOmXUT75PH2tTVcIhsP3eT8rz8fypKTruJHFmrOzwsJ4scVc50ZWemDIvktjz+++QgTvrwfbb7Hxb/1p4kHY5O9iwHKKXPQumh5ufZVQ6wAZW+CUKsIsAa7sWlHe0YsZmcPJxdEOwfiNioaGV035DnnsfcOXPQ2dHRFbFl4FBv3vpg7rb95S9/Ub7YX/ziF1i2bBmGDRumnJ6SqB0cHKwALXHbjgeIi4sz4bbcdnLgweNkgdgCtdWVu2DuWVKD9zZ96+/o4TEPiKWIUk5w/+DvLPf/reUoZQshdmZj6cx6XkoiPy9vGPWRCAkKhslgwBP8Tl+b+QrSr1xVXFkglogt339v3v7HwyynpUTyRYqkdv7Hf/xH1NfX44MPPsCYMWPw9NNPKw4tQHt5ecLbm9GPtZgDIdZptZYDUw4iHjg/FmTRgwf3z1RWmJ2U/cP6Nox/C/kwTuukk4/xOiQwCP4+vvAl0DLmfuzo0Rg9YiR27diJ//O//6EL5J/D9j8aZhvEEq8lZsu5RvlypUNEzjlevHhROVUlkftJ1lji0IGBgfDw8FBOV8neWaeDTiM9u4x8BFSR3P4R6gnwn5/YsBHq/3J1e00tQQ5gaRQWEgp3VzeEh4biEYL8wpChGDNyFJYvWYqOtjb8liWVzJazjfr6C4+D3uzO/+NhtgEtMEsLLbJBLXE7NTUV7777rjIyTGJ3WFgYI7aLUkeH8iAJCQ5BoJ8//Nj6+7D1F1fw/pHy8vD82ctb1MPf/reSj5eX4rq+3j7KdyAu7M1ySH4OZZKSeN0/IQEvDh1GVx6DFUuX4Xp7B/78hz/iD/9GV/79H/Dvf/qzRTwG+mDupVt3mG3uLLK5s+jv//7vUVBQgOXLl2PixInKuclBgwYpIEvsNrIGM0YaECmnPMLCWZMZEWU0/SjJY3/uMlM9/e1/K8nzy+cv0Boi9IikpC6W146LicVTMjBk2At49+23ceTgIXS2teN3LKUE5j8S5r/++1/482+VxSl6+9YHsxXm7kCLM9t6N6VDTHTjxg0cPnwYs2fPxoQJE5SeboE6UZYYohLi4pSDx3aA/RjJAIafvQhWT3/730oCsuzlO+gfn6BMnhg8cCCGPvc8xtGJRSuXr0B2Zhb+19/9nTKZQlxYxmL/gbcFanHnP/H7FrDleOitW18H2EMwi+S23C+3bWAL5HIuura2FmfPnsXmzZvx5ptvYuSIEUqEGzl8BMaMGo0Xhg7FkGef+1F6/plnf/569tke//b/lNiQCqxyekmeX1aEGcvPXj7/0ayJp02egs/mzMWRQ4eRnZGJOzdv4f/9P/+EPxJagffPUkaxVv6T9bZtyuNf/txXM/fq7WF3toFs22y/s7m21NTS4/13bOWbm5txLf0a9u3Zgx1fbMOm9Rvw2dxP8fGHH/0ofTT7Q2r2z1of82/s6W//z+ijD2Zj9nvvY/b7H2DuJ3OU5Z52bNuOo4Q35ew5FObl43pHB/5ZTjuJ+/7xTwq4or/wO/wrof0rv0/8RQju5sTyvXf77nvb1gczv7yeZNvk9sMwy9728+9++zv8v//4f/B//uEf8Y//+3/j7775Jb75+hc/Sr/46uufvb4R9fC3/2f0y198g7/75a+oX+LrL7/C1/e+ZIT+e+V7kB5qi+P+SamF//Vf/i9+z+/oL7KMrg1e+X7lK+5JvXjrg7kbwN1l2+R2d5gldoszi2T43295wPz6//4rfvuvv1YOGjmQZPmZHyMl8v3cxc+rp7/9PyOb08peicbW3mjFbW0b61+5T+pheZzUw10wK0DzMT2p127A/wfbW0oWD0wIlAAAAABJRU5ErkJggg==" parent="WIyWlLk6GJQsqaUBKTNV-1" vertex="1">
          <mxGeometry x="570" y="360" width="63" height="69.74" as="geometry" />
        </mxCell>
        <mxCell id="y-lqlmgp_zkwsUzzVVPY-9" style="edgeStyle=orthogonalEdgeStyle;rounded=0;orthogonalLoop=1;jettySize=auto;html=1;entryX=0.5;entryY=0;entryDx=0;entryDy=0;" parent="WIyWlLk6GJQsqaUBKTNV-1" source="y-lqlmgp_zkwsUzzVVPY-3" target="EpqbxgLTX3g3RoxkR-dn-41" edge="1">
          <mxGeometry relative="1" as="geometry" />
        </mxCell>
        <mxCell id="y-lqlmgp_zkwsUzzVVPY-3" value="Rangkaian Cell Ballancing" style="rounded=0;whiteSpace=wrap;html=1;fillColor=#76608a;strokeColor=#432D57;fontColor=#ffffff;" parent="WIyWlLk6GJQsqaUBKTNV-1" vertex="1">
          <mxGeometry x="580" y="95" width="80" height="40" as="geometry" />
        </mxCell>
        <mxCell id="ifsDbYzW9i0dnMqYRq7o-10" style="edgeStyle=orthogonalEdgeStyle;rounded=0;orthogonalLoop=1;jettySize=auto;html=1;dashed=1;" parent="WIyWlLk6GJQsqaUBKTNV-1" source="ifsDbYzW9i0dnMqYRq7o-8" target="ifsDbYzW9i0dnMqYRq7o-9" edge="1">
          <mxGeometry relative="1" as="geometry" />
        </mxCell>
        <mxCell id="ifsDbYzW9i0dnMqYRq7o-8" value="GPIO" style="rounded=0;whiteSpace=wrap;html=1;" parent="WIyWlLk6GJQsqaUBKTNV-1" vertex="1">
          <mxGeometry x="242.5" y="310" width="35" height="20" as="geometry" />
        </mxCell>
        <mxCell id="ifsDbYzW9i0dnMqYRq7o-9" value="Switch Mode Selector" style="rounded=0;whiteSpace=wrap;html=1;fillColor=#fad7ac;strokeColor=#b46504;" parent="WIyWlLk6GJQsqaUBKTNV-1" vertex="1">
          <mxGeometry x="230" y="379.87" width="60" height="40" as="geometry" />
        </mxCell>
        <mxCell id="ifsDbYzW9i0dnMqYRq7o-19" value="ADC" style="rounded=0;whiteSpace=wrap;html=1;rotation=0;" parent="WIyWlLk6GJQsqaUBKTNV-1" vertex="1">
          <mxGeometry x="374" y="310" width="40" height="20" as="geometry" />
        </mxCell>
        <mxCell id="ifsDbYzW9i0dnMqYRq7o-21" value="" style="edgeStyle=orthogonalEdgeStyle;rounded=0;orthogonalLoop=1;jettySize=auto;html=1;dashed=1;" parent="WIyWlLk6GJQsqaUBKTNV-1" source="ifsDbYzW9i0dnMqYRq7o-20" target="ifsDbYzW9i0dnMqYRq7o-19" edge="1">
          <mxGeometry relative="1" as="geometry" />
        </mxCell>
        <mxCell id="ifsDbYzW9i0dnMqYRq7o-20" value="Dimming Input Potentiometer" style="rounded=0;whiteSpace=wrap;html=1;fillColor=#fad7ac;strokeColor=#b46504;" parent="WIyWlLk6GJQsqaUBKTNV-1" vertex="1">
          <mxGeometry x="355" y="379.87" width="78" height="45" as="geometry" />
        </mxCell>
        <mxCell id="EpqbxgLTX3g3RoxkR-dn-47" value="Lampu Darurat LED" style="rounded=0;whiteSpace=wrap;html=1;fillColor=#a0522d;strokeColor=#6D1F00;fontColor=#ffffff;" parent="WIyWlLk6GJQsqaUBKTNV-1" vertex="1">
          <mxGeometry x="710" y="10" width="80" height="45" as="geometry" />
        </mxCell>
        <mxCell id="IaU5ZDQIou1FokywF6je-10" value="" style="edgeStyle=orthogonalEdgeStyle;rounded=0;orthogonalLoop=1;jettySize=auto;html=1;" edge="1" parent="WIyWlLk6GJQsqaUBKTNV-1" source="IaU5ZDQIou1FokywF6je-5" target="IaU5ZDQIou1FokywF6je-8">
          <mxGeometry relative="1" as="geometry" />
        </mxCell>
        <mxCell id="IaU5ZDQIou1FokywF6je-5" value="Driver LED" style="rounded=0;whiteSpace=wrap;html=1;fillColor=#647687;strokeColor=#314354;fontColor=#ffffff;" vertex="1" parent="WIyWlLk6GJQsqaUBKTNV-1">
          <mxGeometry x="720" y="170" width="60" height="40" as="geometry" />
        </mxCell>
        <mxCell id="IaU5ZDQIou1FokywF6je-9" value="" style="edgeStyle=orthogonalEdgeStyle;rounded=0;orthogonalLoop=1;jettySize=auto;html=1;" edge="1" parent="WIyWlLk6GJQsqaUBKTNV-1" source="IaU5ZDQIou1FokywF6je-8" target="EpqbxgLTX3g3RoxkR-dn-47">
          <mxGeometry relative="1" as="geometry" />
        </mxCell>
        <mxCell id="IaU5ZDQIou1FokywF6je-8" value="Sensor Arus" style="rounded=0;whiteSpace=wrap;html=1;fillColor=#fa6800;strokeColor=#C73500;fontColor=#ffffff;" vertex="1" parent="WIyWlLk6GJQsqaUBKTNV-1">
          <mxGeometry x="712" y="100" width="76" height="30" as="geometry" />
        </mxCell>
      </root>
    </mxGraphModel>
  </diagram>
</mxfile>
